GeoramaCondensed-ExtraBoldItalic.ufo
<glyph name="exclam" format="2">
  <advance width="199.388"/>
  <unicode hex="0021"/>
  <outline>
    <contour>
      <point x="28.464000000000002" y="259.7" type="line"/>
      <point x="160.672" y="259.7" type="line"/>
      <point x="252.958" y="740.0" type="line"/>
      <point x="96.67" y="740.0" type="line"/>
    </contour>
    <contour>
      <point x="-15.532" y="60.05199999999999" type="curve" smooth="yes"/>
      <point x="-15.672" y="14.37"/>
      <point x="5.58" y="-8.6"/>
      <point x="54.062" y="-8.6" type="curve" smooth="yes"/>
      <point x="130.80599999999998" y="-8.6"/>
      <point x="156.104" y="68.166"/>
      <point x="156.524" y="129.09199999999998" type="curve" smooth="yes"/>
      <point x="156.66400000000002" y="174.89999999999998"/>
      <point x="135.16" y="197.744"/>
      <point x="86.89" y="197.744" type="curve" smooth="yes"/>
      <point x="11.516000000000002" y="197.744"/>
      <point x="-15.111999999999998" y="122.096"/>
    </contour>
  </outline>
</glyph>
<glyph name="numbersign" format="2">
  <advance width="461.356"/>
  <unicode hex="0023"/>
  <outline>
    <contour>
      <point x="81.448" y="404.808" type="line"/>
      <point x="123.612" y="404.808" type="line"/>
      <point x="94.392" y="286.706" type="line"/>
      <point x="50.286" y="286.706" type="line"/>
      <point x="28.081999999999997" y="147.20199999999997" type="line"/>
      <point x="63.908" y="147.20199999999997" type="line"/>
      <point x="30.312000000000005" y="0.0" type="line"/>
      <point x="144.86599999999999" y="0.0" type="line"/>
      <point x="178.322" y="147.20199999999997" type="line"/>
      <point x="217.428" y="147.20199999999997" type="line"/>
      <point x="183.972" y="0.0" type="line"/>
      <point x="297.62600000000003" y="0.0" type="line"/>
      <point x="331.08200000000005" y="147.20199999999997" type="line"/>
      <point x="381.31199999999995" y="147.20199999999997" type="line"/>
      <point x="403.30400000000003" y="286.706" type="line"/>
      <point x="361.75199999999995" y="286.706" type="line"/>
      <point x="390.78600000000006" y="404.808" type="line"/>
      <point x="434.46599999999995" y="404.808" type="line"/>
      <point x="457.332" y="545.688" type="line"/>
      <point x="421.284" y="545.688" type="line"/>
      <point x="457.002" y="700.0" type="line"/>
      <point x="342.574" y="700.0" type="line"/>
      <point x="306.856" y="545.688" type="line"/>
      <point x="267.75" y="545.688" type="line"/>
      <point x="303.46799999999996" y="700.0" type="line"/>
      <point x="189.814" y="700.0" type="line"/>
      <point x="154.096" y="545.688" type="line"/>
      <point x="104.228" y="545.688" type="line"/>
    </contour>
    <contour>
      <point x="237.266" y="404.808" type="line"/>
      <point x="276.372" y="404.808" type="line"/>
      <point x="247.92600000000002" y="286.706" type="line"/>
      <point x="208.82000000000002" y="286.706" type="line"/>
    </contour>
  </outline>
</glyph>
<glyph name="dollar" format="2">
  <advance width="461.356"/>
  <unicode hex="0024"/>
  <outline>
    <contour>
      <point x="458.448" y="675.9879999999999" type="line"/>
      <point x="436.51" y="687.856"/>
      <point x="399.928" y="700.644"/>
      <point x="358.15999999999997" y="706.0980000000001" type="curve"/>
      <point x="373.25999999999993" y="803.452" type="line"/>
      <point x="242.46" y="803.452" type="line"/>
      <point x="224.926" y="696.4580000000001" type="line"/>
      <point x="128.026" y="669.2460000000001"/>
      <point x="70.952" y="589.736"/>
      <point x="70.952" y="494.076" type="curve" smooth="yes"/>
      <point x="70.952" y="308.608"/>
      <point x="255.52" y="275.612"/>
      <point x="255.52" y="199.438" type="curve" smooth="yes"/>
      <point x="255.52" y="160.084"/>
      <point x="229.596" y="137.062"/>
      <point x="183.186" y="137.062" type="curve" smooth="yes"/>
      <point x="139.194" y="137.062"/>
      <point x="94.874" y="148.118"/>
      <point x="46.624" y="168.86000000000004" type="curve"/>
      <point x="-2.883999999999998" y="30.55" type="line"/>
      <point x="29.674000000000003" y="12.116"/>
      <point x="71.02799999999999" y="-0.18199999999999983"/>
      <point x="110.366" y="-5.27" type="curve"/>
      <point x="95.366" y="-105.0" type="line"/>
      <point x="226.08" y="-105.0" type="line"/>
      <point x="241.08" y="-2.3920000000000003" type="line"/>
      <point x="349.76" y="22.842"/>
      <point x="409.64799999999997" y="110.468"/>
      <point x="409.64799999999997" y="206.24799999999996" type="curve" smooth="yes"/>
      <point x="409.64799999999997" y="391.158"/>
      <point x="231.54799999999997" y="416.5659999999999"/>
      <point x="231.54799999999997" y="495.588" type="curve" smooth="yes"/>
      <point x="231.54799999999997" y="531.672"/>
      <point x="258.77599999999995" y="555.9339999999999"/>
      <point x="305.66999999999996" y="555.9339999999999" type="curve" smooth="yes"/>
      <point x="331.86" y="555.9339999999999"/>
      <point x="368.618" y="551.0679999999999"/>
      <point x="408.196" y="533.652" type="curve"/>
    </contour>
  </outline>
</glyph>
<glyph name="ampersand" format="2">
  <advance width="538.9200000000001"/>
  <unicode hex="0026"/>
  <outline>
    <contour>
      <point x="227.18199999999996" y="-10.0" type="curve" smooth="yes"/>
      <point x="398.684" y="-10.0"/>
      <point x="507.91800000000006" y="147.96"/>
      <point x="460.83" y="297.158" type="curve"/>
      <point x="340.11" y="284.68800000000005" type="line"/>
      <point x="393.242" y="207.352"/>
      <point x="322.194" y="130.706"/>
      <point x="251.1" y="130.706" type="curve" smooth="yes"/>
      <point x="185.45" y="130.706"/>
      <point x="153.352" y="169.14799999999997"/>
      <point x="153.352" y="226.112" type="curve" smooth="yes"/>
      <point x="153.352" y="296.80199999999996"/>
      <point x="196.72599999999997" y="361.93600000000004"/>
      <point x="263.392" y="361.93600000000004" type="curve" smooth="yes"/>
      <point x="283.82800000000003" y="361.93600000000004" type="line"/>
      <point x="309.40399999999994" y="466.77799999999996" type="line"/>
      <point x="291.38599999999997" y="470.14599999999996" type="line" smooth="yes"/>
      <point x="252.45" y="475.702"/>
      <point x="237.38400000000001" y="495.462"/>
      <point x="237.38400000000001" y="522.8560000000001" type="curve" smooth="yes"/>
      <point x="237.38400000000001" y="555.1500000000001"/>
      <point x="263.082" y="575.1679999999999"/>
      <point x="291.38" y="575.1679999999999" type="curve" smooth="yes"/>
      <point x="314.46200000000005" y="575.1679999999999"/>
      <point x="334.054" y="571.0179999999999"/>
      <point x="358.26" y="554.398" type="curve"/>
      <point x="428.002" y="672.134" type="line"/>
      <point x="379.90799999999996" y="697.142"/>
      <point x="335.73" y="710.0"/>
      <point x="275.82" y="710.0" type="curve" smooth="yes"/>
      <point x="162.586" y="710.0"/>
      <point x="92.896" y="629.734"/>
      <point x="92.896" y="543.516" type="curve" smooth="yes"/>
      <point x="92.896" y="493.354"/>
      <point x="114.36199999999998" y="457.044"/>
      <point x="161.798" y="423.632" type="curve"/>
      <point x="71.798" y="396.32000000000005"/>
      <point x="5.251999999999999" y="319.562"/>
      <point x="5.251999999999999" y="193.822" type="curve" smooth="yes"/>
      <point x="5.251999999999999" y="79.05599999999998"/>
      <point x="78.494" y="-10.0"/>
    </contour>
    <contour>
      <point x="315.672" y="211.228" type="line"/>
      <point x="317.462" y="242.014"/>
      <point x="327.23" y="262.456"/>
      <point x="352.93" y="262.456" type="curve" smooth="yes"/>
      <point x="385.406" y="262.456"/>
      <point x="419.432" y="259.148"/>
      <point x="446.878" y="259.148" type="curve" smooth="yes"/>
      <point x="518.102" y="259.148"/>
      <point x="564.448" y="335.566"/>
      <point x="547.78" y="412.724" type="curve"/>
      <point x="455.36999999999995" y="413.858" type="line"/>
      <point x="452.86800000000005" y="360.848"/>
      <point x="431.548" y="353.426"/>
      <point x="387.84799999999996" y="353.426" type="curve" smooth="yes"/>
      <point x="369.62" y="353.426"/>
      <point x="351.748" y="357.046"/>
      <point x="333.15599999999995" y="357.046" type="curve" smooth="yes"/>
      <point x="251.264" y="357.046"/>
      <point x="223.93800000000002" y="290.386"/>
      <point x="221.644" y="227.642" type="curve"/>
    </contour>
  </outline>
</glyph>
<glyph name="quotesingle" format="2">
  <advance width="186.198"/>
  <unicode hex="0027"/>
  <outline>
    <contour>
      <point x="50.872" y="427.0" type="line"/>
      <point x="179.284" y="427.0" type="line"/>
      <point x="231.44400000000002" y="700.0" type="line"/>
      <point x="88.754" y="700.0" type="line"/>
    </contour>
  </outline>
</glyph>
<glyph name="parenleft" format="2">
  <advance width="254.838"/>
  <unicode hex="0028"/>
  <outline>
    <contour>
      <point x="11.508000000000003" y="44.18000000000001" type="curve" smooth="yes"/>
      <point x="11.508000000000003" y="-106.156"/>
      <point x="56.05799999999999" y="-202.166"/>
      <point x="160.144" y="-220.0" type="curve"/>
      <point x="184.95800000000003" y="-81.67999999999999" type="line"/>
      <point x="151.83599999999998" y="-62.054"/>
      <point x="134.09799999999998" y="-26.017999999999997"/>
      <point x="134.09799999999998" y="52.132" type="curve" smooth="yes"/>
      <point x="134.09799999999998" y="169.454"/>
      <point x="193.35" y="597.606"/>
      <point x="295.844" y="610.488" type="curve"/>
      <point x="316.59" y="749.874" type="line"/>
      <point x="85.964" y="739.084"/>
      <point x="11.508000000000003" y="284.114"/>
    </contour>
  </outline>
</glyph>
<glyph name="parenright" format="2">
  <advance width="254.838"/>
  <unicode hex="0029"/>
  <outline>
    <contour>
      <point x="240.37" y="485.792" type="curve" smooth="yes"/>
      <point x="240.37" y="636.6419999999999"/>
      <point x="195.91799999999998" y="732.166"/>
      <point x="91.818" y="750.0" type="curve"/>
      <point x="67.256" y="610.844" type="line"/>
      <point x="100.77" y="590.4340000000001"/>
      <point x="117.78" y="555.182"/>
      <point x="117.78" y="479.048" type="curve" smooth="yes"/>
      <point x="117.78" y="360.564"/>
      <point x="58.5" y="-67.872"/>
      <point x="-44.12" y="-80.712" type="curve"/>
      <point x="-64.74" y="-220.0" type="line"/>
      <point x="165.116" y="-207.864"/>
      <point x="240.37" y="246.28400000000002"/>
    </contour>
  </outline>
</glyph>
<glyph name="asterisk" format="2">
  <advance width="318.43600000000004"/>
  <unicode hex="002A"/>
  <outline>
    <contour>
      <point x="120.82399999999998" y="409.9" type="line"/>
      <point x="191.372" y="481.296" type="line"/>
      <point x="237.972" y="410.026" type="line"/>
      <point x="301.362" y="452.678" type="line"/>
      <point x="271.59200000000004" y="536.754" type="line"/>
      <point x="357.758" y="577.9440000000001" type="line"/>
      <point x="347.408" y="649.056" type="line"/>
      <point x="259.77" y="629.296" type="line"/>
      <point x="266.0" y="725.014" type="line"/>
      <point x="195.36200000000002" y="725.014" type="line"/>
      <point x="169.696" y="629.422" type="line"/>
      <point x="90.51600000000002" y="649.182" type="line"/>
      <point x="56.571999999999996" y="578.196" type="line"/>
      <point x="125.97399999999999" y="537.006" type="line"/>
      <point x="70.686" y="452.706" type="line"/>
    </contour>
  </outline>
</glyph>
<glyph name="plus" format="2">
  <advance width="413.358"/>
  <unicode hex="002B"/>
  <outline>
    <contour>
      <point x="119.038" y="143.724" type="line"/>
      <point x="253.006" y="143.724" type="line"/>
      <point x="270.16799999999995" y="251.924" type="line"/>
      <point x="365.992" y="251.924" type="line"/>
      <point x="388.686" y="396.04" type="line"/>
      <point x="292.86199999999997" y="396.04" type="line"/>
      <point x="310.124" y="504.28000000000003" type="line"/>
      <point x="176.328" y="504.28000000000003" type="line"/>
      <point x="158.894" y="396.04" type="line"/>
      <point x="63.202" y="396.04" type="line"/>
      <point x="40.507999999999996" y="251.924" type="line"/>
      <point x="136.37199999999999" y="251.924" type="line"/>
    </contour>
  </outline>
</glyph>
<glyph name="comma" format="2">
  <advance width="193.316"/>
  <unicode hex="002C"/>
  <outline>
    <contour>
      <point x="-3.625999999999999" y="100.13600000000001" type="line"/>
      <point x="-4.304" y="68.15"/>
      <point x="-7.715999999999999" y="39.808"/>
      <point x="-10.381999999999998" y="24.836000000000002" type="curve" smooth="yes"/>
      <point x="-18.552" y="-29.498"/>
      <point x="-52.906" y="-107.106"/>
      <point x="-82.74399999999999" y="-150.606" type="curve"/>
      <point x="25.939999999999998" y="-182.57599999999996" type="line"/>
      <point x="91.39999999999999" y="-106.078"/>
      <point x="137.13" y="-22.266000000000002"/>
      <point x="137.13" y="68.656" type="curve" smooth="yes"/>
      <point x="137.13" y="80.514"/>
      <point x="136.228" y="91.458"/>
      <point x="135.64800000000002" y="102.00399999999999" type="curve"/>
    </contour>
  </outline>
</glyph>
<glyph name="hyphen" format="2">
  <advance width="300.704"/>
  <unicode hex="002D"/>
  <outline>
    <contour>
      <point x="26.83" y="234.968" type="line"/>
      <point x="260.266" y="234.968" type="line"/>
      <point x="286.18199999999996" y="390.19199999999995" type="line"/>
      <point x="52.746" y="390.19199999999995" type="line"/>
    </contour>
  </outline>
</glyph>
<glyph name="period" format="2">
  <advance width="194.434"/>
  <unicode hex="002E"/>
  <outline>
    <contour>
      <point x="-16.696" y="62.374" type="curve" smooth="yes"/>
      <point x="-16.836000000000002" y="15.918"/>
      <point x="3.6419999999999995" y="-6.278"/>
      <point x="52.898" y="-6.278" type="curve" smooth="yes"/>
      <point x="129.642" y="-6.278"/>
      <point x="154.166" y="70.488"/>
      <point x="154.58599999999998" y="132.962" type="curve" smooth="yes"/>
      <point x="154.72599999999997" y="177.99599999999998"/>
      <point x="133.996" y="200.066"/>
      <point x="85.726" y="200.066" type="curve" smooth="yes"/>
      <point x="9.578" y="200.066"/>
      <point x="-16.276" y="124.418"/>
    </contour>
  </outline>
</glyph>
<glyph name="slash" format="2">
  <advance width="367.04999999999995"/>
  <unicode hex="002F"/>
  <outline>
    <contour>
      <point x="-82.354" y="-210.0" type="line"/>
      <point x="45.696" y="-210.0" type="line"/>
      <point x="446.404" y="740.0" type="line"/>
      <point x="316.72" y="740.0" type="line"/>
    </contour>
  </outline>
</glyph>
<glyph name="zero" format="2">
  <advance width="461.44"/>
  <unicode hex="0030"/>
  <outline>
    <contour>
      <point x="197.48000000000002" y="-10.14" type="curve" smooth="yes"/>
      <point x="391.38" y="-10.14"/>
      <point x="462.21" y="275.92999999999995"/>
      <point x="462.21" y="498.00999999999993" type="curve" smooth="yes"/>
      <point x="462.21" y="642.2400000000001"/>
      <point x="408.78" y="710.07"/>
      <point x="287.23999999999995" y="710.07" type="curve" smooth="yes"/>
      <point x="98.11" y="710.07"/>
      <point x="22.44" y="424.07"/>
      <point x="22.44" y="202.41000000000003" type="curve" smooth="yes"/>
      <point x="22.44" y="58.24999999999999"/>
      <point x="75.93999999999998" y="-10.14"/>
    </contour>
    <contour>
      <point x="211.0" y="141.01000000000002" type="curve" smooth="yes"/>
      <point x="187.17999999999998" y="141.01000000000002"/>
      <point x="176.07" y="154.79999999999995"/>
      <point x="176.27999999999997" y="194.45" type="curve" smooth="yes"/>
      <point x="176.49" y="291.48"/>
      <point x="219.47" y="558.9899999999999"/>
      <point x="276.41999999999996" y="558.9899999999999" type="curve" smooth="yes"/>
      <point x="299.16" y="558.9899999999999"/>
      <point x="309.66" y="545.1599999999999"/>
      <point x="309.45000000000005" y="507.13" type="curve" smooth="yes"/>
      <point x="309.23999999999995" y="414.56"/>
      <point x="264.57" y="141.01000000000002"/>
    </contour>
  </outline>
</glyph>
<glyph name="one" format="2">
  <advance width="461.356"/>
  <unicode hex="0031"/>
  <outline>
    <contour>
      <point x="33.252" y="0.0" type="line"/>
      <point x="365.134" y="0.0" type="line"/>
      <point x="388.51599999999996" y="143.826" type="line"/>
      <point x="303.778" y="143.826" type="line"/>
      <point x="393.31600000000003" y="700.14" type="line"/>
      <point x="317.558" y="700.14" type="line"/>
      <point x="114.516" y="629.692" type="line"/>
      <point x="119.272" y="467.02799999999996" type="line"/>
      <point x="208.57000000000002" y="500.93399999999997" type="line"/>
      <point x="150.546" y="143.826" type="line"/>
      <point x="55.86" y="143.826" type="line"/>
    </contour>
  </outline>
</glyph>
<glyph name="two" format="2">
  <advance width="461.44"/>
  <unicode hex="0032"/>
  <outline>
    <contour>
      <point x="31.440000000000005" y="116.58" type="curve"/>
      <point x="13.660000000000002" y="0.0" type="line"/>
      <point x="360.34" y="0.0" type="line"/>
      <point x="382.37000000000006" y="131.55" type="line"/>
      <point x="212.60000000000002" y="131.55" type="line"/>
      <point x="337.25999999999993" y="287.77"/>
      <point x="431.1400000000001" y="404.73999999999995"/>
      <point x="431.1400000000001" y="546.97" type="curve" smooth="yes"/>
      <point x="431.1400000000001" y="648.5500000000002"/>
      <point x="374.99" y="710.0"/>
      <point x="285.02" y="710.0" type="curve" smooth="yes"/>
      <point x="214.71" y="710.0"/>
      <point x="148.52" y="685.3599999999998"/>
      <point x="96.43000000000002" y="648.5400000000001" type="curve"/>
      <point x="123.75000000000001" y="490.9600000000001" type="line"/>
      <point x="154.94000000000005" y="510.18999999999994"/>
      <point x="185.07" y="524.9"/>
      <point x="217.09" y="524.9" type="curve" smooth="yes"/>
      <point x="248.98" y="524.9"/>
      <point x="262.23999999999995" y="502.51"/>
      <point x="262.23999999999995" y="478.00000000000006" type="curve" smooth="yes"/>
      <point x="262.24" y="388.45"/>
      <point x="135.90999999999997" y="233.20999999999998"/>
    </contour>
  </outline>
</glyph>
<glyph name="three" format="2">
  <advance width="461.44"/>
  <unicode hex="0033"/>
  <outline>
    <contour>
      <point x="-5.64" y="38.465" type="line"/>
      <point x="36.92" y="8.04"/>
      <point x="84.33" y="-10.0"/>
      <point x="155.795" y="-10.0" type="curve" smooth="yes"/>
      <point x="273.87" y="-10.0"/>
      <point x="399.27500000000003" y="69.37"/>
      <point x="399.27500000000003" y="228.465" type="curve" smooth="yes"/>
      <point x="399.27500000000003" y="313.515"/>
      <point x="363.27500000000003" y="349.855"/>
      <point x="327.96" y="370.14" type="curve"/>
      <point x="394.09499999999997" y="412.39500000000004"/>
      <point x="439.345" y="469.79"/>
      <point x="439.345" y="558.555" type="curve" smooth="yes"/>
      <point x="439.345" y="657.26"/>
      <point x="381.495" y="710.0"/>
      <point x="275.295" y="710.0" type="curve" smooth="yes"/>
      <point x="206.09" y="710.0"/>
      <point x="141.3" y="689.075"/>
      <point x="94.92" y="655.795" type="curve"/>
      <point x="117.47500000000001" y="529.9350000000001" type="line"/>
      <point x="141.465" y="542.0049999999999"/>
      <point x="173.32999999999998" y="551.2849999999999"/>
      <point x="210.595" y="551.2849999999999" type="curve" smooth="yes"/>
      <point x="251.125" y="551.2849999999999"/>
      <point x="278.69" y="530.85"/>
      <point x="278.69" y="491.875" type="curve" smooth="yes"/>
      <point x="278.69" y="450.31"/>
      <point x="247.57" y="415.66"/>
      <point x="199.275" y="415.66" type="curve" smooth="yes"/>
      <point x="146.3" y="415.66" type="line"/>
      <point x="126.245" y="293.96" type="line"/>
      <point x="190.26999999999998" y="293.96" type="line" smooth="yes"/>
      <point x="232.45499999999998" y="293.96"/>
      <point x="250.81500000000003" y="268.97"/>
      <point x="250.81500000000003" y="234.825" type="curve" smooth="yes"/>
      <point x="250.81500000000003" y="179.3"/>
      <point x="217.48" y="142.72500000000002"/>
      <point x="157.94" y="142.72500000000002" type="curve" smooth="yes"/>
      <point x="121.78999999999999" y="142.72500000000002"/>
      <point x="92.695" y="150.70499999999998"/>
      <point x="63.324999999999996" y="168.74499999999998" type="curve"/>
    </contour>
  </outline>
</glyph>
<glyph name="four" format="2">
  <advance width="461.44"/>
  <unicode hex="0034"/>
  <outline>
    <contour>
      <point x="1.1300000000000008" y="97.325" type="line"/>
      <point x="184.74499999999998" y="97.325" type="line"/>
      <point x="169.33" y="-0.06999999999999998" type="line"/>
      <point x="328.97499999999997" y="-0.06999999999999998" type="line"/>
      <point x="344.39" y="97.325" type="line"/>
      <point x="401.21999999999997" y="97.325" type="line"/>
      <point x="421.84999999999997" y="229.41" type="line"/>
      <point x="365.915" y="229.41" type="line"/>
      <point x="441.77" y="699.8249999999999" type="line"/>
      <point x="273.505" y="700.56" type="line"/>
      <point x="20.56" y="225.51500000000001" type="line"/>
    </contour>
    <contour>
      <point x="121.935" y="229.41" type="line"/>
      <point x="255.645" y="491.06" type="line"/>
      <point x="212.46999999999997" y="229.41" type="line"/>
    </contour>
  </outline>
</glyph>
<glyph name="five" format="2">
  <advance width="461.44"/>
  <unicode hex="0035"/>
  <outline>
    <contour>
      <point x="-2.5999999999999996" y="32.035" type="line"/>
      <point x="38.28" y="3.5900000000000003"/>
      <point x="85.82500000000002" y="-10.0"/>
      <point x="156.585" y="-10.0" type="curve" smooth="yes"/>
      <point x="334.3850000000001" y="-10.0"/>
      <point x="410.57499999999993" y="132.92499999999998"/>
      <point x="410.57499999999993" y="273.495" type="curve" smooth="yes"/>
      <point x="410.57499999999993" y="378.94"/>
      <point x="362.125" y="422.62999999999994"/>
      <point x="280.80500000000006" y="426.85999999999996" type="curve" smooth="yes"/>
      <point x="238.735" y="428.3299999999999" type="line"/>
      <point x="266.4699999999999" y="546.595" type="line"/>
      <point x="435.19000000000005" y="546.595" type="line"/>
      <point x="458.61500000000007" y="700.0" type="line"/>
      <point x="173.53999999999996" y="700.0" type="line"/>
      <point x="74.72999999999999" y="302.515" type="line"/>
      <point x="80.46999999999998" y="290.40500000000003" type="line"/>
      <point x="182.04999999999998" y="290.40500000000003" type="line" smooth="yes"/>
      <point x="230.51" y="290.40500000000003"/>
      <point x="248.92000000000002" y="272.805"/>
      <point x="248.92000000000002" y="230.755" type="curve" smooth="yes"/>
      <point x="248.92000000000002" y="192.61999999999998"/>
      <point x="225.82999999999996" y="143.65999999999997"/>
      <point x="152.845" y="143.65999999999997" type="curve" smooth="yes"/>
      <point x="109.31500000000001" y="143.65999999999997"/>
      <point x="75.65" y="156.20000000000002"/>
      <point x="50.45" y="169.95000000000005" type="curve"/>
    </contour>
  </outline>
</glyph>
<glyph name="six" format="2">
  <advance width="461.43999999999994"/>
  <unicode hex="0036"/>
  <note>
14
</note>
  <outline>
    <contour>
      <point x="206.98000000000002" y="-10.0" type="curve" smooth="yes"/>
      <point x="346.92" y="-10.0"/>
      <point x="430.45000000000005" y="119.32999999999998"/>
      <point x="430.45000000000005" y="307.34" type="curve" smooth="yes"/>
      <point x="430.45000000000005" y="411.59000000000003"/>
      <point x="379.20000000000005" y="454.74"/>
      <point x="310.17" y="454.74" type="curve" smooth="yes"/>
      <point x="264.08" y="454.74"/>
      <point x="227.18999999999997" y="440.06"/>
      <point x="190.76" y="403.86" type="curve"/>
      <point x="178.29999999999998" y="282.83" type="line"/>
      <point x="197.07999999999998" y="310.12"/>
      <point x="217.55999999999997" y="325.1"/>
      <point x="239.28" y="325.1" type="curve" smooth="yes"/>
      <point x="269.21999999999997" y="325.1"/>
      <point x="279.84" y="307.61999999999995"/>
      <point x="279.84" y="267.68" type="curve" smooth="yes"/>
      <point x="279.84" y="204.75"/>
      <point x="251.98000000000002" y="130.26"/>
      <point x="218.26999999999998" y="130.26" type="curve" smooth="yes"/>
      <point x="191.95999999999998" y="130.26"/>
      <point x="179.18" y="146.75"/>
      <point x="179.18" y="180.85" type="curve" smooth="yes"/>
      <point x="179.18" y="251.41000000000003"/>
      <point x="194.26999999999995" y="328.42"/>
      <point x="222.35" y="433.69" type="curve" smooth="yes"/>
      <point x="244.69" y="516.81"/>
      <point x="281.94" y="561.5699999999999"/>
      <point x="351.90999999999997" y="561.5699999999999" type="curve" smooth="yes"/>
      <point x="381.46000000000004" y="561.5699999999999"/>
      <point x="404.37" y="551.03"/>
      <point x="425.71" y="538.58" type="curve"/>
      <point x="486.79999999999995" y="671.4000000000001" type="line"/>
      <point x="465.4" y="688.53"/>
      <point x="411.20000000000005" y="710.0"/>
      <point x="348.58000000000004" y="710.0" type="curve" smooth="yes"/>
      <point x="133.86999999999998" y="710.0"/>
      <point x="30.529999999999994" y="472.87"/>
      <point x="30.529999999999994" y="198.42" type="curve" smooth="yes"/>
      <point x="30.529999999999994" y="49.81"/>
      <point x="93.03" y="-10.0"/>
    </contour>
  </outline>
</glyph>
<glyph name="seven" format="2">
  <advance width="461.356"/>
  <unicode hex="0037"/>
  <note>
9
</note>
  <outline>
    <contour>
      <point x="66.31800000000001" y="0.0" type="curve"/>
      <point x="228.822" y="0.0" type="line"/>
      <point x="250.546" y="122.75800000000001"/>
      <point x="279.972" y="206.25"/>
      <point x="360.826" y="370.306" type="curve" smooth="yes"/>
      <point x="466.574" y="583.5699999999999" type="line"/>
      <point x="484.896" y="700.0" type="line"/>
      <point x="115.274" y="700.0" type="line"/>
      <point x="91.046" y="548.2500000000001" type="line"/>
      <point x="294.662" y="548.2500000000001" type="line"/>
      <point x="200.60000000000002" y="377.698" type="line" smooth="yes"/>
      <point x="125.648" y="241.822"/>
      <point x="88.23" y="134.67"/>
    </contour>
  </outline>
</glyph>
<glyph name="eight" format="2">
  <advance width="472.59999999999997"/>
  <unicode hex="0038"/>
  <outline>
    <contour>
      <point x="211.57" y="-10.0" type="curve" smooth="yes"/>
      <point x="341.07" y="-10.0"/>
      <point x="431.98" y="54.92999999999999"/>
      <point x="431.98" y="207.99" type="curve" smooth="yes"/>
      <point x="431.98" y="404.78000000000003"/>
      <point x="218.66" y="407.66"/>
      <point x="218.66" y="519.94" type="curve" smooth="yes"/>
      <point x="218.66" y="553.79"/>
      <point x="246.35000000000002" y="571.18"/>
      <point x="282.25" y="571.18" type="curve" smooth="yes"/>
      <point x="318.1" y="571.18"/>
      <point x="337.23" y="551.4"/>
      <point x="337.23" y="516.51" type="curve" smooth="yes"/>
      <point x="337.23" y="470.03000000000003"/>
      <point x="302.73999999999995" y="442.05"/>
      <point x="277.58" y="420.86" type="curve"/>
      <point x="340.73" y="356.45000000000005" type="line"/>
      <point x="408.69" y="398.56"/>
      <point x="471.57" y="462.44"/>
      <point x="471.57" y="555.58" type="curve" smooth="yes"/>
      <point x="471.57" y="638.94"/>
      <point x="422.45000000000005" y="710.0"/>
      <point x="289.46" y="710.0" type="curve" smooth="yes"/>
      <point x="150.65" y="710.0"/>
      <point x="77.3" y="630.1300000000001"/>
      <point x="77.3" y="510.14" type="curve" smooth="yes"/>
      <point x="77.3" y="307.92"/>
      <point x="288.04" y="312.74"/>
      <point x="288.04" y="192.46999999999997" type="curve" smooth="yes"/>
      <point x="288.04" y="141.70000000000002"/>
      <point x="258.34999999999997" y="122.8"/>
      <point x="218.43" y="122.8" type="curve" smooth="yes"/>
      <point x="177.67000000000002" y="122.8"/>
      <point x="154.79" y="145.85"/>
      <point x="154.79" y="179.92" type="curve" smooth="yes"/>
      <point x="154.79" y="241.82"/>
      <point x="191.67999999999998" y="273.34"/>
      <point x="224.97" y="288.91" type="curve"/>
      <point x="158.10000000000002" y="365.77" type="line"/>
      <point x="70.6" y="341.39"/>
      <point x="9.31" y="253.64000000000001"/>
      <point x="9.31" y="160.95000000000002" type="curve" smooth="yes"/>
      <point x="9.31" y="63.839999999999996"/>
      <point x="64.76" y="-10.0"/>
    </contour>
  </outline>
</glyph>
<glyph name="nine" format="2">
  <advance width="461.43999999999994"/>
  <unicode hex="0039"/>
  <outline>
    <contour>
      <point x="280.90000000000003" y="710.0" type="curve" smooth="yes"/>
      <point x="141.67999999999998" y="710.0"/>
      <point x="57.22" y="581.0299999999999"/>
      <point x="57.22" y="395.36" type="curve" smooth="yes"/>
      <point x="57.22" y="287.86999999999995"/>
      <point x="109.64" y="245.47000000000003"/>
      <point x="178.46000000000004" y="245.47000000000003" type="curve" smooth="yes"/>
      <point x="224.76000000000002" y="245.47000000000003"/>
      <point x="260.69" y="259.31"/>
      <point x="296.91" y="298.24" type="curve"/>
      <point x="309.36999999999995" y="417.38" type="line"/>
      <point x="290.80000000000007" y="390.09"/>
      <point x="270.11" y="375.11"/>
      <point x="248.39000000000001" y="375.11" type="curve" smooth="yes"/>
      <point x="218.66000000000003" y="375.11"/>
      <point x="208.04000000000002" y="392.38000000000005"/>
      <point x="208.04000000000002" y="432.32" type="curve" smooth="yes"/>
      <point x="208.04000000000002" y="495.46"/>
      <point x="235.9" y="569.7399999999999"/>
      <point x="268.86" y="569.7399999999999" type="curve" smooth="yes"/>
      <point x="293.88" y="569.7399999999999"/>
      <point x="307.95000000000005" y="552.71"/>
      <point x="307.95000000000005" y="520.44" type="curve" smooth="yes"/>
      <point x="307.95000000000005" y="460.95000000000005"/>
      <point x="294.54" y="371.22"/>
      <point x="266.25" y="265.74" type="curve" smooth="yes"/>
      <point x="244.30000000000004" y="182.44"/>
      <point x="210.32" y="137.32"/>
      <point x="138.97" y="137.32" type="curve" smooth="yes"/>
      <point x="109.63" y="137.32"/>
      <point x="83.51" y="148.97"/>
      <point x="61.96" y="162.68" type="curve"/>
      <point x="0.8700000000000001" y="29.650000000000002" type="line"/>
      <point x="23.23" y="11.47"/>
      <point x="80.42999999999999" y="-10.0"/>
      <point x="146.17" y="-10.0" type="curve" smooth="yes"/>
      <point x="355.42" y="-10.0"/>
      <point x="456.59999999999997" y="227.13"/>
      <point x="456.59999999999997" y="501.78999999999996" type="curve" smooth="yes"/>
      <point x="456.59999999999997" y="650.4"/>
      <point x="394.64000000000004" y="710.0"/>
    </contour>
  </outline>
</glyph>
<glyph name="less" format="2">
  <advance width="409.628"/>
  <unicode hex="003C"/>
  <outline>
    <contour>
      <point x="354.354" y="97.578" type="line"/>
      <point x="374.726" y="228.87" type="line"/>
      <point x="169.45000000000002" y="309.296" type="line"/>
      <point x="400.764" y="390.536" type="line"/>
      <point x="421.136" y="521.492" type="line"/>
      <point x="44.104000000000006" y="382.322" type="line"/>
      <point x="21.198" y="237.806" type="line"/>
    </contour>
  </outline>
</glyph>
<glyph name="equal" format="2">
  <advance width="381.062"/>
  <unicode hex="003D"/>
  <outline>
    <contour>
      <point x="335.19" y="270.444" type="line"/>
      <point x="45.31" y="270.444" type="line"/>
      <point x="24.163999999999998" y="126.202" type="line"/>
      <point x="314.04400000000004" y="126.202" type="line"/>
    </contour>
    <contour>
      <point x="367.19" y="493.67" type="line"/>
      <point x="77.998" y="493.67" type="line"/>
      <point x="56.164" y="349.428" type="line"/>
      <point x="346.04400000000004" y="349.428" type="line"/>
    </contour>
  </outline>
</glyph>
<glyph name="greater" format="2">
  <advance width="409.628"/>
  <unicode hex="003E"/>
  <outline>
    <contour>
      <point x="376.14000000000004" y="237.42800000000003" type="line"/>
      <point x="398.87399999999997" y="380.654" type="line"/>
      <point x="66.538" y="520.38" type="line"/>
      <point x="45.99400000000001" y="390.55" type="line"/>
      <point x="252.256" y="309.42199999999997" type="line"/>
      <point x="20.253999999999998" y="229.01000000000002" type="line"/>
      <point x="-0.32999999999999974" y="97.32600000000001" type="line"/>
    </contour>
  </outline>
</glyph>
<glyph name="question" format="2">
  <advance width="370.39000000000004"/>
  <unicode hex="003F"/>
  <outline>
    <contour>
      <point x="94.93" y="259.79799999999994" type="line"/>
      <point x="227.772" y="259.79799999999994" type="line"/>
      <point x="239.586" y="330.696" type="line"/>
      <point x="336.028" y="377.47200000000004"/>
      <point x="404.71799999999996" y="470.68199999999996"/>
      <point x="404.71799999999996" y="582.868" type="curve" smooth="yes"/>
      <point x="404.71799999999996" y="693.27"/>
      <point x="344.836" y="750.0"/>
      <point x="246.53000000000003" y="750.0" type="curve" smooth="yes"/>
      <point x="183.77399999999997" y="750.0"/>
      <point x="119.06000000000002" y="729.662"/>
      <point x="73.704" y="692.7099999999999" type="curve"/>
      <point x="104.52" y="547.468" type="line"/>
      <point x="134.534" y="569.372"/>
      <point x="159.32399999999998" y="581.9580000000001"/>
      <point x="183.86200000000002" y="581.9580000000001" type="curve" smooth="yes"/>
      <point x="213.686" y="581.9580000000001"/>
      <point x="230.13" y="565.7160000000001"/>
      <point x="230.13" y="536.1960000000001" type="curve" smooth="yes"/>
      <point x="230.13" y="476.064"/>
      <point x="179.73400000000004" y="435.168"/>
      <point x="115.51599999999999" y="403.918" type="curve"/>
    </contour>
    <contour>
      <point x="50.086000000000006" y="58.602000000000004" type="curve" smooth="yes"/>
      <point x="50.1" y="13.456"/>
      <point x="70.438" y="-8.6"/>
      <point x="118.13199999999999" y="-8.6" type="curve" smooth="yes"/>
      <point x="194.98799999999997" y="-8.6"/>
      <point x="220.77599999999998" y="65.07"/>
      <point x="220.734" y="128.206" type="curve" smooth="yes"/>
      <point x="220.72000000000003" y="174.89999999999998"/>
      <point x="200.76399999999998" y="197.60399999999998"/>
      <point x="153.42200000000003" y="197.60399999999998" type="curve" smooth="yes"/>
      <point x="75.754" y="197.60399999999998"/>
      <point x="50.044000000000004" y="122.236"/>
    </contour>
  </outline>
</glyph>
<glyph name="at" format="2">
  <advance width="774.29"/>
  <unicode hex="0040"/>
  <outline>
    <contour>
      <point x="336.63" y="-123.32" type="curve" smooth="yes"/>
      <point x="384.42999999999995" y="-123.32"/>
      <point x="465.21999999999997" y="-106.09"/>
      <point x="511.02000000000004" y="-81.64" type="curve"/>
      <point x="494.86999999999995" y="-21.76" type="line"/>
      <point x="442.81" y="-41.36"/>
      <point x="388.32" y="-52.67999999999999"/>
      <point x="338.02" y="-52.67999999999999" type="curve" smooth="yes"/>
      <point x="202.04" y="-52.67999999999999"/>
      <point x="97.71" y="17.979999999999997"/>
      <point x="97.71" y="206.67999999999998" type="curve" smooth="yes"/>
      <point x="97.71" y="401.12000000000006"/>
      <point x="220.98" y="644.06"/>
      <point x="447.11000000000007" y="644.06" type="curve" smooth="yes"/>
      <point x="606.75" y="644.06"/>
      <point x="687.52" y="560.16"/>
      <point x="687.52" y="393.16999999999996" type="curve" smooth="yes"/>
      <point x="687.52" y="311.14"/>
      <point x="667.6500000000001" y="146.04999999999998"/>
      <point x="580.92" y="146.04999999999998" type="curve" smooth="yes"/>
      <point x="532.7099999999999" y="146.04999999999998"/>
      <point x="528.77" y="183.94"/>
      <point x="542.04" y="236.86" type="curve" smooth="yes"/>
      <point x="614.3599999999999" y="520.7299999999999" type="line"/>
      <point x="564.57" y="545.45"/>
      <point x="512.04" y="560.81"/>
      <point x="446.68" y="560.81" type="curve" smooth="yes"/>
      <point x="262.79" y="560.81"/>
      <point x="181.10000000000002" y="324.4"/>
      <point x="181.10000000000002" y="176.25" type="curve" smooth="yes"/>
      <point x="181.10000000000002" y="89.91000000000001"/>
      <point x="221.06" y="46.77"/>
      <point x="286.28000000000003" y="46.77" type="curve" smooth="yes"/>
      <point x="339.52" y="46.77"/>
      <point x="383.19" y="84.17999999999999"/>
      <point x="420.59999999999997" y="128.02" type="curve"/>
      <point x="439.24" y="72.02999999999999"/>
      <point x="478.63" y="43.01"/>
      <point x="547.7" y="43.01" type="curve" smooth="yes"/>
      <point x="701.12" y="43.01"/>
      <point x="761.95" y="241.30000000000004"/>
      <point x="761.95" y="406.09000000000003" type="curve" smooth="yes"/>
      <point x="761.95" y="603.6899999999999"/>
      <point x="633.8100000000001" y="713.44"/>
      <point x="462.54999999999995" y="713.44" type="curve" smooth="yes"/>
      <point x="174.14999999999998" y="713.44"/>
      <point x="21.74" y="448.40000000000003"/>
      <point x="21.74" y="189.67999999999998" type="curve" smooth="yes"/>
      <point x="21.74" y="-7.980000000000001"/>
      <point x="137.54000000000002" y="-123.32"/>
    </contour>
    <contour>
      <point x="361.05000000000007" y="190.84000000000003" type="curve" smooth="yes"/>
      <point x="342.67" y="190.84000000000003"/>
      <point x="332.21000000000004" y="202.49"/>
      <point x="332.21000000000004" y="222.35000000000002" type="curve" smooth="yes"/>
      <point x="332.21000000000004" y="271.69"/>
      <point x="386.18" y="446.38000000000005"/>
      <point x="434.96999999999997" y="446.38000000000005" type="curve" smooth="yes"/>
      <point x="446.13" y="446.38000000000005"/>
      <point x="454.16999999999996" y="444.05999999999995"/>
      <point x="463.71999999999997" y="439.39000000000004" type="curve"/>
      <point x="408.49" y="220.78" type="line" smooth="yes"/>
      <point x="397.24" y="203.41"/>
      <point x="377.92" y="190.84000000000003"/>
    </contour>
  </outline>
</glyph>
<glyph name="A" format="2">
  <advance width="458.223"/>
  <unicode hex="0041"/>
  <anchor x="185.28099999999998" y="0.0" name="bottom"/>
  <anchor x="409.70099999999996" y="0.0" name="ogonek"/>
  <anchor x="290.37199999999996" y="700.0" name="top"/>
  <outline>
    <contour>
      <point x="-39.47800000000001" y="0.0" type="line"/>
      <point x="122.24300000000001" y="0.0" type="line"/>
      <point x="154.66" y="113.823" type="line"/>
      <point x="250.52099999999996" y="113.823" type="line"/>
      <point x="246.86999999999998" y="0.0" type="line"/>
      <point x="409.70099999999996" y="0.0" type="line"/>
      <point x="406.36400000000003" y="702.26" type="line"/>
      <point x="176.73" y="702.26" type="line"/>
    </contour>
    <contour>
      <point x="192.872" y="256.698" type="line"/>
      <point x="273.98600000000005" y="580.238" type="line"/>
      <point x="259.017" y="256.698" type="line"/>
    </contour>
  </outline>
</glyph>
<glyph name="B" format="2">
  <advance width="440.63"/>
  <unicode hex="0042"/>
  <outline>
    <contour>
      <point x="-11.133999999999997" y="3.6139999999999985" type="line"/>
      <point x="63.492000000000004" y="-6.233999999999999"/>
      <point x="103.91399999999999" y="-10.0"/>
      <point x="174.25600000000003" y="-10.0" type="curve" smooth="yes"/>
      <point x="342.614" y="-10.0"/>
      <point x="423.08200000000005" y="112.17000000000002"/>
      <point x="423.08200000000005" y="254.468" type="curve" smooth="yes"/>
      <point x="423.08200000000005" y="316.14799999999997"/>
      <point x="401.38800000000003" y="364.04999999999995"/>
      <point x="361.62" y="384.032" type="curve"/>
      <point x="423.198" y="422.604"/>
      <point x="454.192" y="491.25000000000006"/>
      <point x="454.192" y="563.708" type="curve" smooth="yes"/>
      <point x="454.192" y="652.7539999999999"/>
      <point x="401.356" y="710.0"/>
      <point x="278.15000000000003" y="710.0" type="curve" smooth="yes"/>
      <point x="244.09" y="710.0"/>
      <point x="181.90200000000002" y="707.026"/>
      <point x="97.914" y="696.134" type="curve"/>
    </contour>
    <contour>
      <point x="207.40399999999997" y="416.656" type="line"/>
      <point x="230.81400000000002" y="567.102" type="line"/>
      <point x="244.73" y="569.3839999999999"/>
      <point x="252.70199999999997" y="571.27"/>
      <point x="266.02599999999995" y="571.27" type="curve" smooth="yes"/>
      <point x="294.222" y="571.27"/>
      <point x="306.43600000000004" y="558.6999999999999"/>
      <point x="306.43600000000004" y="521.356" type="curve" smooth="yes"/>
      <point x="306.43600000000004" y="455.926"/>
      <point x="276.992" y="416.656"/>
      <point x="243.20999999999998" y="416.656" type="curve" smooth="yes"/>
    </contour>
    <contour>
      <point x="186.588" y="285.32399999999996" type="line"/>
      <point x="227.486" y="285.32399999999996" type="line" smooth="yes"/>
      <point x="254.716" y="285.32399999999996"/>
      <point x="269.32" y="269.07000000000005"/>
      <point x="269.32" y="235.744" type="curve" smooth="yes"/>
      <point x="269.32" y="167.138"/>
      <point x="241.896" y="128.124"/>
      <point x="194.582" y="128.124" type="curve" smooth="yes"/>
      <point x="186.62999999999997" y="128.124"/>
      <point x="174.99999999999997" y="128.53400000000002"/>
      <point x="161.968" y="131.364" type="curve"/>
    </contour>
  </outline>
</glyph>
<glyph name="C" format="2">
  <advance width="389.03"/>
  <unicode hex="0043"/>
  <anchor x="195.555" y="0.0" name="bottom"/>
  <anchor x="310.05500000000006" y="700.0" name="top"/>
  <outline>
    <contour>
      <point x="231.84999999999997" y="-10.0" type="curve" smooth="yes"/>
      <point x="272.835" y="-10.0"/>
      <point x="307.285" y="-5.93"/>
      <point x="342.1550000000001" y="5.87" type="curve"/>
      <point x="336.33000000000004" y="143.15999999999997" type="line"/>
      <point x="314.075" y="137.95"/>
      <point x="289.365" y="133.805"/>
      <point x="267.96500000000003" y="133.805" type="curve" smooth="yes"/>
      <point x="208.65999999999997" y="133.805"/>
      <point x="176.90999999999997" y="157.10000000000002"/>
      <point x="176.90999999999997" y="245.32000000000005" type="curve" smooth="yes"/>
      <point x="176.90999999999997" y="416.47499999999997"/>
      <point x="229.03" y="566.195"/>
      <point x="323.0300000000001" y="566.195" type="curve" smooth="yes"/>
      <point x="349.13500000000005" y="566.195"/>
      <point x="371.84499999999997" y="561.155"/>
      <point x="396.61499999999995" y="551.975" type="curve"/>
      <point x="442.89000000000004" y="682.275" type="line"/>
      <point x="407.06500000000005" y="701.45"/>
      <point x="359.82000000000005" y="710.0"/>
      <point x="312.95" y="710.0" type="curve" smooth="yes"/>
      <point x="131.93000000000004" y="710.0"/>
      <point x="19.560000000000002" y="513.5799999999999"/>
      <point x="19.560000000000002" y="218.125" type="curve" smooth="yes"/>
      <point x="19.560000000000002" y="62.225"/>
      <point x="95.41" y="-10.0"/>
    </contour>
  </outline>
</glyph>
<glyph name="D" format="2">
  <advance width="463.04499999999996"/>
  <unicode hex="0044"/>
  <anchor x="182.16500000000002" y="0.0" name="bottom"/>
  <anchor x="242.85195499999998" y="350.0" name="center"/>
  <anchor x="273.785" y="700.0" name="top"/>
  <outline>
    <contour>
      <point x="167.24499999999998" y="-10.0" type="curve" smooth="yes"/>
      <point x="366.01000000000005" y="-10.0"/>
      <point x="464.02500000000003" y="186.48999999999998"/>
      <point x="464.02500000000003" y="464.235" type="curve" smooth="yes"/>
      <point x="464.02500000000003" y="637.605"/>
      <point x="392.32000000000005" y="710.0"/>
      <point x="250.04000000000002" y="710.0" type="curve" smooth="yes"/>
      <point x="201.07" y="710.0"/>
      <point x="155.88500000000002" y="707.2099999999999"/>
      <point x="97.965" y="699.3349999999999" type="curve"/>
      <point x="-12.745" y="3.1349999999999985" type="line"/>
      <point x="41.3" y="-5.490000000000001"/>
      <point x="99.855" y="-10.0"/>
    </contour>
    <contour>
      <point x="189.24500000000003" y="124.53" type="curve" smooth="yes"/>
      <point x="176.67500000000004" y="124.53"/>
      <point x="169.675" y="125.78"/>
      <point x="160.36500000000004" y="126.95499999999998" type="curve"/>
      <point x="230.24" y="565.485" type="line"/>
      <point x="238.38500000000002" y="566.555"/>
      <point x="246.915" y="567.52"/>
      <point x="257.81499999999994" y="567.52" type="curve" smooth="yes"/>
      <point x="294.015" y="567.52"/>
      <point x="309.36" y="538.4500000000002"/>
      <point x="309.36" y="464.20500000000004" type="curve" smooth="yes"/>
      <point x="309.36" y="312.455"/>
      <point x="254.40499999999997" y="124.53"/>
    </contour>
  </outline>
</glyph>
<glyph name="E" format="2">
  <advance width="383.469"/>
  <unicode hex="0045"/>
  <anchor x="157.46400000000003" y="0.0" name="bottom"/>
  <anchor x="325.942" y="0.0" name="ogonek"/>
  <anchor x="264.47400000000005" y="700.0" name="top"/>
  <anchor x="87.39822500000001" y="700.0" name="topleft"/>
  <outline>
    <contour>
      <point x="-12.712" y="0.0" type="line"/>
      <point x="325.942" y="0.0" type="line"/>
      <point x="348.72" y="142.939" type="line"/>
      <point x="162.58" y="142.939" type="line"/>
      <point x="184.51700000000002" y="283.70399999999995" type="line"/>
      <point x="338.06500000000005" y="283.70399999999995" type="line"/>
      <point x="360.625" y="417.313" type="line"/>
      <point x="206.25400000000002" y="417.313" type="line"/>
      <point x="227.666" y="553.2959999999999" type="line"/>
      <point x="402.87800000000004" y="553.2959999999999" type="line"/>
      <point x="427.267" y="700.0" type="line"/>
      <point x="97.718" y="700.0" type="line"/>
    </contour>
  </outline>
</glyph>
<glyph name="F" format="2">
  <advance width="370.238"/>
  <unicode hex="0046"/>
  <outline>
    <contour>
      <point x="-13.43" y="0.0" type="line"/>
      <point x="140.278" y="0.0" type="line"/>
      <point x="177.532" y="232.08400000000003" type="line"/>
      <point x="322.088" y="232.08400000000003" type="line"/>
      <point x="345.64200000000005" y="379.26" type="line"/>
      <point x="200.33999999999997" y="379.26" type="line"/>
      <point x="227.86800000000002" y="552.1039999999999" type="line"/>
      <point x="400.40999999999997" y="552.1039999999999" type="line"/>
      <point x="424.93800000000005" y="700.0" type="line"/>
      <point x="97.788" y="700.0" type="line"/>
    </contour>
  </outline>
</glyph>
<glyph name="G" format="2">
  <advance width="434.52000000000004"/>
  <unicode hex="0047"/>
  <anchor x="221.09" y="0.0" name="bottom"/>
  <anchor x="315.354" y="700.0" name="top"/>
  <outline>
    <contour>
      <point x="223.804" y="-10.0" type="curve" smooth="yes"/>
      <point x="278.088" y="-10.0"/>
      <point x="336.61600000000004" y="1.5339999999999996"/>
      <point x="374.92400000000004" y="28.558" type="curve"/>
      <point x="434.84800000000007" y="405.058" type="line"/>
      <point x="246.166" y="405.058" type="line"/>
      <point x="226.138" y="277.44" type="line"/>
      <point x="278.94599999999997" y="277.44" type="line"/>
      <point x="255.49800000000002" y="130.82000000000002" type="line"/>
      <point x="249.64" y="127.684"/>
      <point x="236.278" y="125.702"/>
      <point x="224.324" y="125.702" type="curve" smooth="yes"/>
      <point x="187.8" y="125.702"/>
      <point x="168.672" y="147.502"/>
      <point x="168.672" y="227.39600000000002" type="curve" smooth="yes"/>
      <point x="168.672" y="395.086"/>
      <point x="220.63799999999998" y="565.87"/>
      <point x="319.90799999999996" y="565.87" type="curve" smooth="yes"/>
      <point x="358.74999999999994" y="565.87"/>
      <point x="389.706" y="554.904"/>
      <point x="414.70599999999996" y="546.7199999999999" type="curve"/>
      <point x="461.854" y="682.096" type="line"/>
      <point x="417.7339999999999" y="702.0799999999999"/>
      <point x="367.09400000000005" y="710.0"/>
      <point x="315.182" y="710.0" type="curve" smooth="yes"/>
      <point x="97.346" y="710.0"/>
      <point x="18.178" y="436.192"/>
      <point x="18.178" y="218.17000000000002" type="curve" smooth="yes"/>
      <point x="18.178" y="66.98"/>
      <point x="95.38799999999999" y="-10.0"/>
    </contour>
  </outline>
</glyph>
<glyph name="H" format="2">
  <advance width="459.792"/>
  <unicode hex="0048"/>
  <anchor x="186.35405599999999" y="0.0" name="bottom"/>
  <anchor x="241.860246" y="350.0" name="center"/>
  <anchor x="297.239562" y="700.0" name="top"/>
  <anchor x="87.021562" y="700.0" name="topleft"/>
  <outline>
    <contour>
      <point x="-13.443999999999999" y="0.0" type="line"/>
      <point x="140.53" y="0.0" type="line"/>
      <point x="179.306" y="247.312" type="line"/>
      <point x="270.892" y="247.312" type="line"/>
      <point x="232.71800000000002" y="0.0" type="line"/>
      <point x="385.018" y="0.0" type="line"/>
      <point x="496.36199999999997" y="700.0" type="line"/>
      <point x="343.374" y="700.0" type="line"/>
      <point x="293.844" y="389.808" type="line"/>
      <point x="202.13199999999998" y="389.808" type="line"/>
      <point x="251.74800000000002" y="700.0" type="line"/>
      <point x="97.774" y="700.0" type="line"/>
    </contour>
  </outline>
</glyph>
<glyph name="I" format="2">
  <advance width="215.178"/>
  <unicode hex="0049"/>
  <anchor x="63.94587200000001" y="0.0" name="bottom"/>
  <anchor x="142.747672" y="7.739999999999999" name="ogonek"/>
  <anchor x="174.84264399999998" y="700.0" name="top"/>
  <anchor x="87.410262" y="700.0" name="topleft"/>
  <outline>
    <contour>
      <point x="-13.443999999999999" y="0.0" type="line"/>
      <point x="140.404" y="0.0" type="line"/>
      <point x="251.74800000000002" y="700.0" type="line"/>
      <point x="97.774" y="700.0" type="line"/>
    </contour>
  </outline>
</glyph>
<glyph name="J" format="2">
  <advance width="331.188"/>
  <unicode hex="004A"/>
  <anchor x="115.877656" y="0.0" name="bottom"/>
  <anchor x="238.752" y="700.0" name="top"/>
  <outline>
    <contour>
      <point x="-36.718" y="22.04" type="line"/>
      <point x="-1.7600000000000007" y="4.159999999999999"/>
      <point x="41.75800000000001" y="-10.0"/>
      <point x="99.674" y="-10.0" type="curve" smooth="yes"/>
      <point x="203.00200000000004" y="-10.0"/>
      <point x="268.242" y="60.492"/>
      <point x="290.188" y="194.70399999999998" type="curve" smooth="yes"/>
      <point x="370.652" y="700.0" type="line"/>
      <point x="106.512" y="700.0" type="line"/>
      <point x="84.16199999999999" y="561.202" type="line"/>
      <point x="194.454" y="561.202" type="line"/>
      <point x="145.40200000000002" y="253.666" type="line" smooth="yes"/>
      <point x="131.556" y="167.346"/>
      <point x="110.53" y="148.14800000000002"/>
      <point x="69.696" y="148.14800000000002" type="curve" smooth="yes"/>
      <point x="53.03" y="148.14800000000002"/>
      <point x="28.432000000000002" y="154.192"/>
      <point x="6.293999999999999" y="161.49400000000003" type="curve"/>
    </contour>
  </outline>
</glyph>
<glyph name="K" format="2">
  <advance width="464.122"/>
  <unicode hex="004B"/>
  <anchor x="207.65" y="0.0" name="bottom"/>
  <anchor x="299.582" y="700.0" name="top"/>
  <outline>
    <contour>
      <point x="-13.706" y="0.0" type="line"/>
      <point x="140.50400000000002" y="0.0" type="line"/>
      <point x="251.59800000000004" y="700.0" type="line"/>
      <point x="97.96000000000001" y="700.0" type="line"/>
    </contour>
    <contour>
      <point x="358.692" y="-9.9" type="curve" smooth="yes"/>
      <point x="376.514" y="-9.9"/>
      <point x="404.712" y="-2.786"/>
      <point x="413.17400000000004" y="1.0359999999999998" type="curve"/>
      <point x="430.94999999999993" y="186.50799999999998" type="line"/>
      <point x="426.464" y="186.58599999999998"/>
      <point x="421.976" y="186.234"/>
      <point x="417.46" y="186.234" type="curve" smooth="yes"/>
      <point x="393.276" y="186.234"/>
      <point x="364.954" y="199.31199999999998"/>
      <point x="334.58000000000004" y="249.01199999999997" type="curve" smooth="yes"/>
      <point x="189.074" y="485.778" type="line"/>
      <point x="157.494" y="261.338" type="line"/>
      <point x="258.72599999999994" y="68.41600000000001" type="line" smooth="yes"/>
      <point x="285.64799999999997" y="15.472000000000001"/>
      <point x="312.89599999999996" y="-9.9"/>
    </contour>
    <contour>
      <point x="278.44599999999997" y="274.17199999999997" type="line"/>
      <point x="388.914" y="381.256"/>
      <point x="474.83799999999997" y="508.29800000000006"/>
      <point x="513.028" y="654.5479999999999" type="curve"/>
      <point x="381.23199999999997" y="703.048" type="line"/>
      <point x="338.424" y="577.7459999999999"/>
      <point x="277.412" y="465.598"/>
      <point x="212.07199999999997" y="401.192" type="curve"/>
    </contour>
  </outline>
</glyph>
<glyph name="L" format="2">
  <advance width="360.704"/>
  <unicode hex="004C"/>
  <anchor x="155.78400000000002" y="0.0" name="bottom"/>
  <anchor x="190.80424599999998" y="350.0" name="center"/>
  <anchor x="174.628" y="700.0" name="top"/>
  <anchor x="298.82599999999996" y="700.0" name="topright"/>
  <outline>
    <contour>
      <point x="-13.57" y="0.0" type="line"/>
      <point x="304.874" y="0.0" type="line"/>
      <point x="328.084" y="144.302" type="line"/>
      <point x="163.316" y="144.302" type="line"/>
      <point x="251.622" y="700.0" type="line"/>
      <point x="97.774" y="700.0" type="line"/>
    </contour>
  </outline>
</glyph>
<glyph name="M" format="2">
  <advance width="545.946"/>
  <unicode hex="004D"/>
  <outline>
    <contour>
      <point x="-13.594" y="0.0" type="line"/>
      <point x="126.314" y="0.0" type="line"/>
      <point x="191.06" y="417.874" type="line"/>
      <point x="215.024" y="147.26399999999998" type="line"/>
      <point x="285.24" y="147.26399999999998" type="line"/>
      <point x="397.212" y="414.47200000000004" type="line"/>
      <point x="330.91200000000003" y="0.0" type="line"/>
      <point x="471.172" y="0.0" type="line"/>
      <point x="582.5160000000001" y="700.0" type="line"/>
      <point x="413.38800000000003" y="700.0" type="line"/>
      <point x="286.73" y="397.34200000000004" type="line"/>
      <point x="254.964" y="700.0" type="line"/>
      <point x="97.774" y="700.0" type="line"/>
    </contour>
  </outline>
</glyph>
<glyph name="N" format="2">
  <advance width="466.2"/>
  <unicode hex="004E"/>
  <anchor x="195.15" y="0.0" name="bottom"/>
  <anchor x="300.69" y="700.0" name="top"/>
  <outline>
    <contour>
      <point x="-13.43" y="0.0" type="line"/>
      <point x="124.07" y="0.0" type="line"/>
      <point x="180.595" y="349.33" type="line"/>
      <point x="240.05" y="-0.14" type="line"/>
      <point x="391.34000000000003" y="-0.14" type="line"/>
      <point x="502.77000000000004" y="700.0" type="line"/>
      <point x="365.09" y="700.0" type="line"/>
      <point x="303.295" y="323.5" type="line"/>
      <point x="249.465" y="700.14" type="line"/>
      <point x="97.895" y="700.14" type="line"/>
    </contour>
  </outline>
</glyph>
<glyph name="O" format="2">
  <advance width="468.82000000000005"/>
  <unicode hex="004F"/>
  <note>
8
</note>
  <anchor x="190.92" y="0.0" name="bottom"/>
  <anchor x="245.98999999999998" y="350.0" name="center"/>
  <anchor x="265.28999999999996" y="2.2900000000000005" name="ogonek"/>
  <anchor x="300.01" y="700.0" name="top"/>
  <anchor x="87.52" y="700.0" name="topleft"/>
  <anchor x="408.3" y="698.26" name="topright"/>
  <outline>
    <contour>
      <point x="205.63" y="-9.069999999999999" type="curve" smooth="yes"/>
      <point x="402.15" y="-9.069999999999999"/>
      <point x="471.34" y="269.37"/>
      <point x="473.32" y="489.82000000000005" type="curve" smooth="yes"/>
      <point x="474.76" y="637.7199999999999"/>
      <point x="418.89000000000004" y="709.0699999999999"/>
      <point x="287.19000000000005" y="709.0699999999999" type="curve" smooth="yes"/>
      <point x="90.66999999999999" y="709.0699999999999"/>
      <point x="21.48" y="430.63"/>
      <point x="19.5" y="210.18" type="curve" smooth="yes"/>
      <point x="18.060000000000002" y="62.28"/>
      <point x="73.93" y="-9.069999999999999"/>
    </contour>
    <contour>
      <point x="214.52" y="142.23" type="curve" smooth="yes"/>
      <point x="188.18" y="142.23"/>
      <point x="174.55" y="154.75000000000003"/>
      <point x="174.55" y="202.43" type="curve" smooth="yes"/>
      <point x="174.55" y="299.36"/>
      <point x="219.94000000000003" y="557.7700000000001"/>
      <point x="278.37" y="557.7700000000001" type="curve" smooth="yes"/>
      <point x="304.64" y="557.7700000000001"/>
      <point x="318.27000000000004" y="545.07"/>
      <point x="318.27000000000004" y="497.39" type="curve" smooth="yes"/>
      <point x="318.27000000000004" y="400.46"/>
      <point x="272.88000000000005" y="142.23"/>
    </contour>
  </outline>
</glyph>
<glyph name="P" format="2">
  <advance width="450.335"/>
  <unicode hex="0050"/>
  <outline>
    <contour>
      <point x="-12.785" y="0.0" type="line"/>
      <point x="140.805" y="0.0" type="line"/>
      <point x="169.21" y="176.54999999999998" type="line"/>
      <point x="198.39" y="172.935"/>
      <point x="206.11499999999998" y="172.9"/>
      <point x="231.73499999999999" y="172.9" type="curve" smooth="yes"/>
      <point x="377.55" y="172.9"/>
      <point x="470.845" y="315.925"/>
      <point x="470.88000000000005" y="520.61" type="curve" smooth="yes"/>
      <point x="470.88000000000005" y="649.395"/>
      <point x="415.65" y="710.0"/>
      <point x="285.65999999999997" y="710.0" type="curve" smooth="yes"/>
      <point x="242.875" y="710.0"/>
      <point x="170.285" y="707.14"/>
      <point x="98.645" y="701.995" type="curve"/>
    </contour>
    <contour>
      <point x="231.495" y="566.53" type="line"/>
      <point x="248.67999999999998" y="568.7049999999999"/>
      <point x="256.93" y="569.74"/>
      <point x="270.19" y="569.74" type="curve" smooth="yes"/>
      <point x="305.97" y="569.74"/>
      <point x="319.01" y="548.275"/>
      <point x="319.01" y="496.295" type="curve" smooth="yes"/>
      <point x="319.01" y="409.40000000000003"/>
      <point x="279.94" y="313.375"/>
      <point x="223.025" y="313.375" type="curve" smooth="yes"/>
      <point x="213.18" y="313.375"/>
      <point x="205.3" y="313.765"/>
      <point x="191.13000000000002" y="315.65999999999997" type="curve"/>
    </contour>
  </outline>
</glyph>
<glyph name="Q" format="2">
  <advance width="468.922"/>
  <unicode hex="0051"/>
  <note>
14
</note>
  <outline>
    <contour>
      <point x="327.772" y="-168.606" type="curve" smooth="yes"/>
      <point x="347.334" y="-168.606"/>
      <point x="367.42" y="-166.10600000000002"/>
      <point x="385.504" y="-160.60000000000002" type="curve"/>
      <point x="400.368" y="-25.866000000000014" type="line"/>
      <point x="390.0" y="-29.514"/>
      <point x="376.73" y="-31.653999999999996"/>
      <point x="362.582" y="-31.653999999999996" type="curve" smooth="yes"/>
      <point x="321.038" y="-31.653999999999996"/>
      <point x="292.064" y="-13.221999999999996"/>
      <point x="288.848" y="18.936" type="curve"/>
      <point x="163.492" y="15.085999999999999" type="line"/>
      <point x="164.61200000000002" y="-126.828"/>
      <point x="250.82200000000006" y="-168.606"/>
    </contour>
    <component base="O"/>
  </outline>
</glyph>
<glyph name="R" format="2">
  <advance width="462.02000000000004"/>
  <unicode hex="0052"/>
  <anchor x="204.15" y="0.0" name="bottom"/>
  <anchor x="268.21000000000004" y="700.0" name="top"/>
  <outline>
    <contour>
      <point x="-13.57" y="0.0" type="line"/>
      <point x="140.41000000000003" y="0.0" type="line"/>
      <point x="174.9" y="218.28" type="line"/>
      <point x="188.16" y="218.21"/>
      <point x="200.76999999999995" y="218.0"/>
      <point x="219.56" y="217.75" type="curve"/>
      <point x="227.14999999999998" y="232.60000000000002" type="line"/>
      <point x="371.22" y="232.67000000000002"/>
      <point x="472.23999999999995" y="342.65000000000003"/>
      <point x="472.23999999999995" y="514.9699999999999" type="curve" smooth="yes"/>
      <point x="472.23999999999995" y="639.5200000000001"/>
      <point x="404.53" y="710.0"/>
      <point x="274.47" y="710.0" type="curve" smooth="yes"/>
      <point x="215.04999999999998" y="710.0"/>
      <point x="161.64" y="705.74"/>
      <point x="98.07000000000001" y="699.77" type="curve"/>
    </contour>
    <contour>
      <point x="356.64" y="-10.0" type="curve" smooth="yes"/>
      <point x="368.55" y="-10.0"/>
      <point x="397.37" y="-5.709999999999999"/>
      <point x="407.78999999999996" y="0.019999999999999907" type="curve"/>
      <point x="425.42999999999995" y="161.89" type="line"/>
      <point x="421.72" y="161.43"/>
      <point x="417.60999999999996" y="161.43"/>
      <point x="414.21" y="161.43" type="curve" smooth="yes"/>
      <point x="376.84" y="161.42999999999998"/>
      <point x="345.82" y="191.79"/>
      <point x="324.78" y="286.81" type="curve"/>
      <point x="191.76000000000002" y="250.06" type="line"/>
      <point x="244.93" y="14.05"/>
      <point x="289.97999999999996" y="-10.0"/>
    </contour>
    <contour>
      <point x="227.48000000000002" y="344.66999999999996" type="curve" smooth="yes"/>
      <point x="215.62" y="344.66999999999996"/>
      <point x="205.01999999999998" y="345.67"/>
      <point x="195.05999999999997" y="347.17" type="curve"/>
      <point x="230.99" y="569.1800000000001" type="line"/>
      <point x="248.77999999999997" y="571.4599999999999"/>
      <point x="257.53999999999996" y="572.4599999999999"/>
      <point x="270.86" y="572.4599999999999" type="curve" smooth="yes"/>
      <point x="304.04999999999995" y="572.4599999999999"/>
      <point x="316.68" y="547.7600000000001"/>
      <point x="316.68" y="509.94000000000005" type="curve" smooth="yes"/>
      <point x="316.68" y="419.78"/>
      <point x="276.37" y="344.66999999999996"/>
    </contour>
  </outline>
</glyph>
<glyph name="S" format="2">
  <advance width="412.475"/>
  <unicode hex="0053"/>
  <anchor x="172.655" y="0.0" name="bottom"/>
  <anchor x="281.465" y="700.0" name="top"/>
  <outline>
    <contour>
      <point x="437.72" y="675.26" type="line"/>
      <point x="400.255" y="696.0799999999999"/>
      <point x="346.995" y="710.0"/>
      <point x="284.21000000000004" y="710.0" type="curve" smooth="yes"/>
      <point x="137.095" y="710.0"/>
      <point x="47.475" y="624.08"/>
      <point x="47.475" y="486.99" type="curve" smooth="yes"/>
      <point x="47.475" y="315.745"/>
      <point x="232.05499999999998" y="279.67"/>
      <point x="232.05499999999998" y="197.385" type="curve" smooth="yes"/>
      <point x="232.05499999999998" y="160.46"/>
      <point x="206.04999999999998" y="131.9"/>
      <point x="152.505" y="131.9" type="curve" smooth="yes"/>
      <point x="110.685" y="131.9"/>
      <point x="72.88999999999999" y="141.87500000000003"/>
      <point x="20.235" y="163.045" type="curve"/>
      <point x="-27.455000000000002" y="31.14" type="line"/>
      <point x="18.605" y="4.31"/>
      <point x="81.39" y="-10.0"/>
      <point x="154.645" y="-10.0" type="curve" smooth="yes"/>
      <point x="300.08500000000004" y="-10.0"/>
      <point x="389.305" y="79.19500000000001"/>
      <point x="389.305" y="205.60999999999999" type="curve" smooth="yes"/>
      <point x="389.375" y="379.28000000000003"/>
      <point x="208.955" y="419.0"/>
      <point x="208.955" y="499.18" type="curve" smooth="yes"/>
      <point x="208.955" y="545.765"/>
      <point x="238.83" y="568.2800000000001"/>
      <point x="290.50499999999994" y="568.2800000000001" type="curve" smooth="yes"/>
      <point x="324.25499999999994" y="568.2800000000001"/>
      <point x="360.625" y="562.0600000000001"/>
      <point x="392.78999999999996" y="547.5500000000001" type="curve"/>
    </contour>
  </outline>
</glyph>
<glyph name="T" format="2">
  <advance width="403.792"/>
  <unicode hex="0054"/>
  <anchor x="158.239656" y="0.0" name="bottom"/>
  <anchor x="213.800652" y="350.0" name="center"/>
  <anchor x="269.142644" y="700.0" name="top"/>
  <outline>
    <contour>
      <point x="439.44399999999996" y="561.632" type="line"/>
      <point x="462.56800000000004" y="700.0" type="line"/>
      <point x="76.6" y="700.0" type="line"/>
      <point x="53.38999999999999" y="561.632" type="line"/>
      <point x="169.91000000000003" y="561.632" type="line"/>
      <point x="80.83" y="0.0" type="line"/>
      <point x="234.67799999999997" y="0.0" type="line"/>
      <point x="323.67199999999997" y="561.632" type="line"/>
    </contour>
  </outline>
</glyph>
<glyph name="U" format="2">
  <advance width="450.72400000000005"/>
  <unicode hex="0055"/>
  <anchor x="181.79384" y="0.0" name="bottom"/>
  <anchor x="251.092" y="0.0" name="ogonek"/>
  <anchor x="292.37318" y="700.0" name="top"/>
  <anchor x="466.796" y="700.0" name="topright"/>
  <outline>
    <contour>
      <point x="177.60599999999997" y="-10.0" type="curve" smooth="yes"/>
      <point x="315.15799999999996" y="-10.0"/>
      <point x="387.066" y="55.82000000000001"/>
      <point x="411.01599999999996" y="204.09199999999998" type="curve" smooth="yes"/>
      <point x="490.188" y="700.0" type="line"/>
      <point x="336.81600000000003" y="700.0" type="line"/>
      <point x="254.19" y="177.43200000000002" type="line" smooth="yes"/>
      <point x="249.56600000000003" y="144.52000000000004"/>
      <point x="233.10199999999998" y="129.744"/>
      <point x="202.44400000000002" y="129.744" type="curve" smooth="yes"/>
      <point x="172.96200000000002" y="129.744"/>
      <point x="159.94" y="145.85999999999999"/>
      <point x="165.158" y="174.954" type="curve" smooth="yes"/>
      <point x="248.828" y="700.0" type="line"/>
      <point x="95.58200000000001" y="700.0" type="line"/>
      <point x="16.172" y="201.08200000000002" type="line" smooth="yes"/>
      <point x="11.649999999999999" y="172.80200000000002"/>
      <point x="10.002" y="156.272"/>
      <point x="10.002" y="139.752" type="curve" smooth="yes"/>
      <point x="10.002" y="38.588"/>
      <point x="64.758" y="-10.0"/>
    </contour>
  </outline>
</glyph>
<glyph name="V" format="2">
  <advance width="458.709"/>
  <unicode hex="0056"/>
  <outline>
    <contour>
      <point x="279.679" y="0.0" type="line"/>
      <point x="437.02500000000003" y="337.669"/>
      <point x="490.315" y="482.57"/>
      <point x="514.18" y="674.9" type="curve" smooth="yes"/>
      <point x="515.04" y="683.649"/>
      <point x="515.76" y="691.174"/>
      <point x="515.569" y="700.0" type="curve"/>
      <point x="345.489" y="700.0" type="line"/>
      <point x="345.755" y="694.025"/>
      <point x="346.124" y="688.3389999999999"/>
      <point x="346.124" y="681.945" type="curve" smooth="yes"/>
      <point x="337.739" y="521.51"/>
      <point x="293.402" y="396.117"/>
      <point x="212.128" y="154.10999999999999" type="curve"/>
      <point x="243.53" y="700.154" type="line"/>
      <point x="66.83" y="700.035" type="line"/>
      <point x="77.72399999999999" y="0.0" type="line"/>
    </contour>
  </outline>
</glyph>
<glyph name="W" format="2">
  <advance width="683.1600000000001"/>
  <unicode hex="0057"/>
  <anchor x="294.15" y="0.0" name="bottom"/>
  <anchor x="407.62" y="700.0" name="top"/>
  <outline>
    <contour>
      <point x="531.31" y="-0.21000000000000002" type="line"/>
      <point x="691.25" y="451.77"/>
      <point x="730.7600000000001" y="571.6500000000001"/>
      <point x="737.4999999999999" y="681.3499999999999" type="curve" smooth="yes"/>
      <point x="737.4999999999999" y="687.6099999999999"/>
      <point x="737.4999999999999" y="693.81"/>
      <point x="737.1899999999999" y="700.0" type="curve"/>
      <point x="582.3100000000001" y="700.0" type="line"/>
      <point x="582.59" y="693.9499999999999"/>
      <point x="582.8000000000001" y="688.7199999999999"/>
      <point x="582.8000000000001" y="682.9899999999999" type="curve" smooth="yes"/>
      <point x="576.7099999999999" y="535.7499999999999"/>
      <point x="547.19" y="466.96000000000004"/>
      <point x="459.11999999999995" y="176.98" type="curve"/>
      <point x="478.43" y="651.93" type="line"/>
      <point x="327.43" y="651.93" type="line"/>
      <point x="294.13" y="498.98"/>
      <point x="242.31" y="299.64"/>
      <point x="197.32" y="176.4" type="curve"/>
      <point x="225.96" y="700.0" type="line"/>
      <point x="67.42999999999999" y="700.0" type="line"/>
      <point x="62.17" y="-0.21000000000000002" type="line"/>
      <point x="229.09999999999997" y="-0.21000000000000002" type="line"/>
      <point x="288.95" y="154.0"/>
      <point x="334.76" y="291.71"/>
      <point x="364.87999999999994" y="392.78999999999996" type="curve"/>
      <point x="354.91999999999996" y="-0.21000000000000002" type="line"/>
    </contour>
  </outline>
</glyph>
<glyph name="X" format="2">
  <advance width="475.32"/>
  <unicode hex="0058"/>
  <outline>
    <contour>
      <point x="274.01" y="-1.0199999999999998" type="line"/>
      <point x="436.65" y="0.21999999999999997" type="line"/>
      <point x="366.28000000000003" y="344.37" type="line"/>
      <point x="471.61000000000007" y="575.7800000000001"/>
      <point x="514.7" y="627.7800000000001"/>
      <point x="519.76" y="700.36" type="curve"/>
      <point x="363.34999999999997" y="701.04" type="line"/>
      <point x="358.76" y="625.17"/>
      <point x="317.28999999999996" y="554.55"/>
      <point x="262.89" y="449.48" type="curve"/>
      <point x="230.62" y="701.3" type="line"/>
      <point x="73.06" y="700.06" type="line"/>
      <point x="126.00999999999999" y="358.96" type="line"/>
      <point x="38.71" y="190.67000000000002"/>
      <point x="-18.36" y="102.03"/>
      <point x="-22.680000000000003" y="0.0" type="curve"/>
      <point x="139.01" y="0.0" type="line"/>
      <point x="143.32999999999998" y="90.85000000000001"/>
      <point x="170.85" y="138.90000000000003"/>
      <point x="233.16" y="254.41" type="curve"/>
    </contour>
  </outline>
</glyph>
<glyph name="Y" format="2">
  <advance width="443.1379999999999"/>
  <unicode hex="0059"/>
  <anchor x="178.99800000000002" y="0.0" name="bottom"/>
  <anchor x="290.856" y="700.0" name="top"/>
  <anchor x="90.576" y="700.0" name="topleft"/>
  <outline>
    <contour>
      <point x="98.342" y="0.0" type="line"/>
      <point x="249.51000000000002" y="0.0" type="line"/>
      <point x="286.24800000000005" y="224.318" type="line"/>
      <point x="389.45000000000005" y="384.36800000000005"/>
      <point x="449.634" y="511.184"/>
      <point x="503.084" y="667.5219999999999" type="curve" smooth="yes"/>
      <point x="505.99" y="678.058"/>
      <point x="509.944" y="689.69"/>
      <point x="512.974" y="700.476" type="curve"/>
      <point x="336.82800000000003" y="700.87" type="line"/>
      <point x="335.51800000000003" y="691.006"/>
      <point x="333.46200000000005" y="680.618"/>
      <point x="331.502" y="670.826" type="curve" smooth="yes"/>
      <point x="307.998" y="565.962"/>
      <point x="284.096" y="469.94"/>
      <point x="236.33400000000003" y="367.16200000000003" type="curve"/>
      <point x="244.334" y="700.544" type="line"/>
      <point x="65.75" y="699.998" type="line"/>
      <point x="134.77800000000002" y="224.318" type="line"/>
    </contour>
  </outline>
</glyph>
<glyph name="Z" format="2">
  <advance width="409.94999999999993"/>
  <unicode hex="005A"/>
  <anchor x="162.0" y="0.0" name="bottom"/>
  <anchor x="216.88" y="350.0" name="center"/>
  <anchor x="271.72" y="700.0" name="top"/>
  <outline>
    <contour>
      <point x="-30.22" y="0.0" type="line"/>
      <point x="350.64000000000004" y="0.0" type="line"/>
      <point x="374.16999999999996" y="140.15" type="line"/>
      <point x="160.32999999999998" y="140.15" type="line"/>
      <point x="435.97" y="555.14" type="line"/>
      <point x="459.03999999999996" y="700.0" type="line"/>
      <point x="93.22" y="700.0" type="line"/>
      <point x="69.89999999999999" y="559.8500000000001" type="line"/>
      <point x="270.25" y="559.8500000000001" type="line"/>
      <point x="-7.870000000000001" y="140.88" type="line"/>
    </contour>
  </outline>
</glyph>
<glyph name="bracketleft" format="2">
  <advance width="254.838"/>
  <unicode hex="005B"/>
  <outline>
    <contour>
      <point x="94.172" y="-79.34" type="line"/>
      <point x="205.976" y="609.354" type="line"/>
      <point x="296.326" y="609.354" type="line"/>
      <point x="318.24600000000004" y="740.0" type="line"/>
      <point x="104.366" y="740.0" type="line"/>
      <point x="-51.066" y="-210.0" type="line"/>
      <point x="161.828" y="-210.0" type="line"/>
      <point x="184.522" y="-79.34" type="line"/>
    </contour>
  </outline>
</glyph>
<glyph name="backslash" format="2">
  <advance width="337.876"/>
  <unicode hex="005C"/>
  <outline>
    <contour>
      <point x="196.33599999999996" y="740.0" type="line"/>
      <point x="71.754" y="740.0" type="line"/>
      <point x="178.65800000000002" y="-210.0" type="line"/>
      <point x="302.466" y="-210.0" type="line"/>
    </contour>
  </outline>
</glyph>
<glyph name="bracketright" format="2">
  <advance width="254.838"/>
  <unicode hex="005D"/>
  <outline>
    <contour>
      <point x="-44.348" y="-79.34" type="line"/>
      <point x="-66.182" y="-210.0" type="line"/>
      <point x="146.572" y="-210.0" type="line"/>
      <point x="302.99" y="740.0" type="line"/>
      <point x="89.236" y="740.0" type="line"/>
      <point x="66.542" y="609.34" type="line"/>
      <point x="156.89200000000002" y="609.34" type="line"/>
      <point x="44.314" y="-79.34" type="line"/>
    </contour>
  </outline>
</glyph>
<glyph name="asciicircum" format="2">
  <advance width="413.64799999999997"/>
  <unicode hex="005E"/>
  <outline>
    <contour>
      <point x="43.294" y="243.698" type="line"/>
      <point x="151.504" y="243.698" type="line"/>
      <point x="247.344" y="535.1360000000001" type="line"/>
      <point x="253.394" y="243.698" type="line"/>
      <point x="360.802" y="243.698" type="line"/>
      <point x="340.052" y="701.4" type="line"/>
      <point x="201.142" y="701.4" type="line"/>
    </contour>
  </outline>
</glyph>
<glyph name="underscore" format="2">
  <advance width="593.048"/>
  <unicode hex="005F"/>
  <outline>
    <contour>
      <point x="-73.27799999999999" y="-198.866" type="line"/>
      <point x="514.1379999999999" y="-198.866" type="line"/>
      <point x="539.326" y="-51.614000000000004" type="line"/>
      <point x="-48.09" y="-51.614000000000004" type="line"/>
    </contour>
  </outline>
</glyph>
<glyph name="a" format="2">
  <advance width="430.95"/>
  <unicode hex="0061"/>
  <note>
15
</note>
  <anchor x="179.145" y="0.0" name="bottom"/>
  <anchor x="390.02" y="11.18" name="ogonek"/>
  <anchor x="257.84999999999997" y="547.2" name="top"/>
  <outline>
    <contour>
      <point x="311.07" y="-10.0" type="curve" smooth="yes"/>
      <point x="340.19000000000005" y="-10.0"/>
      <point x="372.46500000000003" y="-1.0899999999999999"/>
      <point x="389.84000000000003" y="11.179999999999998" type="curve"/>
      <point x="406.195" y="140.73999999999998" type="line"/>
      <point x="401.72" y="139.18"/>
      <point x="396.55500000000006" y="138.795"/>
      <point x="392.935" y="138.795" type="curve" smooth="yes"/>
      <point x="382.315" y="138.795"/>
      <point x="379.36499999999995" y="143.815"/>
      <point x="379.36499999999995" y="155.325" type="curve" smooth="yes"/>
      <point x="379.36499999999995" y="161.39000000000001"/>
      <point x="383.64" y="185.41499999999996"/>
      <point x="437.5199999999999" y="522.97" type="curve"/>
      <point x="391.07499999999993" y="541.2049999999999"/>
      <point x="327.735" y="557.2"/>
      <point x="263.82" y="557.2" type="curve" smooth="yes"/>
      <point x="108.815" y="557.2"/>
      <point x="9.389999999999999" y="420.76499999999993"/>
      <point x="9.389999999999999" y="158.87500000000003" type="curve" smooth="yes"/>
      <point x="9.389999999999999" y="51.21"/>
      <point x="54.504999999999995" y="-10.0"/>
      <point x="125.39000000000001" y="-10.0" type="curve" smooth="yes"/>
      <point x="165.915" y="-10.0"/>
      <point x="197.75" y="5.08"/>
      <point x="226.13" y="34.945" type="curve"/>
      <point x="244.535" y="3.54"/>
      <point x="270.86" y="-10.0"/>
    </contour>
    <contour>
      <point x="225.13499999999996" y="146.475" type="line"/>
      <point x="216.53500000000003" y="141.405"/>
      <point x="205.815" y="137.93"/>
      <point x="195.98" y="137.93" type="curve" smooth="yes"/>
      <point x="180.41000000000003" y="137.93"/>
      <point x="169.10500000000002" y="152.25"/>
      <point x="169.10500000000002" y="182.015" type="curve" smooth="yes"/>
      <point x="169.10500000000002" y="311.69000000000005"/>
      <point x="205.18" y="419.11999999999995"/>
      <point x="246.30499999999998" y="419.11999999999995" type="curve" smooth="yes"/>
      <point x="253.545" y="419.11999999999995"/>
      <point x="260.98" y="418.34499999999997"/>
      <point x="267.78000000000003" y="415.46999999999997" type="curve"/>
    </contour>
  </outline>
</glyph>
<glyph name="b" format="2">
  <advance width="421.926"/>
  <unicode hex="0062"/>
  <note>
12
</note>
  <outline>
    <contour>
      <point x="253.95299999999997" y="740.0" type="line"/>
      <point x="101.438" y="740.0" type="line"/>
      <point x="-12.813999999999998" y="17.567999999999998" type="line"/>
      <point x="20.379" y="4.689"/>
      <point x="73.479" y="-10.0"/>
      <point x="146.91899999999998" y="-10.0" type="curve" smooth="yes"/>
      <point x="338.09700000000004" y="-10.0"/>
      <point x="415.219" y="174.25600000000003"/>
      <point x="413.71400000000006" y="378.98400000000004" type="curve" smooth="yes"/>
      <point x="413.069" y="500.698"/>
      <point x="374.52500000000003" y="557.2"/>
      <point x="303.009" y="557.2" type="curve" smooth="yes"/>
      <point x="275.192" y="557.2"/>
      <point x="248.276" y="548.238"/>
      <point x="220.43500000000003" y="527.8960000000001" type="curve"/>
    </contour>
    <contour>
      <point x="229.58700000000002" y="407.82099999999997" type="curve" smooth="yes"/>
      <point x="249.72400000000005" y="407.82099999999997"/>
      <point x="257.97400000000005" y="389.02099999999996"/>
      <point x="257.97400000000005" y="361.36400000000003" type="curve" smooth="yes"/>
      <point x="257.97400000000005" y="238.88600000000002"/>
      <point x="224.585" y="125.189"/>
      <point x="178.515" y="125.189" type="curve" smooth="yes"/>
      <point x="171.54600000000002" y="125.189"/>
      <point x="164.1" y="126.22099999999999"/>
      <point x="157.62499999999997" y="128.636" type="curve"/>
      <point x="200.235" y="398.92400000000004" type="line"/>
      <point x="208.876" y="404.192"/>
      <point x="220.41299999999998" y="407.82099999999997"/>
    </contour>
  </outline>
</glyph>
<glyph name="c" format="2">
  <advance width="351.08"/>
  <unicode hex="0063"/>
  <note>
10
</note>
  <anchor x="164.92" y="0.0" name="bottom"/>
  <anchor x="255.28000000000006" y="547.1999999999999" name="top"/>
  <outline>
    <contour>
      <point x="184.70999999999998" y="-10.0" type="curve" smooth="yes"/>
      <point x="223.8" y="-10.0"/>
      <point x="273.5199999999999" y="-1.4499999999999997"/>
      <point x="306.09" y="11.170000000000002" type="curve"/>
      <point x="291.02" y="150.39999999999998" type="line"/>
      <point x="268.90000000000003" y="146.37"/>
      <point x="250.58" y="144.63000000000002"/>
      <point x="228.70000000000002" y="144.63000000000002" type="curve" smooth="yes"/>
      <point x="187.75" y="144.63000000000002"/>
      <point x="170.53" y="175.64"/>
      <point x="170.53" y="221.91" type="curve" smooth="yes"/>
      <point x="170.53" y="315.23"/>
      <point x="205.51999999999998" y="402.5"/>
      <point x="268.06999999999994" y="402.5" type="curve" smooth="yes"/>
      <point x="290.5" y="402.5"/>
      <point x="309.90000000000003" y="400.07"/>
      <point x="333.14000000000004" y="391.96" type="curve"/>
      <point x="383.14000000000004" y="540.14" type="line"/>
      <point x="353.77" y="551.1899999999999"/>
      <point x="313.24" y="557.1999999999999"/>
      <point x="270.39000000000004" y="557.1999999999999" type="curve" smooth="yes"/>
      <point x="92.14999999999999" y="557.1999999999999"/>
      <point x="10.469999999999997" y="402.67"/>
      <point x="10.469999999999997" y="182.4" type="curve" smooth="yes"/>
      <point x="10.469999999999997" y="61.72000000000001"/>
      <point x="71.48" y="-10.0"/>
    </contour>
  </outline>
</glyph>
<glyph name="d" format="2">
  <advance width="428.86999999999995"/>
  <unicode hex="0064"/>
  <note>
17
</note>
  <anchor x="194.54500000000002" y="0.0" name="bottom"/>
  <anchor x="215.145" y="286.935" name="center"/>
  <anchor x="272.68" y="740.0" name="top"/>
  <anchor x="495.655" y="740.0" name="topright"/>
  <outline>
    <contour>
      <point x="308.925" y="-10.0" type="curve" smooth="yes"/>
      <point x="335.97499999999997" y="-10.0"/>
      <point x="368.895" y="-2.0199999999999996"/>
      <point x="387.445" y="11.179999999999998" type="curve"/>
      <point x="403.73" y="140.74" type="line"/>
      <point x="398.89" y="139.285"/>
      <point x="394.15999999999997" y="138.79500000000002"/>
      <point x="390.615" y="138.79500000000002" type="curve" smooth="yes"/>
      <point x="380.275" y="138.79500000000002"/>
      <point x="377.79499999999996" y="143.64000000000001"/>
      <point x="377.79499999999996" y="151.925" type="curve" smooth="yes"/>
      <point x="377.79499999999996" y="168.59500000000003"/>
      <point x="456.315" y="658.135"/>
      <point x="469.23" y="740.0" type="curve"/>
      <point x="317.46999999999997" y="740.0" type="line"/>
      <point x="285.54499999999996" y="542.2900000000002" type="line"/>
      <point x="266.44000000000005" y="552.34"/>
      <point x="245.21499999999997" y="557.2"/>
      <point x="221.56999999999996" y="557.2" type="curve" smooth="yes"/>
      <point x="106.14999999999999" y="557.2"/>
      <point x="10.4" y="409.33000000000004"/>
      <point x="10.4" y="173.695" type="curve" smooth="yes"/>
      <point x="10.4" y="48.830000000000005"/>
      <point x="53.97" y="-10.0"/>
      <point x="126.725" y="-10.0" type="curve" smooth="yes"/>
      <point x="166.9" y="-10.0"/>
      <point x="200.33" y="10.735000000000001"/>
      <point x="223.73499999999999" y="35.295" type="curve"/>
      <point x="242.245" y="4.26"/>
      <point x="268.29" y="-10.0"/>
    </contour>
    <contour>
      <point x="193.44500000000002" y="138.10500000000005" type="curve" smooth="yes"/>
      <point x="176.50999999999996" y="138.10500000000005"/>
      <point x="166.605" y="154.77"/>
      <point x="166.605" y="177.96999999999997" type="curve" smooth="yes"/>
      <point x="166.605" y="291.86"/>
      <point x="198.445" y="419.11999999999995"/>
      <point x="244.82" y="419.11999999999995" type="curve" smooth="yes"/>
      <point x="252.16499999999996" y="419.11999999999995"/>
      <point x="258.23999999999995" y="418.2750000000001"/>
      <point x="265.55999999999995" y="415.78499999999997" type="curve"/>
      <point x="222.84500000000003" y="146.72" type="line"/>
      <point x="214.245" y="141.50999999999996"/>
      <point x="203.01500000000001" y="138.10500000000005"/>
    </contour>
  </outline>
</glyph>
<glyph name="e" format="2">
  <advance width="392.2"/>
  <unicode hex="0065"/>
  <note>
14 points
</note>
  <anchor x="184.78000000000003" y="0.0" name="bottom"/>
  <anchor x="279.44" y="0.06" name="ogonek"/>
  <anchor x="255.1" y="546.2199999999999" name="top"/>
  <outline>
    <contour>
      <point x="127.71000000000001" y="287.63000000000005" type="curve"/>
      <point x="103.88" y="190.79" type="line"/>
      <point x="143.33999999999997" y="188.48"/>
      <point x="182.96" y="193.92999999999998"/>
      <point x="221.62" y="204.63000000000002" type="curve" smooth="yes"/>
      <point x="330.47" y="236.07000000000005"/>
      <point x="403.90999999999997" y="319.58"/>
      <point x="403.90999999999997" y="426.99" type="curve" smooth="yes"/>
      <point x="403.90999999999997" y="503.12"/>
      <point x="355.33" y="555.9399999999999"/>
      <point x="259.11" y="555.9399999999999" type="curve" smooth="yes"/>
      <point x="93.11999999999999" y="555.9399999999999"/>
      <point x="10.16" y="387.42999999999995"/>
      <point x="10.16" y="192.62" type="curve" smooth="yes"/>
      <point x="10.16" y="63.02000000000001"/>
      <point x="74.82" y="-10.0"/>
      <point x="192.75000000000003" y="-10.0" type="curve" smooth="yes"/>
      <point x="240.82999999999998" y="-10.0"/>
      <point x="296.06" y="-0.06999999999999962"/>
      <point x="342.12" y="22.91" type="curve"/>
      <point x="320.12000000000006" y="163.39999999999998" type="line"/>
      <point x="280.16999999999996" y="146.65000000000003"/>
      <point x="244.4" y="140.18999999999997"/>
      <point x="217.34000000000003" y="140.18999999999997" type="curve" smooth="yes"/>
      <point x="176.79000000000002" y="140.18999999999997"/>
      <point x="156.43999999999997" y="151.32999999999998"/>
      <point x="157.88" y="224.18" type="curve" smooth="yes"/>
      <point x="160.4" y="347.98999999999995"/>
      <point x="197.70000000000002" y="422.53000000000003"/>
      <point x="238.61" y="421.99" type="curve" smooth="yes"/>
      <point x="253.25000000000003" y="421.99"/>
      <point x="260.31" y="414.59"/>
      <point x="260.31" y="395.03000000000003" type="curve" smooth="yes"/>
      <point x="259.59" y="356.57"/>
      <point x="233.29" y="314.84000000000003"/>
      <point x="188.95" y="296.75000000000006" type="curve" smooth="yes"/>
      <point x="171.93" y="290.06"/>
      <point x="143.41" y="285.68"/>
    </contour>
  </outline>
</glyph>
<glyph name="f" format="2">
  <advance width="277.31800000000004"/>
  <unicode hex="0066"/>
  <outline>
    <contour>
      <point x="-24.653999999999996" y="-220.0" type="curve" smooth="yes"/>
      <point x="83.606" y="-220.0"/>
      <point x="137.852" y="-151.72400000000002"/>
      <point x="160.61599999999999" y="-8.567999999999998" type="curve" smooth="yes"/>
      <point x="222.84599999999998" y="384.67600000000004" type="line"/>
      <point x="286.28400000000005" y="384.67600000000004" type="line"/>
      <point x="307.77400000000006" y="518.83" type="line"/>
      <point x="244.24999999999997" y="518.83" type="line"/>
      <point x="254.14799999999997" y="583.328"/>
      <point x="270.43399999999997" y="600.28"/>
      <point x="300.804" y="600.28" type="curve" smooth="yes"/>
      <point x="314.97" y="600.28"/>
      <point x="332.08" y="596.61"/>
      <point x="347.084" y="591.28" type="curve"/>
      <point x="390.534" y="723.23" type="line"/>
      <point x="359.92" y="738.414"/>
      <point x="326.772" y="750.0"/>
      <point x="279.144" y="750.0" type="curve" smooth="yes"/>
      <point x="182.976" y="750.0"/>
      <point x="114.13799999999999" y="673.992"/>
      <point x="91.85" y="518.83" type="curve"/>
      <point x="44.15" y="510.86600000000004" type="line"/>
      <point x="23.058" y="384.67600000000004" type="line"/>
      <point x="70.36" y="384.67600000000004" type="line"/>
      <point x="9.518" y="-3.118000000000004" type="line" smooth="yes"/>
      <point x="1.6680000000000001" y="-51.164"/>
      <point x="-14.610000000000001" y="-69.95800000000001"/>
      <point x="-39.924" y="-69.95800000000001" type="curve" smooth="yes"/>
      <point x="-48.348" y="-69.95800000000001"/>
      <point x="-58.888000000000005" y="-69.49200000000002"/>
      <point x="-72.866" y="-64.63600000000001" type="curve"/>
      <point x="-113.61600000000001" y="-202.724" type="line"/>
      <point x="-83.522" y="-214.374"/>
      <point x="-54.80600000000001" y="-220.0"/>
    </contour>
  </outline>
</glyph>
<glyph name="g" format="2">
  <advance width="426.99000000000007"/>
  <unicode hex="0067"/>
  <note>
16
</note>
  <anchor x="131.85999999999999" y="-217.88" name="bottom"/>
  <anchor x="257.76" y="547.1999999999999" name="top"/>
  <outline>
    <contour>
      <point x="-24.74" y="-182.59000000000003" type="line"/>
      <point x="28.580000000000002" y="-207.11"/>
      <point x="87.47999999999999" y="-220.0"/>
      <point x="133.62000000000003" y="-220.0" type="curve" smooth="yes"/>
      <point x="258.62" y="-220.0"/>
      <point x="329.65000000000003" y="-150.29"/>
      <point x="354.28000000000003" y="4.8500000000000005" type="curve" smooth="yes"/>
      <point x="439.5400000000001" y="531.9600000000002" type="line"/>
      <point x="408.81" y="544.8600000000001"/>
      <point x="338.23" y="557.1999999999999"/>
      <point x="282.2" y="557.1999999999999" type="curve" smooth="yes"/>
      <point x="95.00000000000001" y="557.1999999999999"/>
      <point x="10.3" y="407.40999999999997"/>
      <point x="10.3" y="169.05" type="curve" smooth="yes"/>
      <point x="10.3" y="75.37"/>
      <point x="46.0" y="13.789999999999997"/>
      <point x="121.05000000000001" y="13.789999999999997" type="curve" smooth="yes"/>
      <point x="143.60999999999999" y="13.789999999999997"/>
      <point x="179.13000000000002" y="21.499999999999996"/>
      <point x="208.28999999999996" y="38.83" type="curve"/>
      <point x="203.84" y="0.10999999999999648" type="line" smooth="yes"/>
      <point x="196.61999999999998" y="-58.04999999999999"/>
      <point x="169.43000000000004" y="-73.71"/>
      <point x="134.56" y="-73.71" type="curve" smooth="yes"/>
      <point x="104.28" y="-73.71"/>
      <point x="53.18" y="-61.50000000000001"/>
      <point x="19.960000000000004" y="-48.879999999999995" type="curve"/>
    </contour>
    <contour>
      <point x="268.94000000000005" y="421.19999999999993" type="curve"/>
      <point x="226.36999999999998" y="153.20000000000002" type="line"/>
      <point x="218.11999999999998" y="148.20000000000002"/>
      <point x="206.77" y="144.84"/>
      <point x="199.26000000000002" y="144.84" type="curve" smooth="yes"/>
      <point x="179.81" y="144.84"/>
      <point x="169.70000000000002" y="159.64999999999998"/>
      <point x="169.70000000000002" y="188.87000000000003" type="curve" smooth="yes"/>
      <point x="169.70000000000002" y="299.41"/>
      <point x="203.6" y="424.96"/>
      <point x="248.48" y="424.96" type="curve" smooth="yes"/>
      <point x="256.55" y="424.96"/>
      <point x="262.69000000000005" y="423.51"/>
    </contour>
  </outline>
</glyph>
<glyph name="h" format="2">
  <advance width="422.78000000000003"/>
  <unicode hex="0068"/>
  <note>
16
</note>
  <anchor x="168.73399999999998" y="0.0" name="bottom"/>
  <anchor x="226.56543200000002" y="372.15" name="center"/>
  <anchor x="282.368" y="740.0" name="top"/>
  <outline>
    <contour>
      <point x="370.657" y="152.92700000000002" type="curve" smooth="yes"/>
      <point x="370.657" y="166.9"/>
      <point x="418.823" y="432.14599999999996"/>
      <point x="418.823" y="461.784" type="curve" smooth="yes"/>
      <point x="418.823" y="521.1880000000001"/>
      <point x="388.3960000000001" y="557.2"/>
      <point x="326.436" y="557.2" type="curve" smooth="yes"/>
      <point x="288.537" y="557.2"/>
      <point x="259.281" y="546.138"/>
      <point x="217.71" y="516.7049999999999" type="curve"/>
      <point x="253.95899999999997" y="740.0" type="line"/>
      <point x="101.41000000000001" y="740.0" type="line"/>
      <point x="-16.557000000000002" y="0.0" type="line"/>
      <point x="136.06399999999996" y="0.0" type="line"/>
      <point x="200.059" y="397.13" type="line"/>
      <point x="212.281" y="405.09000000000003"/>
      <point x="225.298" y="409.66299999999995"/>
      <point x="235.804" y="409.66299999999995" type="curve" smooth="yes"/>
      <point x="251.12599999999998" y="409.66299999999995"/>
      <point x="256.674" y="401.15500000000003"/>
      <point x="256.674" y="389.017" type="curve" smooth="yes"/>
      <point x="256.674" y="370.738"/>
      <point x="209.54299999999998" y="115.434"/>
      <point x="209.54299999999998" y="78.333" type="curve" smooth="yes"/>
      <point x="209.54299999999998" y="29.154"/>
      <point x="245.885" y="-10.0"/>
      <point x="304.791" y="-10.0" type="curve" smooth="yes"/>
      <point x="332.061" y="-10.0"/>
      <point x="360.33099999999996" y="-1.7269999999999999"/>
      <point x="381.534" y="11.365" type="curve"/>
      <point x="398.03" y="141.494" type="line"/>
      <point x="393.449" y="139.934"/>
      <point x="388.42199999999997" y="139.61699999999996"/>
      <point x="385.364" y="139.61699999999996" type="curve" smooth="yes"/>
      <point x="375.972" y="139.61699999999996"/>
      <point x="370.657" y="143.34600000000003"/>
    </contour>
  </outline>
</glyph>
<glyph name="i" format="2">
  <advance width="208.37399999999997"/>
  <unicode hex="0069"/>
  <note>
Ajuster pts sur points
8
</note>
  <anchor x="60.542184" y="0.0" name="bottom"/>
  <anchor x="136.89600000000002" y="0.0" name="ogonek"/>
  <anchor x="147.145816" y="547.2" name="top"/>
  <outline>
    <contour>
      <point x="-15.536000000000001" y="0.0" type="line"/>
      <point x="136.89600000000002" y="0.0" type="line"/>
      <point x="223.39000000000001" y="547.2" type="line"/>
      <point x="71.00399999999999" y="547.2" type="line"/>
    </contour>
    <contour>
      <point x="185.326" y="778.8" type="curve" smooth="yes"/>
      <point x="110.538" y="778.8"/>
      <point x="81.14199999999998" y="718.5200000000001"/>
      <point x="80.75" y="654.3299999999999" type="curve" smooth="yes"/>
      <point x="80.624" y="607.214"/>
      <point x="105.332" y="584.066"/>
      <point x="153.286" y="584.066" type="curve" smooth="yes"/>
      <point x="226.51" y="584.066"/>
      <point x="257.398" y="644.6899999999999"/>
      <point x="257.80400000000003" y="709.4100000000001" type="curve" smooth="yes"/>
      <point x="257.93" y="756.4259999999999"/>
      <point x="232.48999999999998" y="778.8"/>
    </contour>
  </outline>
</glyph>
<glyph name="j" format="2">
  <advance width="212.91799999999998"/>
  <unicode hex="006A"/>
  <note>
idem /i
12
</note>
  <outline>
    <contour>
      <point x="189.956" y="778.8" type="curve" smooth="yes"/>
      <point x="115.082" y="778.8"/>
      <point x="85.8" y="718.5200000000001"/>
      <point x="85.408" y="654.3299999999999" type="curve" smooth="yes"/>
      <point x="85.282" y="607.214"/>
      <point x="110.822" y="584.066"/>
      <point x="158.776" y="584.066" type="curve" smooth="yes"/>
      <point x="231.184" y="584.066"/>
      <point x="262.0" y="644.6899999999999"/>
      <point x="262.406" y="709.4100000000001" type="curve" smooth="yes"/>
      <point x="262.532" y="756.4259999999999"/>
      <point x="237.12" y="778.8"/>
    </contour>
    <contour>
      <point x="228.87999999999997" y="547.2" type="line"/>
      <point x="75.634" y="547.2" type="line"/>
      <point x="-11.657999999999998" y="0.9080000000000008" type="line" smooth="yes"/>
      <point x="-19.426" y="-46.69000000000001"/>
      <point x="-34.385999999999996" y="-69.95800000000001"/>
      <point x="-60.35" y="-69.95800000000001" type="curve" smooth="yes"/>
      <point x="-69.33" y="-69.95800000000001"/>
      <point x="-79.968" y="-69.59200000000001"/>
      <point x="-93.09799999999998" y="-64.76600000000002" type="curve"/>
      <point x="-130.566" y="-205.606" type="line"/>
      <point x="-100.414" y="-216.26600000000002"/>
      <point x="-65.728" y="-220.0"/>
      <point x="-42.970000000000006" y="-220.0" type="curve" smooth="yes"/>
      <point x="70.36600000000001" y="-220.0"/>
      <point x="116.98799999999999" y="-150.85800000000003"/>
      <point x="141.018" y="0.6379999999999999" type="curve" smooth="yes"/>
    </contour>
  </outline>
</glyph>
<glyph name="l" format="2">
  <advance width="221.978"/>
  <unicode hex="006C"/>
  <anchor x="87.464" y="0.0" name="bottom"/>
  <anchor x="128.376516" y="372.15" name="center"/>
  <anchor x="177.532" y="740.0" name="top"/>
  <anchor x="280.22" y="740.0" name="topright"/>
  <outline>
    <contour>
      <point x="101.352" y="740.0" type="line"/>
      <point x="3.684000000000001" y="122.67" type="line" smooth="yes"/>
      <point x="1.552" y="109.268"/>
      <point x="0.25199999999999934" y="94.466"/>
      <point x="0.25199999999999934" y="83.18599999999999" type="curve" smooth="yes"/>
      <point x="0.25199999999999934" y="24.886000000000003"/>
      <point x="30.438" y="-10.0"/>
      <point x="92.428" y="-10.0" type="curve" smooth="yes"/>
      <point x="123.354" y="-10.0"/>
      <point x="159.86" y="-0.5940000000000004"/>
      <point x="182.25799999999998" y="13.549999999999999" type="curve"/>
      <point x="198.71200000000002" y="144.53400000000002" type="line"/>
      <point x="190.424" y="142.25799999999998"/>
      <point x="183.5" y="141.49200000000002"/>
      <point x="178.33200000000002" y="141.49200000000002" type="curve" smooth="yes"/>
      <point x="167.28" y="141.49200000000002"/>
      <point x="162.76" y="147.532"/>
      <point x="162.76" y="159.938" type="curve" smooth="yes"/>
      <point x="162.76" y="166.01600000000002"/>
      <point x="163.968" y="174.04999999999998"/>
      <point x="165.446" y="183.744" type="curve" smooth="yes"/>
      <point x="253.838" y="740.0" type="line"/>
    </contour>
  </outline>
</glyph>
<glyph name="m" format="2">
  <advance width="625.1360000000001"/>
  <unicode hex="006D"/>
  <note>
24&gt;23 points
un point de trop dans la jointure avec 2e jambage
</note>
  <outline>
    <contour>
      <point x="504.874" y="-10.0" type="curve" smooth="yes"/>
      <point x="532.116" y="-10.0"/>
      <point x="564.9739999999999" y="-1.7619999999999998"/>
      <point x="583.904" y="11.344" type="curve"/>
      <point x="600.372" y="141.368" type="line"/>
      <point x="595.8399999999999" y="139.808"/>
      <point x="590.75" y="139.55399999999997"/>
      <point x="587.7059999999999" y="139.55399999999997" type="curve" smooth="yes"/>
      <point x="578.328" y="139.55399999999997"/>
      <point x="572.8380000000001" y="145.598"/>
      <point x="572.8380000000001" y="157.508" type="curve" smooth="yes"/>
      <point x="572.8380000000001" y="185.434"/>
      <point x="621.102" y="437.52199999999993"/>
      <point x="621.102" y="466.386" type="curve" smooth="yes"/>
      <point x="621.102" y="519.5840000000001"/>
      <point x="591.0819999999999" y="557.2"/>
      <point x="528.3900000000001" y="557.2" type="curve" smooth="yes"/>
      <point x="491.05400000000003" y="557.2"/>
      <point x="452.07" y="546.004"/>
      <point x="404.294" y="507.32" type="curve"/>
      <point x="393.23599999999993" y="538.746"/>
      <point x="366.926" y="557.2"/>
      <point x="324.518" y="557.2" type="curve" smooth="yes"/>
      <point x="288.07" y="557.2"/>
      <point x="248.806" y="546.14"/>
      <point x="203.096" y="510.75199999999995" type="curve"/>
      <point x="209.16" y="547.2" type="line"/>
      <point x="70.792" y="547.2" type="line"/>
      <point x="-15.773999999999997" y="0.0" type="line"/>
      <point x="136.698" y="0.0" type="line"/>
      <point x="199.99599999999998" y="398.114" type="line"/>
      <point x="210.31799999999998" y="404.984"/>
      <point x="222.304" y="409.66999999999996"/>
      <point x="232.838" y="409.66999999999996" type="curve" smooth="yes"/>
      <point x="247.06399999999996" y="409.66999999999996"/>
      <point x="252.73000000000002" y="401.29999999999995"/>
      <point x="252.73000000000002" y="388.61400000000003" type="curve" smooth="yes"/>
      <point x="252.73000000000002" y="376.98199999999997"/>
      <point x="213.40399999999997" y="140.25399999999996"/>
      <point x="190.186" y="0.0" type="curve"/>
      <point x="341.666" y="0.0" type="line"/>
      <point x="359.208" y="106.84400000000001"/>
      <point x="384.516" y="266.64199999999994"/>
      <point x="401.372" y="373.06600000000003" type="curve" smooth="yes"/>
      <point x="402.232" y="379.72600000000006"/>
      <point x="403.984" y="391.46"/>
      <point x="404.69000000000005" y="397.04800000000006" type="curve"/>
      <point x="415.89" y="405.13800000000003"/>
      <point x="427.17" y="409.412"/>
      <point x="437.81600000000003" y="409.412" type="curve" smooth="yes"/>
      <point x="452.55400000000003" y="409.412"/>
      <point x="458.15600000000006" y="400.874"/>
      <point x="458.15600000000006" y="388.538" type="curve" smooth="yes"/>
      <point x="458.15600000000006" y="370.01599999999996"/>
      <point x="411.11799999999994" y="122.53"/>
      <point x="411.11799999999994" y="80.648" type="curve" smooth="yes"/>
      <point x="411.11799999999994" y="24.496"/>
      <point x="445.99600000000004" y="-10.0"/>
    </contour>
  </outline>
</glyph>
<glyph name="n" format="2">
  <advance width="422.52799999999996"/>
  <unicode hex="006E"/>
  <note>
16
</note>
  <anchor x="178.068" y="0.0" name="bottom"/>
  <anchor x="250.698" y="547.2" name="top"/>
  <outline>
    <contour>
      <point x="70.792" y="547.2" type="line"/>
      <point x="-15.773999999999997" y="0.0" type="line"/>
      <point x="136.612" y="0.0" type="line"/>
      <point x="200.75600000000003" y="397.2" type="line"/>
      <point x="212.146" y="404.902"/>
      <point x="224.902" y="409.79600000000005"/>
      <point x="236.32399999999998" y="409.79600000000005" type="curve" smooth="yes"/>
      <point x="251.518" y="409.79600000000005"/>
      <point x="257.42" y="401.476"/>
      <point x="257.42" y="388.968" type="curve" smooth="yes"/>
      <point x="257.42" y="361.88"/>
      <point x="210.29600000000002" y="123.39"/>
      <point x="210.29600000000002" y="74.456" type="curve" smooth="yes"/>
      <point x="210.29600000000002" y="29.913999999999998"/>
      <point x="244.936" y="-10.0"/>
      <point x="303.81399999999996" y="-10.0" type="curve" smooth="yes"/>
      <point x="331.05600000000004" y="-10.0"/>
      <point x="362.366" y="-1.7619999999999998"/>
      <point x="381.29600000000005" y="11.344" type="curve"/>
      <point x="397.764" y="141.368" type="line"/>
      <point x="393.23199999999997" y="139.808"/>
      <point x="388.142" y="139.55399999999997"/>
      <point x="385.09799999999996" y="139.55399999999997" type="curve" smooth="yes"/>
      <point x="375.72" y="139.55399999999997"/>
      <point x="370.468" y="143.29000000000002"/>
      <point x="370.468" y="152.87800000000001" type="curve" smooth="yes"/>
      <point x="370.468" y="166.872"/>
      <point x="419.506" y="432.104"/>
      <point x="419.506" y="461.74199999999996" type="curve" smooth="yes"/>
      <point x="419.506" y="522.336"/>
      <point x="386.92600000000004" y="557.2"/>
      <point x="326.55600000000004" y="557.2" type="curve" smooth="yes"/>
      <point x="287.89" y="557.2"/>
      <point x="246.32000000000002" y="545.77"/>
      <point x="202.81" y="510.584" type="curve"/>
      <point x="208.128" y="547.2" type="line"/>
    </contour>
  </outline>
</glyph>
<glyph name="o" format="2">
  <advance width="416.74"/>
  <unicode hex="006F"/>
  <note>
8
</note>
  <anchor x="165.44975999999997" y="0.0" name="bottom"/>
  <anchor x="208.58000000000004" y="273.73999999999995" name="center"/>
  <anchor x="241.28" y="0.0" name="ogonek"/>
  <anchor x="241.91" y="547.1999999999999" name="top"/>
  <anchor x="339.40999999999997" y="537.3399999999999" name="topright"/>
  <outline>
    <contour>
      <point x="178.57999999999998" y="-9.459999999999999" type="curve" smooth="yes"/>
      <point x="341.68" y="-9.459999999999999"/>
      <point x="406.53999999999996" y="186.39000000000001"/>
      <point x="406.53999999999996" y="386.38" type="curve" smooth="yes"/>
      <point x="406.53999999999996" y="500.20000000000005"/>
      <point x="355.41" y="557.45"/>
      <point x="239.25" y="557.45" type="curve" smooth="yes"/>
      <point x="74.29" y="557.45"/>
      <point x="9.57" y="360.8"/>
      <point x="9.57" y="160.59999999999997" type="curve" smooth="yes"/>
      <point x="9.57" y="48.0"/>
      <point x="60.629999999999995" y="-9.459999999999999"/>
    </contour>
    <contour>
      <point x="185.95999999999998" y="129.32999999999998" type="curve" smooth="yes"/>
      <point x="170.93000000000004" y="129.15"/>
      <point x="159.79999999999998" y="135.95"/>
      <point x="159.43999999999997" y="162.51" type="curve" smooth="yes"/>
      <point x="158.71999999999997" y="214.58"/>
      <point x="188.22" y="418.3"/>
      <point x="230.35999999999999" y="418.65999999999997" type="curve" smooth="yes"/>
      <point x="244.85999999999999" y="418.84"/>
      <point x="256.38" y="412.25"/>
      <point x="256.74" y="386.17999999999995" type="curve" smooth="yes"/>
      <point x="257.46" y="332.71"/>
      <point x="227.96" y="129.69"/>
    </contour>
  </outline>
</glyph>
<glyph name="p" format="2">
  <advance width="422.58500000000004"/>
  <unicode hex="0070"/>
  <note>
14 point
</note>
  <outline>
    <contour>
      <point x="-48.562" y="-210.0" type="line"/>
      <point x="102.967" y="-210.0" type="line"/>
      <point x="136.00900000000001" y="-2.304" type="line"/>
      <point x="149.709" y="-5.252"/>
      <point x="168.22299999999998" y="-8.495"/>
      <point x="194.551" y="-8.495" type="curve" smooth="yes"/>
      <point x="342.51000000000005" y="-8.495"/>
      <point x="413.71400000000006" y="177.26"/>
      <point x="413.71400000000006" y="375.28700000000003" type="curve" smooth="yes"/>
      <point x="413.71400000000006" y="496.814"/>
      <point x="378.85299999999995" y="557.2"/>
      <point x="305.832" y="557.2" type="curve" smooth="yes"/>
      <point x="261.647" y="557.2"/>
      <point x="233.26799999999997" y="535.782"/>
      <point x="212.695" y="517.375" type="curve"/>
      <point x="209.9" y="548.46" type="line"/>
      <point x="71.13" y="548.46" type="line"/>
    </contour>
    <contour>
      <point x="178.403" y="125.189" type="curve" smooth="yes"/>
      <point x="171.43400000000003" y="125.189"/>
      <point x="164.1" y="126.10899999999998"/>
      <point x="157.49899999999997" y="128.52399999999997" type="curve"/>
      <point x="200.221" y="399.55500000000006" type="line"/>
      <point x="208.105" y="403.99600000000004"/>
      <point x="219.511" y="407.82099999999997"/>
      <point x="230.01700000000002" y="407.82099999999997" type="curve" smooth="yes"/>
      <point x="248.01" y="407.82099999999997"/>
      <point x="257.97400000000005" y="395.94500000000005"/>
      <point x="257.97400000000005" y="354.858" type="curve" smooth="yes"/>
      <point x="257.97400000000005" y="249.82500000000002"/>
      <point x="226.31" y="125.189"/>
    </contour>
  </outline>
</glyph>
<glyph name="q" format="2">
  <advance width="425.232"/>
  <unicode hex="0071"/>
  <note>
12
</note>
  <outline>
    <contour>
      <point x="437.663" y="529.632" type="line"/>
      <point x="401.06699999999995" y="542.259"/>
      <point x="336.395" y="557.2"/>
      <point x="268.97499999999997" y="557.2" type="curve" smooth="yes"/>
      <point x="98.737" y="557.2"/>
      <point x="8.666" y="396.28099999999995"/>
      <point x="8.666" y="159.372" type="curve" smooth="yes"/>
      <point x="8.666" y="47.971000000000004"/>
      <point x="49.718" y="-10.0"/>
      <point x="127.392" y="-10.0" type="curve" smooth="yes"/>
      <point x="154.69899999999998" y="-10.0"/>
      <point x="181.475" y="1.481"/>
      <point x="203.41400000000002" y="18.883" type="curve"/>
      <point x="167.293" y="-210.0" type="line"/>
      <point x="318.34000000000003" y="-210.0" type="line"/>
    </contour>
    <contour>
      <point x="266.59299999999996" y="416.00700000000006" type="curve"/>
      <point x="223.829" y="147.27100000000002" type="line"/>
      <point x="214.84199999999998" y="141.46599999999998"/>
      <point x="203.96300000000002" y="138.089"/>
      <point x="195.09300000000002" y="138.089" type="curve" smooth="yes"/>
      <point x="177.21200000000002" y="138.089"/>
      <point x="167.17799999999997" y="154.572"/>
      <point x="167.17799999999997" y="181.261" type="curve" smooth="yes"/>
      <point x="167.17799999999997" y="278.79599999999994"/>
      <point x="194.415" y="419.557"/>
      <point x="245.624" y="419.557" type="curve" smooth="yes"/>
      <point x="253.50500000000002" y="419.557"/>
      <point x="260.03" y="418.296"/>
    </contour>
  </outline>
</glyph>
<glyph name="r" format="2">
  <advance width="293.04999999999995"/>
  <unicode hex="0072"/>
  <anchor x="59.016" y="0.0" name="bottom"/>
  <anchor x="222.44000000000003" y="547.2" name="top"/>
  <outline>
    <contour>
      <point x="207.426" y="547.2" type="line"/>
      <point x="70.964" y="547.2" type="line"/>
      <point x="-15.86" y="0.0" type="line"/>
      <point x="134.362" y="0.0" type="line"/>
      <point x="193.71800000000002" y="366.47200000000004" type="line"/>
      <point x="215.842" y="381.43399999999997"/>
      <point x="232.64" y="385.93399999999997"/>
      <point x="251.306" y="385.93399999999997" type="curve" smooth="yes"/>
      <point x="261.018" y="385.93399999999997"/>
      <point x="278.026" y="384.294"/>
      <point x="291.95399999999995" y="379.78000000000003" type="curve"/>
      <point x="341.08000000000004" y="547.982" type="line"/>
      <point x="324.842" y="555.6179999999999"/>
      <point x="311.17999999999995" y="557.2"/>
      <point x="295.272" y="557.2" type="curve" smooth="yes"/>
      <point x="266.654" y="557.2"/>
      <point x="238.54399999999998" y="540.808"/>
      <point x="199.86800000000002" y="499.194" type="curve"/>
    </contour>
  </outline>
</glyph>
<glyph name="s" format="2">
  <advance width="365.69"/>
  <unicode hex="0073"/>
  <anchor x="143.33999999999997" y="0.0" name="bottom"/>
  <anchor x="235.59000000000003" y="547.1999999999999" name="top"/>
  <outline>
    <contour>
      <point x="-26.790000000000003" y="24.740000000000002" type="line"/>
      <point x="15.7" y="3.67"/>
      <point x="64.12" y="-10.0"/>
      <point x="138.98999999999998" y="-10.0" type="curve" smooth="yes"/>
      <point x="260.03999999999996" y="-10.0"/>
      <point x="342.14" y="47.85000000000001"/>
      <point x="342.14" y="188.16000000000003" type="curve" smooth="yes"/>
      <point x="342.14" y="363.1"/>
      <point x="164.96" y="325.03"/>
      <point x="164.96" y="386.08000000000004" type="curve" smooth="yes"/>
      <point x="164.96" y="406.65"/>
      <point x="184.0" y="415.47"/>
      <point x="225.9" y="415.47" type="curve" smooth="yes"/>
      <point x="259.68" y="415.47"/>
      <point x="301.35" y="406.54"/>
      <point x="335.97999999999996" y="393.02000000000004" type="curve"/>
      <point x="374.72" y="530.02" type="line"/>
      <point x="343.78000000000003" y="545.36"/>
      <point x="290.71999999999997" y="557.1999999999999"/>
      <point x="233.87" y="557.1999999999999" type="curve" smooth="yes"/>
      <point x="89.92999999999999" y="557.1999999999999"/>
      <point x="25.849999999999998" y="473.66"/>
      <point x="25.849999999999998" y="367.24" type="curve" smooth="yes"/>
      <point x="25.849999999999998" y="195.54"/>
      <point x="203.75" y="222.24"/>
      <point x="203.75" y="158.48999999999998" type="curve" smooth="yes"/>
      <point x="203.75" y="138.42"/>
      <point x="184.65" y="127.71000000000001"/>
      <point x="141.7" y="127.71000000000001" type="curve" smooth="yes"/>
      <point x="99.71" y="127.71000000000001"/>
      <point x="48.96" y="140.22999999999996"/>
      <point x="16.43" y="156.0" type="curve"/>
    </contour>
  </outline>
</glyph>
<glyph name="t" format="2">
  <advance width="274.368"/>
  <unicode hex="0074"/>
  <anchor x="117.85" y="0.0" name="bottom"/>
  <anchor x="135.232" y="282.308" name="center"/>
  <anchor x="190.74" y="656.486" name="top"/>
  <anchor x="315.81800000000004" y="764.42" name="topright"/>
  <outline>
    <contour>
      <point x="241.488" y="143.06000000000003" type="line"/>
      <point x="228.01399999999998" y="139.952"/>
      <point x="219.0" y="138.08599999999998"/>
      <point x="210.53799999999998" y="138.08599999999998" type="curve" smooth="yes"/>
      <point x="187.088" y="138.08599999999998"/>
      <point x="179.36399999999998" y="151.96199999999996"/>
      <point x="179.36399999999998" y="172.516" type="curve" smooth="yes"/>
      <point x="179.36399999999998" y="180.08599999999998"/>
      <point x="180.404" y="188.57"/>
      <point x="181.558" y="198.29199999999997" type="curve" smooth="yes"/>
      <point x="216.852" y="413.074" type="line"/>
      <point x="286.82599999999996" y="413.074" type="line"/>
      <point x="310.036" y="547.2" type="line"/>
      <point x="239.80399999999997" y="547.2" type="line"/>
      <point x="256.776" y="656.486" type="line"/>
      <point x="124.912" y="656.486" type="line"/>
      <point x="88.536" y="547.2" type="line"/>
      <point x="44.251999999999995" y="539.9960000000001" type="line"/>
      <point x="22.2" y="413.84799999999996" type="line"/>
      <point x="65.06800000000001" y="413.84799999999996" type="line"/>
      <point x="27.538000000000004" y="181.26399999999998" type="line" smooth="yes"/>
      <point x="22.817999999999998" y="152.296"/>
      <point x="18.622" y="113.68"/>
      <point x="18.622" y="91.896" type="curve" smooth="yes"/>
      <point x="18.622" y="10.182"/>
      <point x="70.86" y="-10.0"/>
      <point x="120.62200000000001" y="-10.0" type="curve" smooth="yes"/>
      <point x="160.472" y="-10.0"/>
      <point x="195.39200000000002" y="-2.284"/>
      <point x="226.11999999999998" y="13.558" type="curve"/>
    </contour>
  </outline>
</glyph>
<glyph name="u" format="2">
  <advance width="420.96000000000004"/>
  <unicode hex="0075"/>
  <note>
15
</note>
  <anchor x="170.588" y="0.0" name="bottom"/>
  <anchor x="379.69" y="13.846" name="ogonek"/>
  <anchor x="252.15434400000004" y="547.2" name="top"/>
  <anchor x="408.33399999999995" y="547.2" name="topright"/>
  <outline>
    <contour>
      <point x="100.038" y="-10.0" type="curve" smooth="yes"/>
      <point x="142.52800000000002" y="-10.0"/>
      <point x="175.414" y="7.329999999999999"/>
      <point x="215.276" y="45.217999999999996" type="curve"/>
      <point x="226.318" y="13.958"/>
      <point x="258.13" y="-10.0"/>
      <point x="300.096" y="-10.0" type="curve" smooth="yes"/>
      <point x="327.70400000000006" y="-10.0"/>
      <point x="360.18" y="-0.33799999999999975"/>
      <point x="379.69" y="14.792" type="curve"/>
      <point x="395.87399999999997" y="140.72000000000003" type="line"/>
      <point x="390.726" y="138.90200000000002"/>
      <point x="385.364" y="138.482"/>
      <point x="382.578" y="138.482" type="curve" smooth="yes"/>
      <point x="373.62600000000003" y="138.482"/>
      <point x="369.64599999999996" y="144.39399999999998"/>
      <point x="369.64599999999996" y="156.568" type="curve" smooth="yes"/>
      <point x="369.64599999999996" y="162.36399999999998"/>
      <point x="370.898" y="172.31"/>
      <point x="431.55400000000003" y="547.2" type="curve"/>
      <point x="281.304" y="547.2" type="line"/>
      <point x="216.71200000000002" y="148.544" type="line"/>
      <point x="204.67999999999998" y="140.114"/>
      <point x="193.654" y="135.684"/>
      <point x="180.92200000000003" y="135.684" type="curve" smooth="yes"/>
      <point x="166.46800000000002" y="135.684"/>
      <point x="158.82200000000003" y="145.62"/>
      <point x="160.36999999999998" y="161.15" type="curve" smooth="yes"/>
      <point x="174.302" y="255.30199999999996"/>
      <point x="192.76" y="369.712"/>
      <point x="221.138" y="547.2" type="curve"/>
      <point x="70.128" y="547.2" type="line"/>
      <point x="23.32" y="255.86800000000002"/>
      <point x="0.07200000000000095" y="143.308"/>
      <point x="0.07200000000000095" y="86.42" type="curve" smooth="yes"/>
      <point x="0.07200000000000095" y="30.631999999999998"/>
      <point x="33.722" y="-10.0"/>
    </contour>
  </outline>
</glyph>
<glyph name="v" format="2">
  <advance width="398.492"/>
  <unicode hex="0076"/>
  <outline>
    <contour>
      <point x="244.704" y="-0.4040000000000001" type="line"/>
      <point x="340.192" y="207.16400000000002"/>
      <point x="420.468" y="375.90999999999997"/>
      <point x="427.426" y="547.2" type="curve"/>
      <point x="269.7" y="547.2" type="line"/>
      <point x="268.092" y="415.998"/>
      <point x="229.284" y="305.862"/>
      <point x="171.296" y="148.60999999999999" type="curve"/>
      <point x="198.20799999999997" y="547.34" type="line"/>
      <point x="36.611999999999995" y="547.192" type="line"/>
      <point x="50.61" y="-0.4040000000000001" type="line"/>
    </contour>
  </outline>
</glyph>
<glyph name="w" format="2">
  <advance width="615.214"/>
  <unicode hex="0077"/>
  <note>
15
</note>
  <anchor x="264.622" y="0.0" name="bottom"/>
  <anchor x="333.82" y="547.2" name="top"/>
  <outline>
    <contour>
      <point x="470.966" y="0.0" type="line"/>
      <point x="571.534" y="235.178"/>
      <point x="639.02" y="390.472"/>
      <point x="640.828" y="547.2" type="curve"/>
      <point x="489.99600000000004" y="547.2" type="line"/>
      <point x="484.296" y="420.42400000000004"/>
      <point x="454.01199999999994" y="309.93999999999994"/>
      <point x="401.91400000000004" y="154.222" type="curve"/>
      <point x="430.908" y="539.8660000000001" type="line"/>
      <point x="260.206" y="539.8660000000001" type="line"/>
      <point x="227.996" y="407.406"/>
      <point x="195.492" y="282.224"/>
      <point x="162.322" y="153.44799999999998" type="curve"/>
      <point x="195.56799999999998" y="547.34" type="line"/>
      <point x="37.374" y="547.206" type="line"/>
      <point x="39.688" y="0.0" type="line"/>
      <point x="229.984" y="0.0" type="line"/>
      <point x="256.678" y="104.57"/>
      <point x="283.978" y="214.724"/>
      <point x="308.46399999999994" y="317.646" type="curve"/>
      <point x="290.89" y="0.0" type="line"/>
    </contour>
  </outline>
</glyph>
<glyph name="x" format="2">
  <advance width="434.498"/>
  <unicode hex="0078"/>
  <outline>
    <contour>
      <point x="298.503" y="547.2" type="line"/>
      <point x="296.125" y="476.90500000000003"/>
      <point x="276.019" y="430.54600000000005"/>
      <point x="230.098" y="352.041" type="curve"/>
      <point x="223.167" y="548.076" type="line"/>
      <point x="53.772" y="547.2740000000001" type="line"/>
      <point x="94.569" y="278.003" type="line"/>
      <point x="37.121" y="191.083"/>
      <point x="-13.705" y="101.008"/>
      <point x="-26.52" y="0.0" type="curve"/>
      <point x="140.38000000000002" y="0.0" type="line"/>
      <point x="150.226" y="75.23"/>
      <point x="177.118" y="139.63099999999997"/>
      <point x="209.9" y="199.2" type="curve"/>
      <point x="221.383" y="-0.494" type="line"/>
      <point x="393.50500000000005" y="0.101" type="line"/>
      <point x="345.11099999999993" y="273.8349999999999" type="line"/>
      <point x="421.538" y="385.483"/>
      <point x="454.943" y="496.264"/>
      <point x="460.341" y="547.2" type="curve"/>
    </contour>
  </outline>
</glyph>
<glyph name="y" format="2">
  <advance width="403.31"/>
  <unicode hex="0079"/>
  <anchor x="298.47" y="-58.80000000000001" name="bottom"/>
  <anchor x="237.51" y="547.1999999999999" name="top"/>
  <outline>
    <contour>
      <point x="285.7" y="547.74" type="line"/>
      <point x="282.16999999999996" y="415.12"/>
      <point x="235.97" y="289.08"/>
      <point x="178.60000000000002" y="143.45000000000002" type="curve"/>
      <point x="187.04" y="548.6" type="line"/>
      <point x="36.04" y="547.89" type="line"/>
      <point x="60.82" y="-0.86" type="line"/>
      <point x="107.75" y="-0.86" type="line"/>
      <point x="82.05999999999999" y="-61.690000000000005"/>
      <point x="48.35999999999999" y="-124.20000000000002"/>
      <point x="-1.84" y="-209.57" type="curve"/>
      <point x="144.46" y="-211.4" type="line"/>
      <point x="300.21999999999997" y="105.15"/>
      <point x="415.01" y="321.40999999999997"/>
      <point x="435.19" y="547.6100000000001" type="curve"/>
    </contour>
  </outline>
</glyph>
<glyph name="z" format="2">
  <advance width="377.756"/>
  <unicode hex="007A"/>
  <anchor x="154.478" y="0.0" name="bottom"/>
  <anchor x="187.806" y="275.0" name="center"/>
  <anchor x="232.708" y="547.2" name="top"/>
  <outline>
    <contour>
      <point x="-20.96" y="0.0" type="line"/>
      <point x="320.278" y="0.0" type="line"/>
      <point x="341.854" y="138.72" type="line"/>
      <point x="170.69400000000002" y="138.72" type="line"/>
      <point x="370.152" y="413.18600000000004" type="line"/>
      <point x="396.826" y="547.2" type="line"/>
      <point x="67.12400000000001" y="547.2" type="line"/>
      <point x="44.688" y="406.93199999999996" type="line"/>
      <point x="203.624" y="406.93199999999996" type="line"/>
      <point x="-1.5880000000000005" y="124.21000000000001" type="line"/>
    </contour>
  </outline>
</glyph>
<glyph name="braceleft" format="2">
  <advance width="257.736"/>
  <unicode hex="007B"/>
  <outline>
    <contour>
      <point x="-5.619999999999999" y="-90.25" type="curve" smooth="yes"/>
      <point x="-5.619999999999999" y="-175.08"/>
      <point x="37.647999999999996" y="-210.0"/>
      <point x="93.904" y="-210.0" type="curve" smooth="yes"/>
      <point x="162.644" y="-210.0" type="line"/>
      <point x="185.338" y="-79.06" type="line"/>
      <point x="159.426" y="-79.06" type="line" smooth="yes"/>
      <point x="139.628" y="-79.06"/>
      <point x="131.00199999999998" y="-65.41000000000001"/>
      <point x="131.00199999999998" y="-41.391999999999996" type="curve" smooth="yes"/>
      <point x="131.00199999999998" y="33.952"/>
      <point x="184.89000000000001" y="95.82400000000001"/>
      <point x="184.89000000000001" y="169.71200000000002" type="curve" smooth="yes"/>
      <point x="184.89000000000001" y="206.62"/>
      <point x="174.538" y="240.65200000000002"/>
      <point x="146.088" y="266.12" type="curve"/>
      <point x="200.99800000000002" y="304.432"/>
      <point x="227.75" y="367.73599999999993"/>
      <point x="227.75" y="432.4" type="curve" smooth="yes"/>
      <point x="227.75" y="462.23"/>
      <point x="223.486" y="486.568"/>
      <point x="223.486" y="519.6899999999999" type="curve" smooth="yes"/>
      <point x="223.486" y="557.184"/>
      <point x="233.39" y="609.06"/>
      <point x="273.03" y="609.06" type="curve" smooth="yes"/>
      <point x="296.89000000000004" y="609.06" type="line"/>
      <point x="318.03600000000006" y="740.0" type="line"/>
      <point x="249.926" y="740.0" type="line" smooth="yes"/>
      <point x="133.55" y="740.0"/>
      <point x="92.44000000000001" y="624.274"/>
      <point x="92.44000000000001" y="511.074" type="curve" smooth="yes"/>
      <point x="92.44000000000001" y="472.544"/>
      <point x="98.94000000000001" y="446.40799999999996"/>
      <point x="98.94000000000001" y="413.398" type="curve" smooth="yes"/>
      <point x="98.94000000000001" y="377.28000000000003"/>
      <point x="92.46600000000001" y="334.726"/>
      <point x="59.108" y="334.726" type="curve" smooth="yes"/>
      <point x="45.006" y="334.726" type="line"/>
      <point x="23.086" y="197.132" type="line"/>
      <point x="36.95" y="197.132" type="line" smooth="yes"/>
      <point x="54.532000000000004" y="197.132"/>
      <point x="60.104" y="186.816"/>
      <point x="60.104" y="168.14000000000001" type="curve" smooth="yes"/>
      <point x="60.104" y="101.806"/>
      <point x="-5.619999999999999" y="13.1"/>
    </contour>
  </outline>
</glyph>
<glyph name="bar" format="2">
  <advance width="172.55599999999998"/>
  <unicode hex="007C"/>
  <outline>
    <contour>
      <point x="232.92000000000002" y="790.774" type="line"/>
      <point x="103.12" y="790.774" type="line"/>
      <point x="-56.138" y="-210.0" type="line"/>
      <point x="74.35000000000001" y="-210.0" type="line"/>
    </contour>
  </outline>
</glyph>
<glyph name="braceright" format="2">
  <advance width="257.736"/>
  <unicode hex="007D"/>
  <outline>
    <contour>
      <point x="260.342" y="620.25" type="curve" smooth="yes"/>
      <point x="260.342" y="705.854"/>
      <point x="216.29999999999998" y="740.774"/>
      <point x="160.044" y="740.774" type="curve" smooth="yes"/>
      <point x="91.30399999999999" y="740.774" type="line"/>
      <point x="68.61" y="609.834" type="line"/>
      <point x="86.782" y="609.834" type="line" smooth="yes"/>
      <point x="107.35400000000001" y="609.834"/>
      <point x="116.754" y="595.41"/>
      <point x="116.754" y="571.392" type="curve" smooth="yes"/>
      <point x="116.754" y="494.5"/>
      <point x="62.866" y="449.242"/>
      <point x="62.866" y="359.09999999999997" type="curve" smooth="yes"/>
      <point x="62.866" y="324.514"/>
      <point x="72.444" y="290.48199999999997"/>
      <point x="102.44200000000001" y="265.788" type="curve"/>
      <point x="47.532000000000004" y="226.702"/>
      <point x="20.006000000000007" y="164.946"/>
      <point x="20.006000000000007" y="99.50800000000001" type="curve" smooth="yes"/>
      <point x="20.006000000000007" y="69.678"/>
      <point x="24.27" y="44.206"/>
      <point x="24.27" y="12.632000000000001" type="curve" smooth="yes"/>
      <point x="24.27" y="-24.862000000000002"/>
      <point x="15.14" y="-78.286"/>
      <point x="-24.5" y="-78.286" type="curve" smooth="yes"/>
      <point x="-42.168" y="-78.286" type="line"/>
      <point x="-63.31400000000001" y="-210.0" type="line"/>
      <point x="4.022" y="-210.0" type="line" smooth="yes"/>
      <point x="120.398" y="-210.0"/>
      <point x="161.50799999999998" y="-84.21199999999999"/>
      <point x="161.50799999999998" y="4.219999999999999" type="curve" smooth="yes"/>
      <point x="161.50799999999998" y="63.648"/>
      <point x="155.008" y="94.014"/>
      <point x="155.008" y="121.606" type="curve" smooth="yes"/>
      <point x="155.008" y="156.17600000000002"/>
      <point x="163.03" y="197.182"/>
      <point x="194.84" y="197.182" type="curve" smooth="yes"/>
      <point x="208.94199999999998" y="197.182" type="line"/>
      <point x="230.862" y="334.002" type="line"/>
      <point x="216.998" y="334.002" type="line" smooth="yes"/>
      <point x="199.416" y="334.002"/>
      <point x="193.84400000000002" y="344.318"/>
      <point x="193.84400000000002" y="362.99399999999997" type="curve" smooth="yes"/>
      <point x="193.84400000000002" y="430.102"/>
      <point x="260.342" y="506.064"/>
    </contour>
  </outline>
</glyph>
<glyph name="asciitilde" format="2">
  <advance width="415.92199999999997"/>
  <unicode hex="007E"/>
  <outline>
    <contour>
      <point x="356.724" y="237.56" type="curve"/>
      <point x="378.44" y="379.50600000000003" type="line"/>
      <point x="351.688" y="354.88"/>
      <point x="326.986" y="345.978"/>
      <point x="299.894" y="345.978" type="curve" smooth="yes"/>
      <point x="232.94" y="345.978"/>
      <point x="217.806" y="419.24"/>
      <point x="154.02" y="419.24" type="curve" smooth="yes"/>
      <point x="115.74000000000001" y="419.24"/>
      <point x="79.312" y="395.954"/>
      <point x="71.70599999999999" y="386.77000000000004" type="curve"/>
      <point x="49.56" y="244.81" type="line"/>
      <point x="59.884" y="255.72000000000003"/>
      <point x="95.066" y="277.63599999999997"/>
      <point x="131.79" y="277.63599999999997" type="curve" smooth="yes"/>
      <point x="197.956" y="277.63599999999997"/>
      <point x="212.686" y="204.374"/>
      <point x="279.33799999999997" y="204.374" type="curve" smooth="yes"/>
      <point x="305.274" y="204.374"/>
      <point x="330.854" y="213.656"/>
    </contour>
  </outline>
</glyph>
<glyph name="cent" format="2">
  <advance width="461.356"/>
  <unicode hex="00A2"/>
  <outline>
    <contour>
      <point x="129.62199999999999" y="-105.688" type="line"/>
      <point x="260.454" y="-105.688" type="line"/>
      <point x="276.314" y="-3.708" type="line"/>
      <point x="305.304" y="-0.2440000000000011"/>
      <point x="332.082" y="5.576"/>
      <point x="350.98799999999994" y="14.372" type="curve"/>
      <point x="350.54" y="168.35799999999998" type="line"/>
      <point x="325.09999999999997" y="162.90200000000002"/>
      <point x="302.152" y="157.528"/>
      <point x="282.65" y="157.528" type="curve" smooth="yes"/>
      <point x="245.20399999999998" y="157.528"/>
      <point x="232.842" y="185.85999999999999"/>
      <point x="232.842" y="222.52" type="curve" smooth="yes"/>
      <point x="232.842" y="297.498"/>
      <point x="256.696" y="388.216"/>
      <point x="318.844" y="388.216" type="curve" smooth="yes"/>
      <point x="338.884" y="388.216"/>
      <point x="356.536" y="385.494"/>
      <point x="377.562" y="378.976" type="curve"/>
      <point x="427.20399999999995" y="539.6780000000001" type="line"/>
      <point x="409.56" y="545.7819999999999"/>
      <point x="389.992" y="550.5840000000001"/>
      <point x="365.274" y="553.2040000000001" type="curve"/>
      <point x="381.34599999999995" y="651.426" type="line"/>
      <point x="250.514" y="651.426" type="line"/>
      <point x="232.636" y="540.72" type="line"/>
      <point x="115.712" y="482.232"/>
      <point x="69.706" y="297.142"/>
      <point x="69.706" y="158.92" type="curve" smooth="yes"/>
      <point x="69.706" y="72.05799999999999"/>
      <point x="98.28399999999999" y="24.694"/>
      <point x="146.288" y="4.1579999999999995" type="curve"/>
    </contour>
  </outline>
</glyph>
<glyph name="sterling" format="2">
  <advance width="461.44"/>
  <unicode hex="00A3"/>
  <outline>
    <contour>
      <point x="22.408000000000005" y="0.0" type="line"/>
      <point x="354.868" y="0.0" type="line"/>
      <point x="377.218" y="143.04999999999998" type="line"/>
      <point x="223.128" y="143.04999999999998" type="line"/>
      <point x="259.976" y="186.85599999999997"/>
      <point x="285.928" y="234.05200000000002"/>
      <point x="285.928" y="300.03" type="curve" smooth="yes"/>
      <point x="285.928" y="344.392"/>
      <point x="272.164" y="399.98"/>
      <point x="272.164" y="443.766" type="curve" smooth="yes"/>
      <point x="272.164" y="517.912"/>
      <point x="306.8279999999999" y="551.6100000000001"/>
      <point x="356.6720000000001" y="551.6100000000001" type="curve" smooth="yes"/>
      <point x="378.08000000000004" y="551.6100000000001"/>
      <point x="396.416" y="549.1920000000001"/>
      <point x="418.546" y="539.6320000000001" type="curve"/>
      <point x="463.378" y="677.672" type="line"/>
      <point x="429.846" y="699.13"/>
      <point x="386.512" y="710.0"/>
      <point x="342.3059999999999" y="710.0" type="curve" smooth="yes"/>
      <point x="199.254" y="710.0"/>
      <point x="124.09199999999998" y="587.044"/>
      <point x="124.09199999999998" y="465.53400000000005" type="curve" smooth="yes"/>
      <point x="124.09199999999998" y="396.44599999999997"/>
      <point x="145.17000000000002" y="340.21400000000006"/>
      <point x="145.17000000000002" y="283.852" type="curve" smooth="yes"/>
      <point x="145.17000000000002" y="209.562"/>
      <point x="94.37000000000002" y="149.73800000000003"/>
      <point x="38.53200000000001" y="107.78999999999999" type="curve"/>
    </contour>
    <contour>
      <point x="67.07600000000001" y="312.776" type="line"/>
      <point x="369.594" y="312.77600000000007" type="line"/>
      <point x="382.762" y="399.476" type="line"/>
      <point x="80.38200000000002" y="399.476" type="line"/>
    </contour>
  </outline>
</glyph>
<glyph name="currency" format="2">
  <advance width="398.834"/>
  <unicode hex="00A4"/>
  <outline>
    <contour>
      <point x="86.87" y="98.466" type="line"/>
      <point x="147.23399999999998" y="156.00799999999998" type="line"/>
      <point x="156.766" y="151.488"/>
      <point x="168.33599999999998" y="149.862"/>
      <point x="181.394" y="149.862" type="curve" smooth="yes"/>
      <point x="193.062" y="149.862"/>
      <point x="204.518" y="151.502"/>
      <point x="215.274" y="155.32000000000002" type="curve"/>
      <point x="258.632" y="98.466" type="line"/>
      <point x="362.92600000000004" y="197.864" type="line"/>
      <point x="327.53999999999996" y="244.82799999999997" type="line"/>
      <point x="337.15399999999994" y="262.00600000000003"/>
      <point x="343.45799999999997" y="281.094"/>
      <point x="345.006" y="300.97400000000005" type="curve" smooth="yes"/>
      <point x="346.554" y="314.382"/>
      <point x="345.628" y="328.172"/>
      <point x="343.228" y="341.428" type="curve"/>
      <point x="393.54400000000004" y="388.392" type="line"/>
      <point x="320.38" y="487.78999999999996" type="line"/>
      <point x="261.378" y="433.258" type="line"/>
      <point x="251.562" y="437.09000000000003"/>
      <point x="239.878" y="439.63"/>
      <point x="227.35" y="439.63" type="curve" smooth="yes"/>
      <point x="213.518" y="439.63"/>
      <point x="200.614" y="436.31600000000003"/>
      <point x="188.482" y="432.57" type="curve"/>
      <point x="148.532" y="487.78999999999996" type="line"/>
      <point x="42.94200000000001" y="388.392" type="line"/>
      <point x="79.828" y="338.114" type="line"/>
      <point x="71.57600000000001" y="323.146"/>
      <point x="66.186" y="306.334"/>
      <point x="64.638" y="288.79" type="curve" smooth="yes"/>
      <point x="63.089999999999996" y="274.96999999999997"/>
      <point x="63.242000000000004" y="260.796"/>
      <point x="65.72800000000001" y="248.12800000000001" type="curve"/>
      <point x="12.238" y="197.864" type="line"/>
    </contour>
    <contour>
      <point x="198.38" y="252.85199999999998" type="curve" smooth="yes"/>
      <point x="176.846" y="252.85199999999998"/>
      <point x="164.69600000000003" y="267.138"/>
      <point x="167.018" y="290.52799999999996" type="curve" smooth="yes"/>
      <point x="169.34" y="315.73"/>
      <point x="187.78799999999998" y="335.866"/>
      <point x="211.19199999999998" y="335.866" type="curve" smooth="yes"/>
      <point x="232.93800000000002" y="335.866"/>
      <point x="244.18800000000002" y="319.1"/>
      <point x="241.86599999999999" y="297.232" type="curve" smooth="yes"/>
      <point x="239.544" y="270.35"/>
      <point x="221.766" y="252.85199999999998"/>
    </contour>
  </outline>
</glyph>
<glyph name="yen" format="2">
  <advance width="472.59999999999997"/>
  <unicode hex="00A5"/>
  <outline>
    <contour>
      <point x="64.41" y="293.67999999999995" type="line"/>
      <point x="167.44" y="293.67999999999995" type="line"/>
      <point x="162.12" y="257.77000000000004" type="line"/>
      <point x="59.19" y="257.77000000000004" type="line"/>
      <point x="46.03" y="173.84000000000003" type="line"/>
      <point x="149.17" y="173.84000000000003" type="line"/>
      <point x="121.04" y="0.0" type="line"/>
      <point x="265.05" y="0.0" type="line"/>
      <point x="293.97" y="173.84000000000003" type="line"/>
      <point x="396.73" y="173.84000000000003" type="line"/>
      <point x="409.61" y="257.77000000000004" type="line"/>
      <point x="306.13" y="257.77000000000004" type="line"/>
      <point x="311.45" y="293.67999999999995" type="line"/>
      <point x="415.65" y="293.67999999999995" type="line"/>
      <point x="428.59999999999997" y="377.65" type="line"/>
      <point x="325.22" y="377.65" type="line"/>
      <point x="514.24" y="700.14" type="line"/>
      <point x="359.19" y="701.12" type="line"/>
      <point x="268.96" y="479.36" type="line"/>
      <point x="248.77" y="700.7099999999999" type="line"/>
      <point x="93.10999999999999" y="699.39" type="line"/>
      <point x="181.10999999999999" y="377.65" type="line"/>
      <point x="77.42999999999999" y="377.65" type="line"/>
    </contour>
  </outline>
</glyph>
<glyph name="brokenbar" format="2">
  <advance width="176.552"/>
  <unicode hex="00A6"/>
  <outline>
    <contour>
      <point x="171.93000000000004" y="391.0" type="line"/>
      <point x="237.564" y="790.774" type="line"/>
      <point x="107.764" y="790.774" type="line"/>
      <point x="42.13" y="391.0" type="line"/>
    </contour>
    <contour>
      <point x="8.722000000000001" y="190.774" type="line"/>
      <point x="-56.01199999999999" y="-210.0" type="line"/>
      <point x="73.702" y="-210.0" type="line"/>
      <point x="139.21" y="190.774" type="line"/>
    </contour>
  </outline>
</glyph>
<glyph name="section" format="2">
  <advance width="425.952"/>
  <unicode hex="00A7"/>
  <outline>
    <contour>
      <point x="12.464" y="-22.30400000000001" type="curve"/>
      <point x="-44.074" y="-184.934" type="line"/>
      <point x="-8.852" y="-206.43599999999998"/>
      <point x="57.013999999999996" y="-220.0"/>
      <point x="90.58" y="-220.0" type="curve" smooth="yes"/>
      <point x="281.14" y="-220.0"/>
      <point x="379.454" y="-15.258"/>
      <point x="379.454" y="156.942" type="curve" smooth="yes"/>
      <point x="379.454" y="283.60400000000004"/>
      <point x="310.24800000000005" y="384.0"/>
      <point x="310.24800000000005" y="492.98799999999994" type="curve" smooth="yes"/>
      <point x="310.24800000000005" y="536.432"/>
      <point x="329.34799999999996" y="574.216"/>
      <point x="365.01800000000003" y="574.216" type="curve" smooth="yes"/>
      <point x="376.446" y="574.216"/>
      <point x="383.332" y="569.6139999999999"/>
      <point x="396.096" y="562.63" type="curve"/>
      <point x="454.67" y="724.702" type="line"/>
      <point x="429.236" y="741.8960000000001"/>
      <point x="373.438" y="749.774"/>
      <point x="344.214" y="749.774" type="curve" smooth="yes"/>
      <point x="137.22400000000002" y="749.774"/>
      <point x="46.176" y="560.962"/>
      <point x="46.176" y="381.29" type="curve" smooth="yes"/>
      <point x="46.176" y="234.76"/>
      <point x="115.696" y="108.38799999999999"/>
      <point x="115.696" y="11.892" type="curve" smooth="yes"/>
      <point x="115.696" y="-16.044000000000004"/>
      <point x="101.18" y="-45.81800000000002"/>
      <point x="70.778" y="-45.81800000000002" type="curve" smooth="yes"/>
      <point x="51.242000000000004" y="-45.81800000000002"/>
      <point x="30.901999999999997" y="-39.41"/>
    </contour>
    <contour>
      <point x="283.878" y="649.398" type="curve"/>
      <point x="225.14600000000002" y="602.014"/>
      <point x="205.356" y="530.202"/>
      <point x="205.356" y="468.88199999999995" type="curve" smooth="yes"/>
      <point x="205.356" y="354.13399999999996"/>
      <point x="268.48799999999994" y="242.17"/>
      <point x="268.48799999999994" y="129.61200000000002" type="curve" smooth="yes"/>
      <point x="268.48799999999994" y="17.956000000000003"/>
      <point x="211.298" y="-115.73599999999999"/>
      <point x="105.782" y="-126.47399999999999" type="curve"/>
      <point x="191.83599999999998" y="-94.88"/>
      <point x="222.362" y="-13.531999999999998"/>
      <point x="222.362" y="59.515999999999984" type="curve" smooth="yes"/>
      <point x="222.362" y="174.47799999999998"/>
      <point x="157.90800000000002" y="283.71"/>
      <point x="157.90800000000002" y="399.95000000000005" type="curve" smooth="yes"/>
      <point x="157.90800000000002" y="498.936"/>
      <point x="194.826" y="608.79"/>
    </contour>
  </outline>
</glyph>
<glyph name="copyright" format="2">
  <advance width="644.0219999999999"/>
  <unicode hex="00A9"/>
  <outline>
    <contour>
      <point x="300.974" y="-10.1" type="curve" smooth="yes"/>
      <point x="521.756" y="-10.372"/>
      <point x="624.3759999999999" y="188.666"/>
      <point x="624.3759999999999" y="425.928" type="curve" smooth="yes"/>
      <point x="624.3759999999999" y="609.4979999999999"/>
      <point x="533.776" y="709.756"/>
      <point x="367.166" y="710.028" type="curve" smooth="yes"/>
      <point x="146.35999999999999" y="710.3"/>
      <point x="42.872" y="511.7579999999999"/>
      <point x="42.872" y="274.1" type="curve" smooth="yes"/>
      <point x="42.872" y="90.68599999999999"/>
      <point x="133.55999999999997" y="-9.828"/>
    </contour>
    <contour>
      <point x="318.396" y="125.06400000000001" type="curve" smooth="yes"/>
      <point x="345.454" y="125.06400000000001"/>
      <point x="377.508" y="131.632"/>
      <point x="396.354" y="142.348" type="curve"/>
      <point x="395.082" y="227.93200000000002" type="line"/>
      <point x="381.938" y="223.034"/>
      <point x="364.91400000000004" y="219.658"/>
      <point x="351.13399999999996" y="219.658" type="curve" smooth="yes"/>
      <point x="321.59000000000003" y="219.658"/>
      <point x="302.942" y="246.982"/>
      <point x="302.942" y="294.654" type="curve" smooth="yes"/>
      <point x="302.942" y="385.44199999999995"/>
      <point x="334.09400000000005" y="469.288"/>
      <point x="383.756" y="469.288" type="curve" smooth="yes"/>
      <point x="396.426" y="469.288"/>
      <point x="408.53" y="467.334"/>
      <point x="420.262" y="462.08000000000004" type="curve"/>
      <point x="449.62199999999996" y="560.842" type="line"/>
      <point x="436.068" y="567.916"/>
      <point x="415.21999999999997" y="574.016"/>
      <point x="383.63399999999996" y="574.016" type="curve" smooth="yes"/>
      <point x="289.656" y="574.016"/>
      <point x="200.766" y="460.21000000000004"/>
      <point x="200.766" y="293.71599999999995" type="curve" smooth="yes"/>
      <point x="200.766" y="180.236"/>
      <point x="244.69599999999997" y="125.06400000000001"/>
    </contour>
    <contour>
      <point x="306.232" y="40.821999999999996" type="curve" smooth="yes"/>
      <point x="170.66" y="40.821999999999996"/>
      <point x="97.424" y="119.94"/>
      <point x="97.424" y="274.6" type="curve" smooth="yes"/>
      <point x="97.424" y="478.442"/>
      <point x="175.456" y="659.134"/>
      <point x="361.85999999999996" y="659.134" type="curve" smooth="yes"/>
      <point x="496.0719999999999" y="659.134"/>
      <point x="569.824" y="579.9879999999999"/>
      <point x="569.824" y="425.6" type="curve" smooth="yes"/>
      <point x="569.824" y="221.958"/>
      <point x="492.436" y="40.821999999999996"/>
    </contour>
  </outline>
</glyph>
<glyph name="ordfeminine" format="2">
  <advance width="294.624"/>
  <unicode hex="00AA"/>
  <outline>
    <contour>
      <point x="21.962000000000003" y="243.056" type="line"/>
      <point x="264.26" y="243.056" type="line"/>
      <point x="276.548" y="323.498" type="line"/>
      <point x="34.25" y="323.498" type="line"/>
    </contour>
    <component base="a.superior" xOffset="8.392"/>
  </outline>
</glyph>
<glyph name="logicalnot" format="2">
  <advance width="413.15999999999997"/>
  <unicode hex="00AC"/>
  <outline>
    <contour>
      <point x="48.756" y="308.05600000000004" type="line"/>
      <point x="236.34" y="308.05600000000004" type="line"/>
      <point x="216.856" y="176.398" type="line"/>
      <point x="353.748" y="176.398" type="line"/>
      <point x="395.926" y="444.30600000000004" type="line"/>
      <point x="71.45" y="444.30600000000004" type="line"/>
    </contour>
  </outline>
</glyph>
<glyph name="registered" format="2">
  <advance width="592.412"/>
  <unicode hex="00AE"/>
  <outline>
    <contour>
      <point x="299.926" y="208.22799999999998" type="curve" smooth="yes"/>
      <point x="483.774" y="208.22799999999998"/>
      <point x="605.4620000000001" y="378.202"/>
      <point x="605.4620000000001" y="624.302" type="curve" smooth="yes"/>
      <point x="605.4620000000001" y="792.884"/>
      <point x="527.776" y="893.2239999999999"/>
      <point x="379.284" y="893.2239999999999" type="curve" smooth="yes"/>
      <point x="195.436" y="893.2239999999999"/>
      <point x="74.276" y="722.9999999999999"/>
      <point x="74.276" y="477.15" type="curve" smooth="yes"/>
      <point x="74.276" y="308.59600000000006"/>
      <point x="151.40599999999998" y="208.22799999999998"/>
    </contour>
    <contour>
      <point x="304.03799999999995" y="256.126" type="curve" smooth="yes"/>
      <point x="186.03599999999997" y="256.126"/>
      <point x="123.76799999999999" y="340.228"/>
      <point x="123.76799999999999" y="475.13" type="curve" smooth="yes"/>
      <point x="123.76799999999999" y="695.56"/>
      <point x="220.822" y="845.104"/>
      <point x="375.2" y="845.104" type="curve" smooth="yes"/>
      <point x="493.202" y="845.104"/>
      <point x="555.9699999999999" y="761.2239999999999"/>
      <point x="555.9699999999999" y="626.072" type="curve" smooth="yes"/>
      <point x="555.9699999999999" y="405.64200000000005"/>
      <point x="458.388" y="256.126"/>
    </contour>
    <contour>
      <point x="201.964" y="354.52000000000004" type="line"/>
      <point x="293.44000000000005" y="354.52000000000004" type="line"/>
      <point x="313.104" y="478.846" type="line"/>
      <point x="317.69199999999995" y="478.49399999999997"/>
      <point x="322.16400000000004" y="478.11400000000003"/>
      <point x="328.234" y="478.26800000000003" type="curve"/>
      <point x="338.918" y="488.08" type="line"/>
      <point x="420.08399999999995" y="490.22799999999995"/>
      <point x="476.97799999999995" y="552.064"/>
      <point x="476.97799999999995" y="651.144" type="curve" smooth="yes"/>
      <point x="476.97799999999995" y="725.104"/>
      <point x="438.244" y="764.998"/>
      <point x="366.382" y="764.998" type="curve" smooth="yes"/>
      <point x="330.73" y="764.998"/>
      <point x="300.7" y="762.402"/>
      <point x="266.252" y="758.23" type="curve"/>
    </contour>
    <contour>
      <point x="338.244" y="552.9" type="curve" smooth="yes"/>
      <point x="334.32599999999996" y="552.9"/>
      <point x="330.34" y="553.8759999999999"/>
      <point x="324.684" y="554.776" type="curve"/>
      <point x="345.24600000000004" y="679.502" type="line"/>
      <point x="353.39599999999996" y="680.6339999999999"/>
      <point x="357.95399999999995" y="681.6339999999999"/>
      <point x="364.34" y="681.6339999999999" type="curve" smooth="yes"/>
      <point x="379.622" y="681.6339999999999"/>
      <point x="386.13" y="669.0939999999999"/>
      <point x="386.13" y="649.064" type="curve" smooth="yes"/>
      <point x="386.13" y="599.17"/>
      <point x="365.978" y="552.9"/>
    </contour>
    <contour>
      <point x="409.662" y="349.104" type="curve" smooth="yes"/>
      <point x="416.10400000000004" y="349.104"/>
      <point x="431.488" y="351.402"/>
      <point x="438.40999999999997" y="354.724" type="curve"/>
      <point x="449.462" y="452.85200000000003" type="line"/>
      <point x="447.334" y="452.65"/>
      <point x="445.262" y="452.65"/>
      <point x="443.31600000000003" y="452.65" type="curve" smooth="yes"/>
      <point x="422.792" y="452.65"/>
      <point x="405.83" y="473.15799999999996"/>
      <point x="397.05000000000007" y="520.448" type="curve"/>
      <point x="319.074" y="498.074" type="line"/>
      <point x="345.106" y="361.872"/>
      <point x="372.10200000000003" y="349.104"/>
    </contour>
  </outline>
</glyph>
<glyph name="degree" format="2">
  <advance width="296.31"/>
  <unicode hex="00B0"/>
  <outline>
    <contour>
      <point x="167.14" y="387.38800000000003" type="curve" smooth="yes"/>
      <point x="273.576" y="387.38800000000003"/>
      <point x="319.784" y="503.97400000000005"/>
      <point x="319.784" y="593.702" type="curve" smooth="yes"/>
      <point x="319.784" y="659.7560000000001"/>
      <point x="292.15999999999997" y="712.348"/>
      <point x="216.724" y="712.348" type="curve" smooth="yes"/>
      <point x="110.83800000000001" y="712.348"/>
      <point x="63.334" y="596.8760000000001"/>
      <point x="63.334" y="507.176" type="curve" smooth="yes"/>
      <point x="63.334" y="438.30600000000004"/>
      <point x="94.674" y="387.38800000000003"/>
    </contour>
    <contour>
      <point x="183.684" y="500.752" type="curve" smooth="yes"/>
      <point x="168.85" y="500.752"/>
      <point x="161.28199999999998" y="513.184"/>
      <point x="161.28199999999998" y="532.868" type="curve" smooth="yes"/>
      <point x="161.28199999999998" y="561.522"/>
      <point x="173.074" y="595.8879999999999"/>
      <point x="198.65999999999997" y="595.8879999999999" type="curve" smooth="yes"/>
      <point x="214.296" y="595.8879999999999"/>
      <point x="221.83599999999998" y="583.2040000000001"/>
      <point x="221.83599999999998" y="564.2659999999998" type="curve" smooth="yes"/>
      <point x="221.83599999999998" y="536.3159999999999"/>
      <point x="209.242" y="500.752"/>
    </contour>
  </outline>
</glyph>
<glyph name="plusminus" format="2">
  <advance width="413.584"/>
  <unicode hex="00B1"/>
  <outline>
    <contour>
      <point x="327.54200000000003" y="10.274" type="line"/>
      <point x="350.236" y="154.39000000000001" type="line"/>
      <point x="254.286" y="154.39000000000001" type="line"/>
      <point x="270.416" y="254.96800000000002" type="line"/>
      <point x="366.24" y="254.96800000000002" type="line"/>
      <point x="388.93399999999997" y="399.08399999999995" type="line"/>
      <point x="293.10999999999996" y="399.08399999999995" type="line"/>
      <point x="310.286" y="504.3" type="line"/>
      <point x="176.48999999999998" y="504.3" type="line"/>
      <point x="159.26800000000003" y="399.08399999999995" type="line"/>
      <point x="63.449999999999996" y="399.08399999999995" type="line"/>
      <point x="40.756" y="254.96800000000002" type="line"/>
      <point x="136.62" y="254.96800000000002" type="line"/>
      <point x="120.31800000000001" y="154.39000000000001" type="line"/>
      <point x="24.752" y="154.39000000000001" type="line"/>
      <point x="2.058" y="10.274" type="line"/>
    </contour>
  </outline>
</glyph>
<glyph name="uni00B2" format="2">
  <advance width="270.65999999999997"/>
  <unicode hex="00B2"/>
  <outline>
    <contour>
      <point x="39.55" y="369.572" type="line"/>
      <point x="255.804" y="369.572" type="line"/>
      <point x="269.422" y="444.622" type="line"/>
      <point x="165.70399999999998" y="444.622" type="line"/>
      <point x="235.912" y="521.098"/>
      <point x="299.864" y="594.754"/>
      <point x="299.864" y="686.758" type="curve" smooth="yes"/>
      <point x="299.864" y="740.502"/>
      <point x="263.506" y="773.782"/>
      <point x="207.412" y="773.782" type="curve" smooth="yes"/>
      <point x="164.57" y="773.782"/>
      <point x="121.986" y="759.506"/>
      <point x="90.33" y="738.218" type="curve"/>
      <point x="107.914" y="645.534" type="line"/>
      <point x="126.93400000000001" y="657.042"/>
      <point x="143.154" y="663.722"/>
      <point x="161.63" y="663.722" type="curve" smooth="yes"/>
      <point x="179.602" y="663.722"/>
      <point x="187.716" y="651.274"/>
      <point x="187.716" y="634.082" type="curve" smooth="yes"/>
      <point x="187.49" y="583.3299999999999"/>
      <point x="104.494" y="478.5"/>
      <point x="50.754000000000005" y="436.548" type="curve"/>
    </contour>
  </outline>
</glyph>
<glyph name="uni00B3" format="2">
  <advance width="287.385"/>
  <unicode hex="00B3"/>
  <outline>
    <contour>
      <point x="39.04" y="393.245" type="line"/>
      <point x="65.685" y="375.685"/>
      <point x="95.27499999999999" y="365.29"/>
      <point x="139.3" y="365.29" type="curve" smooth="yes"/>
      <point x="212.625" y="365.29"/>
      <point x="290.235" y="410.805"/>
      <point x="290.235" y="503.745" type="curve" smooth="yes"/>
      <point x="290.235" y="546.355"/>
      <point x="269.66499999999996" y="567.1999999999999"/>
      <point x="247.69" y="579.3950000000001" type="curve"/>
      <point x="288.56" y="604.035"/>
      <point x="316.83" y="637.05"/>
      <point x="316.83" y="691.27" type="curve" smooth="yes"/>
      <point x="316.83" y="744.025"/>
      <point x="274.77500000000003" y="775.4350000000001"/>
      <point x="212.375" y="775.4350000000001" type="curve" smooth="yes"/>
      <point x="171.12" y="775.4350000000001"/>
      <point x="130.48499999999999" y="763.625"/>
      <point x="101.32" y="744.725" type="curve"/>
      <point x="115.19000000000001" y="670.305" type="line"/>
      <point x="130.215" y="677.0"/>
      <point x="153.445" y="681.93"/>
      <point x="172.99499999999998" y="681.93" type="curve" smooth="yes"/>
      <point x="201.32" y="681.93"/>
      <point x="214.26" y="668.845"/>
      <point x="214.26" y="650.425" type="curve" smooth="yes"/>
      <point x="214.26" y="627.04"/>
      <point x="193.35" y="607.93"/>
      <point x="165.4" y="607.93" type="curve" smooth="yes"/>
      <point x="133.09" y="607.93" type="line"/>
      <point x="120.34" y="538.3199999999999" type="line"/>
      <point x="155.11499999999998" y="538.3199999999999" type="line" smooth="yes"/>
      <point x="184.63" y="538.3199999999999"/>
      <point x="197.05" y="524.085"/>
      <point x="197.05" y="505.15500000000003" type="curve" smooth="yes"/>
      <point x="197.05" y="477.52000000000004"/>
      <point x="176.57500000000002" y="454.28000000000003"/>
      <point x="138.69" y="454.28000000000003" type="curve" smooth="yes"/>
      <point x="117.765" y="454.28000000000003"/>
      <point x="100.73" y="458.875"/>
      <point x="82.75" y="469.89" type="curve"/>
    </contour>
  </outline>
</glyph>
<glyph name="uni00B5" format="2">
  <advance width="422.39799999999997"/>
  <unicode hex="00B5"/>
  <outline>
    <contour>
      <point x="-49.282" y="-210.0" type="line"/>
      <point x="101.42999999999999" y="-210.0" type="line"/>
      <point x="134.23" y="-4.983999999999999" type="line"/>
      <point x="137.236" y="-8.36"/>
      <point x="141.22" y="-10.0"/>
      <point x="147.056" y="-10.0" type="curve" smooth="yes"/>
      <point x="169.852" y="-10.0"/>
      <point x="197.32000000000002" y="1.912"/>
      <point x="223.68" y="35.93" type="curve"/>
      <point x="234.722" y="12.41"/>
      <point x="263.438" y="-10.0"/>
      <point x="301.534" y="-10.0" type="curve" smooth="yes"/>
      <point x="329.142" y="-10.0"/>
      <point x="361.618" y="-0.33799999999999975"/>
      <point x="381.128" y="14.792" type="curve"/>
      <point x="397.312" y="140.72000000000003" type="line"/>
      <point x="392.16400000000004" y="138.90200000000002"/>
      <point x="386.802" y="138.482"/>
      <point x="384.016" y="138.482" type="curve" smooth="yes"/>
      <point x="375.064" y="138.482"/>
      <point x="371.084" y="144.39399999999998"/>
      <point x="371.084" y="156.568" type="curve" smooth="yes"/>
      <point x="371.084" y="162.36399999999998"/>
      <point x="372.336" y="172.31"/>
      <point x="432.9920000000001" y="547.2" type="curve"/>
      <point x="282.74199999999996" y="547.2" type="line"/>
      <point x="218.15" y="148.544" type="line"/>
      <point x="206.11800000000002" y="140.114"/>
      <point x="194.084" y="135.684"/>
      <point x="182.108" y="135.684" type="curve" smooth="yes"/>
      <point x="167.65400000000002" y="135.684"/>
      <point x="160.13400000000001" y="144.98999999999998"/>
      <point x="161.68200000000002" y="160.52" type="curve" smooth="yes"/>
      <point x="179.484" y="255.17600000000002"/>
      <point x="196.84399999999997" y="386.848"/>
      <point x="222.57600000000002" y="547.2" type="curve"/>
      <point x="71.566" y="547.2" type="line"/>
    </contour>
  </outline>
</glyph>
<glyph name="paragraph" format="2">
  <advance width="526.874"/>
  <unicode hex="00B6"/>
  <outline>
    <contour>
      <point x="300.756" y="-210.0" type="line"/>
      <point x="417.054" y="-210.0" type="line"/>
      <point x="569.4619999999999" y="740.0" type="line"/>
      <point x="453.16399999999993" y="740.0" type="line"/>
    </contour>
    <contour>
      <point x="227.32999999999998" y="348.20599999999996" type="line"/>
      <point x="207.546" y="353.80799999999994"/>
      <point x="190.38600000000002" y="385.16200000000003"/>
      <point x="190.38600000000002" y="435.442" type="curve" smooth="yes"/>
      <point x="190.38600000000002" y="502.166"/>
      <point x="214.08599999999998" y="592.158"/>
      <point x="279.798" y="594.5039999999999" type="curve"/>
      <point x="151.546" y="-210.0" type="line"/>
      <point x="267.84400000000005" y="-210.0" type="line"/>
      <point x="420.252" y="740.0" type="line"/>
      <point x="346.352" y="740.0" type="line" smooth="yes"/>
      <point x="159.48" y="740.0"/>
      <point x="57.376000000000005" y="599.3340000000001"/>
      <point x="57.376000000000005" y="425.038" type="curve" smooth="yes"/>
      <point x="57.376000000000005" y="331.372"/>
      <point x="100.136" y="263.006"/>
      <point x="193.51999999999998" y="241.202" type="curve"/>
    </contour>
  </outline>
</glyph>
<glyph name="periodcentered" format="2">
  <advance width="194.518"/>
  <unicode hex="00B7"/>
  <outline>
    <contour>
      <point x="18.683000000000003" y="288.615" type="curve" smooth="yes"/>
      <point x="18.403" y="241.21700000000004"/>
      <point x="39.28999999999999" y="218.43699999999998"/>
      <point x="88.30499999999999" y="218.43699999999998" type="curve" smooth="yes"/>
      <point x="164.62199999999999" y="218.43699999999998"/>
      <point x="189.307" y="295.689"/>
      <point x="189.58700000000002" y="356.084" type="curve" smooth="yes"/>
      <point x="189.867" y="402.015"/>
      <point x="169.015" y="424.9"/>
      <point x="120.89500000000001" y="424.9" type="curve" smooth="yes"/>
      <point x="45.54299999999999" y="424.9"/>
      <point x="18.962999999999997" y="348.652"/>
    </contour>
  </outline>
</glyph>
<glyph name="uni00B9" format="2">
  <advance width="251.05200000000002"/>
  <unicode hex="00B9"/>
  <outline>
    <contour>
      <point x="38.506" y="370.0" type="line"/>
      <point x="248.62800000000001" y="370.0" type="line"/>
      <point x="263.786" y="452.68999999999994" type="line"/>
      <point x="211.362" y="452.68999999999994" type="line"/>
      <point x="266.27000000000004" y="767.9079999999999" type="line"/>
      <point x="215.122" y="767.9079999999999" type="line"/>
      <point x="90.406" y="728.064" type="line"/>
      <point x="93.33399999999999" y="633.712" type="line"/>
      <point x="147.304" y="651.788" type="line"/>
      <point x="112.404" y="452.68999999999994" type="line"/>
      <point x="52.228" y="452.68999999999994" type="line"/>
    </contour>
  </outline>
</glyph>
<glyph name="ordmasculine" format="2">
  <advance width="271.728"/>
  <unicode hex="00BA"/>
  <outline>
    <contour>
      <point x="22.092" y="243.056" type="line"/>
      <point x="242.434" y="243.056" type="line"/>
      <point x="254.59599999999998" y="323.498" type="line"/>
      <point x="34.254" y="323.498" type="line"/>
    </contour>
    <component base="o.superior" xOffset="9.26"/>
  </outline>
</glyph>
<glyph name="AE" format="2">
  <advance width="617.965"/>
  <unicode hex="00C6"/>
  <anchor x="271.52033200000005" y="0.0" name="bottom"/>
  <anchor x="393.23900000000003" y="700.0" name="top"/>
  <outline>
    <contour>
      <point x="224.82899999999998" y="0.0" type="line"/>
      <point x="560.4380000000001" y="0.0" type="line"/>
      <point x="583.146" y="142.939" type="line"/>
      <point x="398.58200000000005" y="142.939" type="line"/>
      <point x="420.1689999999999" y="281.32399999999996" type="line"/>
      <point x="571.8960000000001" y="281.32399999999996" type="line"/>
      <point x="594.386" y="414.933" type="line"/>
      <point x="441.906" y="414.933" type="line"/>
      <point x="463.66800000000006" y="553.2959999999999" type="line"/>
      <point x="637.374" y="553.2959999999999" type="line"/>
      <point x="661.7629999999999" y="700.0" type="line"/>
      <point x="226.439" y="700.0" type="line"/>
      <point x="-42.95" y="0.0" type="line"/>
      <point x="116.53099999999999" y="0.0" type="line"/>
      <point x="167.769" y="134.12" type="line"/>
      <point x="245.76200000000003" y="134.12" type="line"/>
    </contour>
    <contour>
      <point x="214.632" y="276.207" type="line"/>
      <point x="316.35900000000004" y="582.282" type="line"/>
      <point x="267.89599999999996" y="276.207" type="line"/>
    </contour>
  </outline>
</glyph>
<glyph name="multiply" format="2">
  <advance width="398.56"/>
  <unicode hex="00D7"/>
  <outline>
    <contour>
      <point x="107.51599999999999" y="142.175" type="line"/>
      <point x="192.759" y="230.162" type="line"/>
      <point x="251.198" y="141.02299999999997" type="line"/>
      <point x="358.101" y="243.545" type="line"/>
      <point x="301.69" y="331.611" type="line"/>
      <point x="386.652" y="420.235" type="line"/>
      <point x="309.95" y="521.8250000000002" type="line"/>
      <point x="224.70499999999996" y="433.55400000000003" type="line"/>
      <point x="165.914" y="522.6890000000001" type="line"/>
      <point x="58.474000000000004" y="420.9549999999999" type="line"/>
      <point x="115.887" y="332.142" type="line"/>
      <point x="29.989" y="243.33499999999998" type="line"/>
    </contour>
  </outline>
</glyph>
<glyph name="Oslash" format="2">
  <advance width="468.82000000000005"/>
  <unicode hex="00D8"/>
  <anchor x="297.38000000000005" y="700.0" name="top"/>
  <outline>
    <contour>
      <point x="511.95" y="711.8" type="line"/>
      <point x="434.66999999999996" y="711.8" type="line"/>
      <point x="367.39" y="608.8500000000001" type="line"/>
      <point x="362.02000000000004" y="610.39" type="line"/>
      <point x="95.74" y="169.03" type="line"/>
      <point x="91.66" y="170.96" type="line"/>
      <point x="-20.7" y="-3.9200000000000004" type="line"/>
      <point x="56.11" y="-3.9200000000000004" type="line"/>
      <point x="126.87" y="103.46" type="line"/>
      <point x="132.24" y="101.91999999999999" type="line"/>
      <point x="394.24999999999994" y="535.9300000000001" type="line"/>
      <point x="398.15" y="534.0" type="line"/>
    </contour>
    <contour>
      <point x="204.46" y="-9.139999999999999" type="curve" smooth="yes"/>
      <point x="400.80999999999995" y="-9.139999999999999"/>
      <point x="470.11000000000007" y="266.5"/>
      <point x="472.09000000000003" y="489.05" type="curve" smooth="yes"/>
      <point x="473.53000000000003" y="636.25"/>
      <point x="416.2699999999999" y="709.14"/>
      <point x="286.32000000000005" y="709.14" type="curve" smooth="yes"/>
      <point x="94.80000000000001" y="709.14"/>
      <point x="20.669999999999998" y="433.57"/>
      <point x="18.69" y="211.09" type="curve" smooth="yes"/>
      <point x="17.25" y="63.67999999999999"/>
      <point x="74.50999999999999" y="-9.139999999999999"/>
    </contour>
    <contour>
      <point x="215.6" y="134.66" type="curve" smooth="yes"/>
      <point x="182.36999999999998" y="134.66"/>
      <point x="166.75" y="154.04999999999998"/>
      <point x="166.75" y="203.51" type="curve" smooth="yes"/>
      <point x="166.75" y="311.79"/>
      <point x="215.42" y="565.34"/>
      <point x="278.58" y="565.34" type="curve" smooth="yes"/>
      <point x="310.13" y="565.34"/>
      <point x="325.32000000000005" y="546.1600000000001"/>
      <point x="325.32000000000005" y="498.35" type="curve" smooth="yes"/>
      <point x="325.32000000000005" y="396.63"/>
      <point x="274.96" y="134.66"/>
    </contour>
  </outline>
</glyph>
<glyph name="Thorn" format="2">
  <advance width="451.66"/>
  <unicode hex="00DE"/>
  <outline>
    <contour>
      <point x="-13.43" y="0.0" type="line"/>
      <point x="140.37500000000003" y="0.0" type="line"/>
      <point x="155.29" y="93.66000000000001" type="line"/>
      <point x="186.535" y="90.045"/>
      <point x="195.365" y="89.83000000000001"/>
      <point x="217.95499999999998" y="89.83000000000001" type="curve" smooth="yes"/>
      <point x="363.675" y="89.83000000000001"/>
      <point x="458.465" y="234.02"/>
      <point x="458.465" y="434.31" type="curve" smooth="yes"/>
      <point x="458.465" y="557.88"/>
      <point x="407.635" y="627.11"/>
      <point x="273.15999999999997" y="627.11" type="curve" smooth="yes"/>
      <point x="265.015" y="627.11"/>
      <point x="254.085" y="626.7550000000001"/>
      <point x="240.85999999999999" y="626.37" type="curve"/>
      <point x="252.52499999999998" y="700.0" type="line"/>
      <point x="98.72" y="700.0" type="line"/>
    </contour>
    <contour>
      <point x="210.79500000000002" y="230.27" type="curve" smooth="yes"/>
      <point x="200.27" y="230.27"/>
      <point x="193.015" y="230.41"/>
      <point x="180.005" y="232.555" type="curve"/>
      <point x="217.57500000000002" y="483.425" type="line"/>
      <point x="235.67" y="485.85"/>
      <point x="243.81" y="486.85"/>
      <point x="256.4" y="486.85" type="curve" smooth="yes"/>
      <point x="290.94" y="486.85"/>
      <point x="306.595" y="466.53499999999997"/>
      <point x="306.595" y="422.85999999999996" type="curve" smooth="yes"/>
      <point x="306.595" y="311.44"/>
      <point x="270.145" y="230.27"/>
    </contour>
  </outline>
</glyph>
<glyph name="germandbls" format="2">
  <advance width="568.605"/>
  <unicode hex="00DF"/>
  <outline>
    <contour>
      <point x="8.932" y="-4.154000000000003" type="line" smooth="yes"/>
      <point x="1.1280000000000003" y="-51.036"/>
      <point x="-14.713" y="-70.055"/>
      <point x="-39.746" y="-70.055" type="curve" smooth="yes"/>
      <point x="-49.04899999999999" y="-70.055"/>
      <point x="-58.254" y="-69.561"/>
      <point x="-73.069" y="-64.77700000000002" type="curve"/>
      <point x="-113.796" y="-202.719" type="line"/>
      <point x="-83.77900000000001" y="-214.41799999999998"/>
      <point x="-54.849000000000004" y="-220.0"/>
      <point x="-24.667999999999996" y="-220.0" type="curve" smooth="yes"/>
      <point x="83.40899999999999" y="-220.0"/>
      <point x="136.702" y="-151.95000000000002"/>
      <point x="159.19099999999997" y="-9.904999999999998" type="curve" smooth="yes"/>
      <point x="239.347" y="503.833" type="line" smooth="yes"/>
      <point x="249.42499999999998" y="567.1469999999999"/>
      <point x="286.567" y="604.867"/>
      <point x="348.71500000000003" y="604.867" type="curve" smooth="yes"/>
      <point x="392.24800000000005" y="604.867"/>
      <point x="409.509" y="591.5120000000001"/>
      <point x="409.509" y="571.7090000000001" type="curve" smooth="yes"/>
      <point x="409.509" y="549.786"/>
      <point x="399.39300000000003" y="537.567"/>
      <point x="346.765" y="512.273" type="curve" smooth="yes"/>
      <point x="286.912" y="482.89"/>
      <point x="248.767" y="437.441"/>
      <point x="248.767" y="353.692" type="curve" smooth="yes"/>
      <point x="248.767" y="276.59600000000006"/>
      <point x="289.06" y="241.697"/>
      <point x="342.818" y="215.95999999999998" type="curve" smooth="yes"/>
      <point x="387.048" y="194.45"/>
      <point x="395.77099999999996" y="185.95300000000003"/>
      <point x="395.77099999999996" y="167.95200000000003" type="curve" smooth="yes"/>
      <point x="395.77099999999996" y="147.85"/>
      <point x="372.76" y="130.541"/>
      <point x="333.743" y="130.541" type="curve" smooth="yes"/>
      <point x="298.58199999999994" y="130.541"/>
      <point x="258.79699999999997" y="137.863"/>
      <point x="226.916" y="148.106" type="curve"/>
      <point x="192.29699999999997" y="17.947000000000003" type="line"/>
      <point x="226.613" y="2.3339999999999996"/>
      <point x="272.756" y="-9.927999999999999"/>
      <point x="333.818" y="-9.927999999999999" type="curve" smooth="yes"/>
      <point x="478.208" y="-9.927999999999999"/>
      <point x="551.911" y="61.571000000000005"/>
      <point x="551.911" y="183.887" type="curve" smooth="yes"/>
      <point x="551.911" y="262.19"/>
      <point x="515.6320000000001" y="300.0919999999999"/>
      <point x="460.03100000000006" y="324.784" type="curve" smooth="yes"/>
      <point x="406.906" y="348.86400000000003"/>
      <point x="395.69399999999996" y="356.981"/>
      <point x="395.69399999999996" y="375.58" type="curve" smooth="yes"/>
      <point x="395.69399999999996" y="393.581"/>
      <point x="406.182" y="404.576"/>
      <point x="462.893" y="426.936" type="curve" smooth="yes"/>
      <point x="527.8629999999999" y="452.3380000000001"/>
      <point x="568.9799999999999" y="495.65900000000005"/>
      <point x="568.9799999999999" y="586.142" type="curve" smooth="yes"/>
      <point x="568.9799999999999" y="688.222"/>
      <point x="492.40000000000003" y="750.0"/>
      <point x="358.662" y="750.0" type="curve" smooth="yes"/>
      <point x="196.02100000000002" y="750.0"/>
      <point x="114.92699999999999" y="669.817"/>
      <point x="93.07" y="528.5910000000001" type="curve" smooth="yes"/>
      <point x="91.668" y="518.865" type="line"/>
      <point x="43.968999999999994" y="510.86" type="line"/>
      <point x="22.657000000000004" y="384.484" type="line"/>
      <point x="69.78600000000002" y="384.484" type="line"/>
    </contour>
  </outline>
</glyph>
<glyph name="ae" format="2">
  <advance width="623.62"/>
  <unicode hex="00E6"/>
  <anchor x="277.54999999999995" y="0.0" name="bottom"/>
  <anchor x="361.77000000000004" y="547.1999999999999" name="top"/>
  <outline>
    <contour>
      <point x="122.88" y="-10.0" type="curve" smooth="yes"/>
      <point x="154.2" y="-10.0"/>
      <point x="180.34" y="-0.97"/>
      <point x="211.46" y="34.71" type="curve"/>
      <point x="205.23999999999998" y="-1.2600000000000005" type="line"/>
      <point x="340.92999999999995" y="-1.2600000000000005" type="line"/>
      <point x="347.9" y="42.690000000000005" type="line"/>
      <point x="373.02000000000004" y="11.720000000000004"/>
      <point x="410.63000000000005" y="-8.46"/>
      <point x="456.03999999999996" y="-8.46" type="curve" smooth="yes"/>
      <point x="496.3" y="-8.46"/>
      <point x="539.35" y="1.44"/>
      <point x="576.6" y="25.43" type="curve"/>
      <point x="559.0999999999999" y="161.57999999999998" type="line"/>
      <point x="518.59" y="143.77999999999997"/>
      <point x="482.43" y="136.46"/>
      <point x="454.78" y="136.46" type="curve" smooth="yes"/>
      <point x="414.77" y="136.46"/>
      <point x="384.2" y="154.05999999999997"/>
      <point x="384.2" y="220.73000000000002" type="curve" smooth="yes"/>
      <point x="384.2" y="314.81"/>
      <point x="412.5899999999999" y="424.69000000000005"/>
      <point x="465.09" y="424.69000000000005" type="curve" smooth="yes"/>
      <point x="478.66" y="424.69000000000005"/>
      <point x="487.4499999999999" y="417.05"/>
      <point x="487.4499999999999" y="397.1" type="curve" smooth="yes"/>
      <point x="487.4499999999999" y="357.39000000000004"/>
      <point x="462.93999999999994" y="313.09"/>
      <point x="416.10999999999996" y="294.14000000000004" type="curve" smooth="yes"/>
      <point x="397.34000000000003" y="286.38"/>
      <point x="377.3299999999999" y="282.58"/>
      <point x="353.56" y="283.74" type="curve"/>
      <point x="332.53" y="190.24999999999997" type="line"/>
      <point x="372.69" y="188.40999999999997"/>
      <point x="413.33" y="194.37"/>
      <point x="452.0900000000001" y="206.67999999999998" type="curve" smooth="yes"/>
      <point x="559.2099999999999" y="240.05999999999997"/>
      <point x="628.8800000000001" y="327.9"/>
      <point x="628.8800000000001" y="438.56999999999994" type="curve" smooth="yes"/>
      <point x="628.8800000000001" y="510.39000000000004"/>
      <point x="592.4300000000001" y="557.1999999999999"/>
      <point x="520.94" y="557.1999999999999" type="curve" smooth="yes"/>
      <point x="482.10999999999996" y="557.1999999999999"/>
      <point x="449.82" y="541.59"/>
      <point x="421.41" y="516.28" type="curve"/>
      <point x="428.16" y="556.1999999999999" type="line"/>
      <point x="293.16999999999996" y="556.1999999999999" type="line"/>
      <point x="289.73999999999995" y="535.4399999999999" type="line"/>
      <point x="271.76" y="550.26"/>
      <point x="248.64" y="557.1999999999999"/>
      <point x="222.10999999999999" y="557.1999999999999" type="curve" smooth="yes"/>
      <point x="94.85000000000001" y="557.1999999999999"/>
      <point x="8.959999999999999" y="392.34000000000003"/>
      <point x="8.959999999999999" y="156.83000000000004" type="curve" smooth="yes"/>
      <point x="8.959999999999999" y="51.6"/>
      <point x="52.349999999999994" y="-10.0"/>
    </contour>
    <contour>
      <point x="195.05" y="117.17999999999999" type="curve" smooth="yes"/>
      <point x="178.72000000000003" y="117.17999999999999"/>
      <point x="166.09" y="131.06"/>
      <point x="166.09" y="178.15" type="curve" smooth="yes"/>
      <point x="166.09" y="295.79999999999995"/>
      <point x="204.72" y="420.1600000000001"/>
      <point x="245.88000000000002" y="420.1600000000001" type="curve" smooth="yes"/>
      <point x="254.76999999999998" y="420.1600000000001"/>
      <point x="262.52000000000004" y="418.56"/>
      <point x="268.74" y="414.38" type="curve"/>
      <point x="225.02" y="126.58" type="line"/>
      <point x="215.31" y="120.32999999999998"/>
      <point x="205.13" y="117.17999999999999"/>
    </contour>
  </outline>
</glyph>
<glyph name="eth" format="2">
  <advance width="418.54999999999995"/>
  <unicode hex="00F0"/>
  <outline>
    <contour>
      <point x="284.45000000000005" y="399.52" type="curve"/>
      <point x="309.84000000000003" y="512.82" type="line"/>
      <point x="285.08000000000004" y="526.9300000000001"/>
      <point x="250.10999999999999" y="534.4599999999999"/>
      <point x="220.41" y="534.4599999999999" type="curve" smooth="yes"/>
      <point x="72.08000000000001" y="534.4599999999999"/>
      <point x="5.27" y="347.44"/>
      <point x="5.27" y="177.95999999999998" type="curve" smooth="yes"/>
      <point x="5.27" y="48.21"/>
      <point x="72.46" y="-9.389999999999999"/>
      <point x="172.61999999999998" y="-9.389999999999999" type="curve" smooth="yes"/>
      <point x="316.53999999999996" y="-9.389999999999999"/>
      <point x="371.33000000000004" y="72.16000000000001"/>
      <point x="412.38" y="328.94000000000005" type="curve" smooth="yes"/>
      <point x="421.11" y="383.72999999999996"/>
      <point x="425.84" y="432.43"/>
      <point x="425.84" y="474.59000000000003" type="curve" smooth="yes"/>
      <point x="425.84" y="650.2"/>
      <point x="346.06" y="748.4100000000001"/>
      <point x="189.64000000000001" y="748.4100000000001" type="curve" smooth="yes"/>
      <point x="138.68" y="748.4100000000001"/>
      <point x="100.55999999999999" y="738.4300000000001"/>
      <point x="69.64999999999999" y="729.0199999999999" type="curve"/>
      <point x="74.8" y="623.77" type="line"/>
      <point x="95.62" y="627.8400000000001"/>
      <point x="118.08999999999997" y="633.31"/>
      <point x="148.64" y="633.31" type="curve" smooth="yes"/>
      <point x="240.14000000000001" y="633.31"/>
      <point x="274.83" y="597.93"/>
      <point x="274.83" y="509.50999999999993" type="curve" smooth="yes"/>
      <point x="274.83" y="473.07"/>
      <point x="270.46999999999997" y="425.86999999999995"/>
      <point x="260.73999999999995" y="365.55999999999995" type="curve" smooth="yes"/>
      <point x="225.70999999999998" y="141.44"/>
      <point x="207.86999999999998" y="107.97"/>
      <point x="180.62" y="107.97" type="curve" smooth="yes"/>
      <point x="162.59000000000003" y="107.97"/>
      <point x="154.17999999999998" y="121.11000000000001"/>
      <point x="154.17999999999998" y="149.8" type="curve" smooth="yes"/>
      <point x="154.17999999999998" y="229.59"/>
      <point x="187.70999999999998" y="413.19"/>
      <point x="243.26999999999998" y="413.19" type="curve" smooth="yes"/>
      <point x="255.86000000000004" y="413.19"/>
      <point x="270.40999999999997" y="408.27000000000004"/>
    </contour>
    <contour>
      <point x="175.82000000000002" y="552.96" type="line"/>
      <point x="305.78999999999996" y="631.64" type="line"/>
      <point x="302.59999999999997" y="635.4200000000001" type="line"/>
      <point x="483.93999999999994" y="746.27" type="line"/>
      <point x="365.57" y="746.99" type="line"/>
      <point x="261.89000000000004" y="684.1999999999999" type="line"/>
      <point x="263.16" y="678.8299999999999" type="line"/>
      <point x="57.59000000000001" y="553.5" type="line"/>
    </contour>
  </outline>
</glyph>
<glyph name="divide" format="2">
  <advance width="413.682"/>
  <unicode hex="00F7"/>
  <outline>
    <contour>
      <point x="106.09400000000001" y="105.45" type="curve" smooth="yes"/>
      <point x="105.81400000000001" y="67.92399999999999"/>
      <point x="125.94399999999999" y="48.580000000000005"/>
      <point x="170.98399999999998" y="48.580000000000005" type="curve" smooth="yes"/>
      <point x="226.18400000000005" y="48.580000000000005"/>
      <point x="258.868" y="81.32800000000002"/>
      <point x="259.428" y="149.478" type="curve" smooth="yes"/>
      <point x="259.70799999999997" y="187.214"/>
      <point x="239.37" y="205.62800000000001"/>
      <point x="196.116" y="205.62800000000001" type="curve" smooth="yes"/>
      <point x="136.10599999999997" y="205.62800000000001"/>
      <point x="106.65400000000001" y="160.41"/>
    </contour>
    <contour>
      <point x="169.00800000000004" y="497.25" type="curve" smooth="yes"/>
      <point x="168.728" y="459.866"/>
      <point x="187.996" y="441.31000000000006"/>
      <point x="232.96800000000002" y="441.31000000000006" type="curve" smooth="yes"/>
      <point x="288.24" y="441.31000000000006"/>
      <point x="321.56800000000004" y="474.272"/>
      <point x="322.12800000000004" y="541.422" type="curve" smooth="yes"/>
      <point x="322.408" y="579.876"/>
      <point x="301.564" y="598.2180000000001"/>
      <point x="258.168" y="598.2180000000001" type="curve" smooth="yes"/>
      <point x="195.57999999999998" y="598.2180000000001"/>
      <point x="169.568" y="549.2"/>
    </contour>
    <contour>
      <point x="40.634" y="251.90999999999997" type="line"/>
      <point x="366.16" y="251.90999999999997" type="line"/>
      <point x="389.01000000000005" y="396.25" type="line"/>
      <point x="63.413999999999994" y="396.25" type="line"/>
    </contour>
  </outline>
</glyph>
<glyph name="oslash" format="2">
  <advance width="416.74"/>
  <unicode hex="00F8"/>
  <anchor x="240.93" y="547.1999999999999" name="top"/>
  <outline>
    <contour>
      <point x="378.32000000000005" y="557.9900000000001" type="line"/>
      <point x="311.95" y="467.25" type="line"/>
      <point x="307.3" y="469.22" type="line"/>
      <point x="92.77999999999999" y="162.5" type="line"/>
      <point x="89.38" y="164.92999999999998" type="line"/>
      <point x="-38.779999999999994" y="-10.0" type="line"/>
      <point x="35.49" y="-10.0" type="line"/>
      <point x="103.04999999999998" y="82.67" type="line"/>
      <point x="107.77000000000001" y="80.69999999999999" type="line"/>
      <point x="328.81999999999994" y="394.18000000000006" type="line"/>
      <point x="332.15" y="391.74999999999994" type="line"/>
      <point x="453.48999999999995" y="557.9900000000001" type="line"/>
    </contour>
    <contour>
      <point x="182.74" y="-10.0" type="curve" smooth="yes"/>
      <point x="345.66" y="-10.0"/>
      <point x="404.0400000000001" y="182.61"/>
      <point x="404.0400000000001" y="380.26" type="curve" smooth="yes"/>
      <point x="404.0400000000001" y="499.12"/>
      <point x="352.91" y="557.9900000000001"/>
      <point x="233.87" y="557.9900000000001" type="curve" smooth="yes"/>
      <point x="69.09" y="557.9900000000001"/>
      <point x="10.67" y="364.58000000000004"/>
      <point x="10.67" y="167.79999999999998" type="curve" smooth="yes"/>
      <point x="10.67" y="49.08"/>
      <point x="61.73" y="-10.0"/>
    </contour>
    <contour>
      <point x="186.19" y="123.99" type="curve" smooth="yes"/>
      <point x="164.29999999999998" y="123.74"/>
      <point x="152.3" y="136.86999999999998"/>
      <point x="151.87000000000003" y="163.95000000000002" type="curve" smooth="yes"/>
      <point x="150.47" y="224.05"/>
      <point x="180.01000000000002" y="423.5"/>
      <point x="228.73" y="424.0" type="curve" smooth="yes"/>
      <point x="250.29999999999998" y="424.25"/>
      <point x="262.47999999999996" y="410.9100000000001"/>
      <point x="262.91" y="384.11000000000007" type="curve" smooth="yes"/>
      <point x="264.31" y="322.61"/>
      <point x="234.56" y="124.31"/>
    </contour>
  </outline>
</glyph>
<glyph name="thorn" format="2">
  <advance width="422.58500000000004"/>
  <unicode hex="00FE"/>
  <outline>
    <contour>
      <point x="-48.562" y="-210.0" type="line"/>
      <point x="102.96699999999998" y="-210.0" type="line"/>
      <point x="136.009" y="-2.304" type="line"/>
      <point x="149.70899999999997" y="-5.252"/>
      <point x="168.22299999999996" y="-8.495"/>
      <point x="194.551" y="-8.495" type="curve" smooth="yes"/>
      <point x="342.51000000000005" y="-8.495"/>
      <point x="413.71400000000006" y="177.26"/>
      <point x="413.71400000000006" y="375.28700000000003" type="curve" smooth="yes"/>
      <point x="413.71400000000006" y="503.26400000000007"/>
      <point x="385.948" y="557.2"/>
      <point x="313.142" y="557.2" type="curve" smooth="yes"/>
      <point x="265.947" y="557.2"/>
      <point x="238.42799999999997" y="535.567"/>
      <point x="218.71499999999997" y="517.375" type="curve"/>
      <point x="253.52299999999997" y="740.0" type="line"/>
      <point x="101.438" y="740.0" type="line"/>
    </contour>
    <contour>
      <point x="178.40299999999996" y="125.83399999999999" type="curve" smooth="yes"/>
      <point x="171.434" y="125.83399999999999"/>
      <point x="164.1" y="126.75399999999999"/>
      <point x="157.49899999999997" y="129.16899999999998" type="curve"/>
      <point x="200.221" y="398.91" type="line"/>
      <point x="208.105" y="403.351"/>
      <point x="219.511" y="407.176"/>
      <point x="230.01700000000002" y="407.176" type="curve" smooth="yes"/>
      <point x="248.01000000000002" y="407.176"/>
      <point x="257.329" y="395.3"/>
      <point x="257.329" y="354.21299999999997" type="curve" smooth="yes"/>
      <point x="257.329" y="249.18"/>
      <point x="225.01999999999998" y="125.83399999999999"/>
    </contour>
  </outline>
</glyph>
<glyph name="Dcroat" format="2">
  <advance width="473.268"/>
  <unicode hex="0110"/>
  <outline>
    <contour>
      <point x="7.882" y="279.43499999999995" type="line"/>
      <point x="247.86599999999999" y="279.43499999999995" type="line"/>
      <point x="272.07800000000003" y="423.929" type="line"/>
      <point x="31.878" y="423.929" type="line"/>
    </contour>
    <component base="D" xOffset="11.051000000000002"/>
  </outline>
</glyph>
<glyph name="dcroat" format="2">
  <advance width="433.79099999999994"/>
  <unicode hex="0111"/>
  <outline>
    <contour>
      <point x="199.92999999999998" y="612.731" type="line"/>
      <point x="485.30600000000004" y="612.731" type="line"/>
      <point x="498.838" y="698.636" type="line"/>
      <point x="214.215" y="698.636" type="line"/>
    </contour>
    <component base="d"/>
  </outline>
</glyph>
<glyph name="Hbar" format="2">
  <advance width="467.52799999999996"/>
  <unicode hex="0126"/>
  <outline>
    <contour>
      <point x="34.278000000000006" y="500.682" type="line"/>
      <point x="505.16400000000004" y="500.682" type="line"/>
      <point x="526.356" y="631.3359999999999" type="line"/>
      <point x="55.47" y="631.3359999999999" type="line"/>
    </contour>
    <component base="H" xOffset="4.095999999999999"/>
  </outline>
</glyph>
<glyph name="hbar" format="2">
  <advance width="428.442"/>
  <unicode hex="0127"/>
  <outline>
    <contour>
      <point x="52.56" y="612.731" type="line"/>
      <point x="311.899" y="612.731" type="line"/>
      <point x="325.361" y="698.636" type="line"/>
      <point x="66.022" y="698.636" type="line"/>
    </contour>
    <component base="h" xOffset="5.662"/>
  </outline>
</glyph>
<glyph name="Idotaccent" format="2">
  <advance width="215.682"/>
  <unicode hex="0130"/>
  <outline>
    <contour>
      <point x="212.366" y="926.56" type="curve" smooth="yes"/>
      <point x="137.578" y="926.56"/>
      <point x="108.182" y="866.2800000000001"/>
      <point x="107.79" y="802.09" type="curve" smooth="yes"/>
      <point x="107.664" y="754.9739999999999"/>
      <point x="132.372" y="731.826"/>
      <point x="180.326" y="731.826" type="curve" smooth="yes"/>
      <point x="253.54999999999998" y="731.826"/>
      <point x="284.438" y="792.4499999999999"/>
      <point x="284.844" y="857.1700000000001" type="curve" smooth="yes"/>
      <point x="284.97" y="904.1859999999999"/>
      <point x="259.53" y="926.56"/>
    </contour>
    <component base="I"/>
  </outline>
</glyph>
<glyph name="dotlessi" format="2">
  <advance width="208.122"/>
  <unicode hex="0131"/>
  <anchor x="60.416184" y="0.0" name="bottom"/>
  <anchor x="136.77" y="0.0" name="ogonek"/>
  <anchor x="147.01981600000002" y="547.2" name="top"/>
  <outline>
    <contour>
      <point x="136.77" y="0.0" type="line"/>
      <point x="223.26399999999998" y="547.2" type="line"/>
      <point x="70.878" y="547.2" type="line"/>
      <point x="-15.661999999999997" y="0.08600000000000001" type="line"/>
    </contour>
  </outline>
</glyph>
<glyph name="kgreenlandic" format="2">
  <advance width="406.59000000000003"/>
  <unicode hex="0138"/>
  <anchor x="177.85999999999999" y="0.0" name="bottom"/>
  <anchor x="252.39008" y="547.1999999999999" name="top"/>
  <outline>
    <contour>
      <point x="-15.59" y="0.0" type="line"/>
      <point x="136.92000000000002" y="0.0" type="line"/>
      <point x="223.60999999999999" y="547.1999999999999" type="line"/>
      <point x="70.85" y="547.1999999999999" type="line"/>
    </contour>
    <contour>
      <point x="312.66" y="-10.0" type="curve" smooth="yes"/>
      <point x="327.33000000000004" y="-10.0"/>
      <point x="341.81999999999994" y="-8.209999999999999"/>
      <point x="357.96" y="-2.2" type="curve"/>
      <point x="382.09000000000003" y="164.59" type="line"/>
      <point x="374.91" y="164.31"/>
      <point x="368.87" y="164.85000000000002"/>
      <point x="363.26" y="165.78" type="curve" smooth="yes"/>
      <point x="336.87" y="169.88999999999996"/>
      <point x="314.16999999999996" y="185.46999999999997"/>
      <point x="265.35999999999996" y="265.82000000000005" type="curve" smooth="yes"/>
      <point x="186.63" y="394.9" type="line"/>
      <point x="150.37999999999997" y="201.1" type="line"/>
      <point x="202.43999999999997" y="92.30000000000001" type="line" smooth="yes"/>
      <point x="234.26" y="25.72"/>
      <point x="266.7" y="-10.0"/>
    </contour>
    <contour>
      <point x="260.14" y="234.27999999999997" type="line"/>
      <point x="342.89000000000004" y="317.64"/>
      <point x="415.53" y="439.16"/>
      <point x="443.33000000000004" y="543.6800000000001" type="curve"/>
      <point x="292.15" y="557.2" type="line"/>
      <point x="268.88" y="454.2"/>
      <point x="233.4" y="394.93"/>
      <point x="183.77" y="335.90999999999997" type="curve"/>
    </contour>
  </outline>
</glyph>
<glyph name="Ldot" format="2">
  <advance width="360.704"/>
  <unicode hex="013F"/>
  <outline>
    <contour>
      <point x="245.12245199999998" y="373.55258799999996" type="curve" smooth="yes"/>
      <point x="244.856452" y="339.589748"/>
      <point x="260.086388" y="323.290586"/>
      <point x="295.87496999999996" y="323.290586" type="curve" smooth="yes"/>
      <point x="350.17671399999995" y="323.290586"/>
      <point x="368.6323919999999" y="375.96626599999996"/>
      <point x="368.926392" y="419.577816" type="curve" smooth="yes"/>
      <point x="369.192392" y="452.554914"/>
      <point x="354.088456" y="468.980076"/>
      <point x="318.901358" y="468.980076" type="curve" smooth="yes"/>
      <point x="265.20187200000004" y="468.980076"/>
      <point x="245.416452" y="416.820138"/>
    </contour>
    <component base="L"/>
  </outline>
</glyph>
<glyph name="ldot" format="2">
  <advance width="318.688"/>
  <unicode hex="0140"/>
  <outline>
    <contour>
      <point x="225.10894000000002" y="355.97363" type="curve" smooth="yes"/>
      <point x="224.84294" y="324.06593200000003"/>
      <point x="238.239184" y="308.91203200000007"/>
      <point x="270.097566" y="308.91203200000007" type="curve" smooth="yes"/>
      <point x="319.710418" y="308.91203200000007"/>
      <point x="335.35381" y="359.791946"/>
      <point x="335.64781" y="400.452664" type="curve" smooth="yes"/>
      <point x="335.91381" y="431.33308200000005"/>
      <point x="322.64356599999996" y="446.61298200000004"/>
      <point x="291.33911" y="446.61298200000004" type="curve" smooth="yes"/>
      <point x="242.279324" y="446.61298200000004"/>
      <point x="225.40294" y="396.40154599999994"/>
    </contour>
    <component base="l"/>
  </outline>
</glyph>
<glyph name="Lslash" format="2">
  <advance width="380.294"/>
  <unicode hex="0141"/>
  <outline>
    <contour>
      <point x="6.02" y="0.0" type="line"/>
      <point x="324.464" y="0.0" type="line"/>
      <point x="347.67400000000004" y="144.302" type="line"/>
      <point x="182.132" y="144.302" type="line"/>
      <point x="209.804" y="319.874" type="line"/>
      <point x="318.928" y="377.258" type="line"/>
      <point x="345.116" y="532.03" type="line"/>
      <point x="234.44400000000002" y="473.87199999999996" type="line"/>
      <point x="271.212" y="700.0" type="line"/>
      <point x="118.138" y="700.0" type="line"/>
      <point x="68.924" y="395.76199999999994" type="line"/>
      <point x="21.372" y="370.472" type="line"/>
      <point x="-2.448" y="216.00400000000002" type="line"/>
      <point x="44.158" y="241.20799999999997" type="line"/>
    </contour>
  </outline>
</glyph>
<glyph name="lslash" format="2">
  <advance width="251.82000000000002"/>
  <unicode hex="0142"/>
  <outline>
    <contour>
      <point x="-4.3420000000000005" y="215.314" type="line"/>
      <point x="262.83" y="389.126" type="line"/>
      <point x="284.546" y="525.1419999999999" type="line"/>
      <point x="16.514" y="351.33000000000004" type="line"/>
    </contour>
    <component base="l" xOffset="15.479999999999999"/>
  </outline>
</glyph>
<glyph name="Eng" format="2">
  <advance width="466.16499999999996"/>
  <unicode hex="014A"/>
  <outline>
    <contour>
      <point x="-13.465" y="0.0" type="line"/>
      <point x="124.48499999999999" y="0.0" type="line"/>
      <point x="180.77" y="345.99" type="line"/>
      <point x="239.99999999999997" y="-5.92" type="line"/>
      <point x="235.275" y="-36.230000000000004"/>
      <point x="221.44" y="-45.77"/>
      <point x="203.05" y="-45.77" type="curve" smooth="yes"/>
      <point x="193.93499999999997" y="-45.910000000000004"/>
      <point x="185.94" y="-45.235"/>
      <point x="178.495" y="-43.14" type="curve"/>
      <point x="152.57" y="-203.21" type="line"/>
      <point x="167.83499999999998" y="-207.205"/>
      <point x="187.515" y="-207.62499999999997"/>
      <point x="204.225" y="-207.62499999999997" type="curve" smooth="yes"/>
      <point x="301.69500000000005" y="-203.215"/>
      <point x="368.99" y="-144.35000000000002"/>
      <point x="389.585" y="-12.59" type="curve" smooth="yes"/>
      <point x="502.735" y="700.0" type="line"/>
      <point x="364.42499999999995" y="700.0" type="line"/>
      <point x="303.155" y="327.365" type="line"/>
      <point x="249.145" y="700.14" type="line"/>
      <point x="97.86" y="700.14" type="line"/>
    </contour>
  </outline>
</glyph>
<glyph name="eng" format="2">
  <advance width="418.27199999999993"/>
  <unicode hex="014B"/>
  <outline>
    <contour>
      <point x="344.822" y="11.132000000000007" type="curve" smooth="yes"/>
      <point x="356.736" y="88.70000000000003"/>
      <point x="419.162" y="441.33"/>
      <point x="419.162" y="464.75600000000003" type="curve" smooth="yes"/>
      <point x="419.162" y="522.9200000000001"/>
      <point x="386.766" y="557.2"/>
      <point x="326.596" y="557.2" type="curve" smooth="yes"/>
      <point x="287.93" y="557.2"/>
      <point x="248.81400000000002" y="546.028"/>
      <point x="202.036" y="510.584" type="curve"/>
      <point x="207.35399999999998" y="547.2" type="line"/>
      <point x="70.792" y="547.2" type="line"/>
      <point x="-15.773999999999997" y="0.0" type="line"/>
      <point x="136.056" y="0.0" type="line"/>
      <point x="200.49800000000002" y="397.63" type="line"/>
      <point x="212.92" y="405.418"/>
      <point x="224.59799999999998" y="409.882"/>
      <point x="235.934" y="409.882" type="curve" smooth="yes"/>
      <point x="250.58400000000003" y="409.882"/>
      <point x="257.80400000000003" y="402.736"/>
      <point x="257.116" y="389.23599999999993" type="curve" smooth="yes"/>
      <point x="256.084" y="378.912"/>
      <point x="252.52400000000003" y="357.188"/>
      <point x="196.016" y="7.789999999999997" type="curve" smooth="yes"/>
      <point x="190.828" y="-24.671999999999993"/>
      <point x="180.168" y="-48.628000000000014"/>
      <point x="160.568" y="-48.628000000000014" type="curve" smooth="yes"/>
      <point x="157.894" y="-48.628000000000014"/>
      <point x="153.17800000000003" y="-48.474000000000004"/>
      <point x="148.802" y="-46.52" type="curve"/>
      <point x="113.444" y="-213.676" type="line"/>
      <point x="128.988" y="-217.336"/>
      <point x="149.238" y="-220.084"/>
      <point x="174.42199999999997" y="-220.084" type="curve" smooth="yes"/>
      <point x="247.93999999999997" y="-220.084"/>
      <point x="320.70599999999996" y="-171.41"/>
    </contour>
  </outline>
</glyph>
<glyph name="OE" format="2">
  <advance width="626.0749999999999"/>
  <unicode hex="0152"/>
  <outline>
    <contour>
      <point x="568.44" y="0.0" type="line"/>
      <point x="591.2900000000001" y="142.975" type="line"/>
      <point x="406.51500000000004" y="142.975" type="line"/>
      <point x="428.56" y="283.73999999999995" type="line"/>
      <point x="580.8149999999998" y="283.73999999999995" type="line"/>
      <point x="603.0150000000001" y="417.385" type="line"/>
      <point x="450.69" y="417.385" type="line"/>
      <point x="472.03" y="553.26" type="line"/>
      <point x="645.5199999999999" y="553.26" type="line"/>
      <point x="669.765" y="700.0" type="line"/>
      <point x="493.68" y="700.0" type="line"/>
      <point x="443.55499999999995" y="705.1850000000001"/>
      <point x="374.56" y="710.0"/>
      <point x="325.215" y="710.0" type="curve" smooth="yes"/>
      <point x="88.37" y="710.0"/>
      <point x="16.835" y="388.68"/>
      <point x="16.835" y="199.53500000000003" type="curve" smooth="yes"/>
      <point x="16.835" y="63.370000000000005"/>
      <point x="71.74999999999999" y="-10.0"/>
      <point x="218.81499999999997" y="-10.0" type="curve" smooth="yes"/>
      <point x="258.66999999999996" y="-10.0"/>
      <point x="306.80500000000006" y="-7.685"/>
      <point x="371.885" y="0.0" type="curve"/>
    </contour>
    <contour>
      <point x="252.35999999999996" y="135.83" type="line"/>
      <point x="242.05" y="133.445"/>
      <point x="230.10999999999999" y="132.375"/>
      <point x="216.915" y="132.375" type="curve" smooth="yes"/>
      <point x="184.9" y="132.375"/>
      <point x="169.455" y="163.9"/>
      <point x="169.455" y="209.76000000000002" type="curve" smooth="yes"/>
      <point x="169.455" y="338.20000000000005"/>
      <point x="224.42500000000004" y="562.355"/>
      <point x="289.235" y="562.355" type="curve" smooth="yes"/>
      <point x="301.71" y="562.355"/>
      <point x="313.035" y="560.6149999999999"/>
      <point x="320.48499999999996" y="560.085" type="curve"/>
    </contour>
  </outline>
</glyph>
